<?xml version="1.0" standalone="no"?>
<!DOCTYPE svg PUBLIC "-//W3C//DTD SVG 1.1//EN" "http://www.w3.org/Graphics/SVG/1.1/DTD/svg11.dtd" >
<svg>
<metadata>
Created by FontForge 20090914 at Mon Aug  8 17:41:48 2022
 By www-data
2011 Iconian Fonts - www.iconian.com
</metadata>
<defs>
<font id="HeroesAssembleBoldExpandtalic" horiz-adv-x="200" >
  <font-face 
    font-family="Heroes Assemble Bold Expandtalic"
    font-weight="700"
    font-style="italic"
    font-stretch="normal"
    units-per-em="1000"
    panose-1="0 0 0 0 0 0 0 0 0 0"
    ascent="800"
    descent="-200"
    x-height="685"
    cap-height="920"
    bbox="-131.004 -232 2540 1033"
    underline-thickness="50"
    underline-position="-75"
    slope="-12"
    unicode-range="U+0020-U+2122"
  />
<missing-glyph horiz-adv-x="500" 
 />
    <glyph glyph-name=".notdef" horiz-adv-x="500" 
 />
    <glyph glyph-name="space" unicode=" " horiz-adv-x="293" 
 />
    <glyph glyph-name="space" unicode="&#xa0;" horiz-adv-x="293" 
 />
    <glyph glyph-name="FL0021h" unicode="!" horiz-adv-x="206" 
d="M89 209h154l145 476h-154zM25 0h154l41 135h-154z" />
    <glyph glyph-name="FL0022h" unicode="&#x22;" horiz-adv-x="370" 
d="M151 405l186 100l-30 -100l186 100l36 117h-312z" />
    <glyph glyph-name="FL0023h" unicode="#" horiz-adv-x="543" 
d="M92 0h165l63 205h27l-63 -205h162l63 205h66l42 139h-66l3 10h66l42 138h-66l59 193h-162l-59 -193h-27l59 193h-165l-59 -193h-65l-42 -138h65l-3 -10h-65l-42 -139h65zM367 362h27l-5 -18h-27z" />
    <glyph glyph-name="FL0024h" unicode="$" horiz-adv-x="387" 
d="M136 -75h62l23 75h88c10.667 0 20.334 3.5 29.001 10.5s16 15.167 22 24.5s10.667 18.666 14 27.999s5.66602 16.333 6.99902 21l7 23c3.33301 11.333 6.33301 22 9 32s4.66699 18 6 24l2 7c1.33301 6 1.83301 10 1.5 12s-0.833008 6.66699 -1.5 14l-6 13
c-0.666992 6 -2 16.167 -4 30.5l-8.5 62l-14 102.5l-21.5 154h176l40 133h-137l21 67h-60l-21 -67h-68c-14.667 0 -27.167 -4.83301 -37.5 -14.5s-19.833 -19.167 -28.5 -28.5l-7 -7c-3.33301 -3.33301 -5.33301 -5.66602 -6 -6.99902l-35 -114l54 -385h-174l-41 -135h132z
M397 217l-0.999023 -2v1c0.666992 2 1.16699 2.83301 1.5 2.5s0.166016 -0.833008 -0.500977 -1.5z" />
    <glyph glyph-name="FL0025h" unicode="%" horiz-adv-x="602" 
d="M403 684l-123.001 0.000976562c-8.66699 0 -18.5 -4 -29.5 -12s-18.833 -14.333 -23.5 -19l-91 -295c1.33301 -5.33301 5.5 -12.166 12.5 -20.499s14.167 -12.5 21.5 -12.5h123c4.66699 0 11.334 2.33301 20.001 7l-90 -111v1c-4 -4 -8.33301 -11 -13 -21l1 1l-10 -11
c-4 -5.33301 -6.5 -8.83301 -7.5 -10.5s-2.83301 -5.83398 -5.5 -12.501l-2 -7c-2.66699 -5.33301 -5.66699 -13 -9 -23l-10 -31l-33 -107h159l47 155l115 147l-83 -272c1.33301 -4.66699 5.5 -10.834 12.5 -18.501s14.5 -11.5 22.5 -11.5h123c4 0 8.5 1.16699 13.5 3.5
s9.83301 5.33301 14.5 9l13 10.5c4 3.33301 7 6 9 8l90 294c0 5.33301 -3 12.333 -9 21s-13 13 -21 13h-123c-4.66699 0 -11.667 -2.66699 -21 -8l131 164l52 170h-158l-40 -133c-0.666992 -0.666992 -1 -2 -1 -4s-0.333008 -3.33301 -1 -4
c0 -2.66699 -1 -5.33398 -3 -8.00098l-1 -3v-1c-2.66699 0 -5 -1.66699 -7 -5v1c-1.33301 -1.33301 -2.33301 -3.66602 -3 -6.99902l-115 -142l83 273c-0.666992 4.66699 -3.5 11.167 -8.5 19.5s-12.167 12.5 -21.5 12.5zM538.999 274.001
c0.666992 1.33301 1.33301 2.33301 2 3s3 1 7 1h10c1.33301 0 2.33301 -0.166992 3 -0.5l3 -1.5l2 -2l-60 -194c-1.33301 -1.33301 -4 -2 -8 -2h-10c-5.33301 0 -8 0.333008 -8 1l-1 -1zM299.998 599.001c0.666992 1.33301 1.33203 2.16699 1.99902 2.5s1 0.833008 1 1.5
c0.666992 0.666992 3.33398 1 8.00098 1h9c2 0 3.16699 -0.166992 3.5 -0.5s1.5 -0.833008 3.5 -1.5l1 -2l-59 -193c-1.33301 -1.33301 -4 -2 -8 -2h-10c-5.33301 0 -8 0.333008 -8 1l-2 -1z" />
    <glyph glyph-name="FL0026h" unicode="&#x26;" horiz-adv-x="458" 
d="M390 0l85.999 280.001h37l42 139h-245l37 120l2 3h2c3.33301 6 7.33301 9.83301 12 11.5s10.667 2.83398 18 3.50098h98l39 128h-210c-7.33301 0 -15.166 -2 -23.499 -6s-16.5 -9 -24.5 -15s-15.5 -12 -22.5 -18s-12.167 -11 -15.5 -15l-75 -246
c-6 -20 -4.33301 -35.667 5 -47c-7.33301 -4 -13.5 -8.83301 -18.5 -14.5s-10.167 -13.834 -15.5 -24.501l-75 -246c1.33301 -4.66699 3.83301 -10 7.5 -16s8 -11.833 13 -17.5s10.5 -10.334 16.5 -14.001s12.333 -5.5 19 -5.5h291zM225.999 144.001l42.001 136h53l-47 -154
h-25c-8 0 -13.833 0.833008 -17.5 2.5s-5.83398 6.16699 -6.50098 13.5z" />
    <glyph glyph-name="FL0027h" unicode="'" 
d="M149 404l174 101l36 117h-144z" />
    <glyph glyph-name="FL002Ah" unicode="(" horiz-adv-x="355" 
d="M377 644l-2.00098 -5l-180 -591l-2 -5l1 1c0.666992 -5.33301 2.5 -8.83301 5.5 -10.5s8.16699 -2.5 15.5 -2.5h118l-38 -126h-228c-6.66699 0 -13 1.83301 -19 5.5s-11.333 8.16699 -16 13.5s-8.66699 11 -12 17s-5.33301 11.333 -6 16l237 777
c3.33301 3.33301 8.5 8 15.5 14s14.833 12 23.5 18s17.334 11.167 26.001 15.5s16 6.5 22 6.5h227l-40 -130h-119c-6.66699 -0.666992 -12 -1.66699 -16 -3s-8 -5 -12 -11h-1z" />
    <glyph glyph-name="FL00A7h" unicode=")" horiz-adv-x="355" 
d="M366 639l-179.999 -590.999l-3 -4l1 1c-4.66699 -6 -9.33398 -9.83301 -14.001 -11.5s-10.334 -2.5 -17.001 -2.5h-117l-38 -126h228c6 0 13 1.83301 21 5.5s16.167 8.16699 24.5 13.5s16 11 23 17s12.5 11.333 16.5 16l237 777c-1.33301 3.33301 -3.66602 8 -6.99902 14
s-7.33301 12 -12 18s-10 11.167 -16 15.5s-12 6.5 -18 6.5h-227l-40 -130h118c6.66699 -0.666992 11.5 -1.83398 14.5 -3.50098s5.16699 -5.5 6.5 -11.5z" />
    <glyph glyph-name="asterisk" unicode="*" horiz-adv-x="252" 
d="M283 454l82 42l-23 29l47 10v72l-50 -19l19 42h-84l-7 -42l-31 19l-52 -72l42 -10l-41 -28l55 -43l32 35z" />
    <glyph glyph-name="FL002Bh" unicode="+" horiz-adv-x="380" 
d="M389 422h-147l-13 -42h-86l-38 -126h86l-13 -42h147l13 42h89l38 126h-89z" />
    <glyph glyph-name="FL002Ch" unicode="," 
d="M-4 -94l175 101l36 116h-144z" />
    <glyph glyph-name="FL002Dh" unicode="-" horiz-adv-x="310" 
d="M131 339l-35 -113h252l35 113h-252z" />
    <glyph glyph-name="FL002Eh" unicode="." 
d="M25 0h144l33 109h-144z" />
    <glyph glyph-name="FL002Fh" unicode="/" horiz-adv-x="385" 
d="M228 155l-46.999 -155.003h-154l33 107c3.33301 10.667 6.83301 21 10.5 31l8.5 23l2 7c2.66699 6.66699 4.5 10.834 5.5 12.501s3.5 5.16699 7.5 10.5l9 11l-1 -1c4.66699 10 9 17 13 21v-1l238 300l-1 -3l2 5c0.666992 0.666992 1 1.66699 1 3
c0 0.666992 0.333008 1.33398 1 2.00098v-1c1.33301 2.66699 2.66602 4.5 3.99902 5.5s2.33301 1.83301 3 2.5v1c2 2.66699 3 5.33398 3 8.00098c0.666992 0.666992 1 2 1 4s0.333008 3.33301 1 4l40 133h155l-52 -170z" />
    <glyph glyph-name="FL006Fh" unicode="0" horiz-adv-x="442" 
d="M551 686h-243c-7.33301 0 -15.333 -2 -24 -6s-17 -9 -25 -15s-15.5 -12 -22.5 -18s-12.5 -11 -16.5 -15l-177 -579c0.666992 -4.66699 2.66699 -10 6 -16s7.5 -11.833 12.5 -17.5s10.667 -10.334 17 -14.001s12.833 -5.5 19.5 -5.5h243c6 0 13.333 1.83301 22 5.5
s17.167 8.33398 25.5 14.001s16 11.5 23 17.5s12.167 11.333 15.5 16l177 579c-1.33301 4 -3.5 9 -6.5 15s-6.83301 12 -11.5 18s-10 11 -16 15s-12.333 6 -19 6zM344 532l1 6c1.33301 4 3.33301 7.33301 6 10c7.33301 5.33301 16.666 8 27.999 8h20
c2.66699 0 8 -1.66699 16 -5l1 2l8 -7l-124 -404l-3 -3c-3.33301 -6 -7 -9.66699 -11 -11s-9.66699 -2 -17 -2h-20c-9.33301 0 -15.666 1 -18.999 3s-5.33301 7.33301 -6 16c0.666992 0 1 -0.333008 1 -1z" />
    <glyph glyph-name="FL0031h" unicode="1" horiz-adv-x="260" 
d="M186 550h59l-168 -550h152l209 685h-146z" />
    <glyph glyph-name="FL0032h" unicode="2" horiz-adv-x="387" 
d="M234 158l-7.00098 -23.0029h170l-41 -135h-283c-10.667 0 -17.834 3.5 -21.501 10.5s-5.5 15.167 -5.5 24.5s1.16699 18.666 3.5 27.999s4.16602 16.333 5.49902 21l7 23l10 31c3.33301 10 6 17.667 8 23l2 7c2.66699 6.66699 4.5 10.834 5.5 12.501
s3.5 5.16699 7.5 10.5l1 1h-1l10 15l11 17l238 297l-1 -3l2 5c1.33301 3.33301 2.33301 5 3 5v-2c0.666992 2.66699 2.33398 5.33398 5.00098 8.00098l1 1c0.666992 1.33301 1.83398 3.83301 3.50098 7.5s3.16699 7.5 4.5 11.5h-176l40 131h266
c10.667 0 17.5 -7.83301 20.5 -23.5s5.16699 -32.5 6.5 -50.5v1v-4v-3c-0.666992 -7.33301 -0.666992 -13.666 0 -18.999s1.33398 -9.66602 2.00098 -12.999l-18 -58z" />
    <glyph glyph-name="FL0033h" unicode="3" horiz-adv-x="392" 
d="M113 280l180.002 -0.00195312l-42 -137c-4.66699 -7.33301 -9.33398 -12 -14.001 -14s-10.334 -3 -17.001 -3h-154l-39 -126h262c6 0 13.167 1.83301 21.5 5.5s16.833 8.33398 25.5 14.001s16.667 11.5 24 17.5s13 11.333 17 16l75 246
c1.33301 10.667 1.16602 18.834 -0.500977 24.501s-4.83398 10.5 -9.50098 14.5c14 10 26 25.667 36 47l75 246c-1.33301 4 -3.66602 9 -6.99902 15s-7.5 12 -12.5 18s-10.5 11 -16.5 15s-12.333 6 -19 6h-262l-39 -128h153c6.66699 -0.666992 11.834 -1.66699 15.501 -3
s5.5 -5 5.5 -11h1v-1v-3l-37 -120h-180z" />
    <glyph glyph-name="FL0034h" unicode="4" horiz-adv-x="445" 
d="M258 0l86 280h-231l123 405h155l-81 -266h76l81 266h156l-209 -685h-156z" />
    <glyph glyph-name="FL0035h" unicode="5" horiz-adv-x="387" 
d="M68 135l-40.999 -134.999h282c10.667 0 20.334 3.5 29.001 10.5s16 15.167 22 24.5s10.667 18.666 14 27.999s5.66602 16.333 6.99902 21l7 23c3.33301 10.667 6.16602 21 8.49902 31l5.5 23l2 7c0.666992 3.33301 1.16699 6 1.5 8s0.5 3.33301 0.5 4v4
c0 2 -0.333008 4.33301 -1 7l-1 1h3c-1.33301 4 -2.33301 9 -3 15s-1 11.667 -1 17l-56 299l1 5v4l1 3c-2 1.33301 -2.66699 3.83301 -2 7.5s1.66699 7.5 3 11.5h175l40 131h-329l-52 -170l62 -357l-7 -23h-171z" />
    <glyph glyph-name="FL0036h" unicode="6" horiz-adv-x="440" 
d="M194 0l12.0039 -0.000976562c2.66699 0 5.33398 -0.166992 8.00098 -0.5s5.66699 -0.5 9 -0.5h28c14.667 0 30.5 2.5 47.5 7.5s33.5 11 49.5 18s30.333 14.5 43 22.5s22.667 14.667 30 20l16 31l98 321h-225c6 10 15.167 22.667 27.5 38s25.166 30 38.499 44
s26 26.167 38 36.5s20.667 15.5 26 15.5h138l40 132h-232c-6.66699 0 -16.167 -4.16699 -28.5 -12.5s-26 -19.166 -41 -32.499s-30.167 -28 -45.5 -44l-43.5 -47c-13.667 -15.333 -25.334 -29 -35.001 -41s-15.834 -21 -18.501 -27l-112 -368l1 -16
c0.666992 -20.667 4.66699 -37 12 -49s16.166 -21.333 26.499 -28s21.666 -11 33.999 -13s23.833 -3.33301 34.5 -4c5.33301 -0.666992 9.83301 -1.16699 13.5 -1.5s7.16699 -0.833008 10.5 -1.5zM285.004 137.999h-9.00098c-10.667 0 -21.167 0.5 -31.5 1.5
s-15.833 5.16699 -16.5 12.5l1 4l38 126h73l-45 -148c0.666992 2.66699 -2.66602 4 -9.99902 4z" />
    <glyph glyph-name="FL0037h" unicode="7" horiz-adv-x="386" 
d="M187 0l48 158.001l277 357l52 170h-328l-40 -131h176l-4 -11.5c-1.33301 -3.66699 -3 -6.16699 -5 -7.5c-1.33301 -1.33301 -3 -4 -5 -8v1c-2 -2 -3.33301 -4.33301 -4 -7l-238 -300v1c-4 -4 -8.33301 -11 -13 -21l1 1l-9 -11c-4 -5.33301 -6.5 -8.83301 -7.5 -10.5
s-2.83301 -5.83398 -5.5 -12.501l-2 -7c-2 -5.33301 -4.66699 -13 -8 -23l-10 -31l-33 -107h158z" />
    <glyph glyph-name="FL0038h" unicode="8" horiz-adv-x="448" 
d="M308 685c-7.33301 0 -15.167 -1.99902 -23.5 -5.99902s-16.5 -9 -24.5 -15s-15.5 -12 -22.5 -18s-12.167 -11 -15.5 -15l-75 -246c-6 -20 -4.33301 -35.667 5 -47c-7.33301 -4 -13.5 -8.83301 -18.5 -14.5s-10.167 -13.834 -15.5 -24.501l-75 -246
c1.33301 -4.66699 3.83301 -10 7.5 -16s8 -11.833 13 -17.5s10.5 -10.334 16.5 -14.001s12.333 -5.5 19 -5.5h246c6 0 13.333 1.83301 22 5.5s17.167 8.33398 25.5 14.001s16.166 11.5 23.499 17.5s13 11.333 17 16l75 246c2 10.667 2.16699 19 0.5 25s-4.5 11 -8.5 15
c14 10 25.333 25.333 34 46l75 246c-1.33301 4 -3.66602 9 -6.99902 15s-7.33301 12 -12 18s-10.167 11 -16.5 15s-12.833 6 -19.5 6h-246zM239.999 126.001c-4.66699 0.666992 -8.33398 1.66602 -11.001 2.99902s-4 5 -4 11l43 140h79l-44 -141
c-3.33301 -5.33301 -6.66602 -8.66602 -9.99902 -9.99902s-7.33301 -2.33301 -12 -3h-41zM348.999 542l2.00098 -0.000976562c3.33301 6 7.33301 9.83301 12 11.5s10.667 2.83398 18 3.50098h26c7.33301 -0.666992 12.166 -1.66699 14.499 -3s3.5 -5 3.5 -11h1v-1v-3
l-37 -120h-79l37 120z" />
    <glyph glyph-name="FL0039h" unicode="9" horiz-adv-x="440" 
d="M414 686l-19.001 -1c-15.333 0 -31.666 -2.5 -48.999 -7.5s-33.833 -11 -49.5 -18s-29.834 -14.5 -42.501 -22.5s-22.334 -14.667 -29.001 -20l-16 -31l-98 -321h222c-5.33301 -10 -14 -22.5 -26 -37.5s-24.833 -29.667 -38.5 -44s-26.5 -26.5 -38.5 -36.5
s-20.667 -15 -26 -15h-137l-40 -132h231c6.66699 0 16.334 4.16699 29.001 12.5s26.5 19 41.5 32s30.333 27.5 46 43.5s30.167 31.5 43.5 46.5s24.833 28.667 34.5 41s15.834 21.5 18.501 27.5l113 368l-2 16c0 24 -5 42.5 -15 55.5s-23 22.833 -39 29.5s-34 10.667 -54 12
s-40 2 -60 2zM359.999 546l11 -0.000976562c9.33301 0 19 -0.666992 29 -2s15.333 -5.66602 16 -12.999l-39 -129h-72l45 147c-1.33301 -2 2 -3 10 -3z" />
    <glyph glyph-name="FL003Ah" unicode=":" 
d="M25 0h144l40 131h-144zM108 272h144l40 131h-144z" />
    <glyph glyph-name="FL003Bh" unicode=";" 
d="M-6 -103l177 110l39 126h-144zM109 276h144l41 133h-144z" />
    <glyph glyph-name="FL003Ch" unicode="&#x3c;" horiz-adv-x="385" 
d="M247 155l-7.99902 38l-115 148l212 173v-1l31 36l1 4l40 132h155l-52 -173l-194 -168l87 -119c-0.666992 -0.666992 -0.833984 -4.5 -0.500977 -11.5s1.16602 -14.167 2.49902 -21.5h-3v-1c1.33301 -5.33301 1.83301 -8.83301 1.5 -10.5l-2.5 -12.5l-2 -7
c-0.666992 -5.33301 -2.16699 -13 -4.5 -23s-5.16602 -20.333 -8.49902 -31l-33 -107h-154z" />
    <glyph glyph-name="FL003Dh" unicode="=" horiz-adv-x="399" 
d="M125 322l-39 -130h341l39 130h-341zM168 460l-40 -131h341l40 131h-341z" />
    <glyph glyph-name="FL003Eh" unicode="&#x3e;" horiz-adv-x="385" 
d="M465 341l-108.001 177.001l-8 31l1 4l2 4l2 4l37 124h-155l-52 -173l89 -168l-157 -119c-0.666992 -0.666992 -3.16699 -4.5 -7.5 -11.5s-9.16602 -14.167 -14.499 -21.5h1l-1 -1c-4 -5.33301 -6.5 -8.83301 -7.5 -10.5s-2.83301 -5.83398 -5.5 -12.501l-2 -7l-8.5 -23
c-3.66699 -10 -7.16699 -20.333 -10.5 -31l-33 -107h154l47 155l30 38z" />
    <glyph glyph-name="FL003Fh" unicode="?" horiz-adv-x="386" 
d="M219 151l292.999 363.999l35 113c-1.33301 1.33301 -2.66602 5.33301 -3.99902 12l-1 -1c-3.33301 11.333 -7.5 21.833 -12.5 31.5s-14.167 14.5 -27.5 14.5h-266l-40 -131h176l-4 -11.5c-1.33301 -3.66699 -3 -6.16699 -5 -7.5c-1.33301 -1.33301 -3 -4 -5 -8v1
c-2 -2 -3.33301 -4.33301 -4 -7l-238 -297l-11 -17l-10 -15l-1 -1c-3.33301 -3.33301 -5.83301 -7.16602 -7.5 -11.499l-4.5 -11.5l-5 -17h142zM26.999 -0.000976562h156l41 135h-156z" />
    <glyph glyph-name="FL00ABh" unicode="@" horiz-adv-x="735" 
d="M-130 -232h205l212 331h237l6 -99h179l26 927h-151zM544 541l-10 -289h-168z" />
    <glyph glyph-name="A" unicode="A" horiz-adv-x="734" 
d="M713 171l-5.00391 -171h-179l6 18c0.666992 3.33301 1.33398 5.83301 2.00098 7.5s1.33398 3.16699 2.00098 4.5l1 2c0.666992 1.33301 1.33398 2.83301 2.00098 4.5s1.33398 3.16699 2.00098 4.5zM-131.004 -232l714 1159h151l-21 -753l-165 142l-4 11l-1 214l-179 -290
h165l6 59l142 -123v-18l-146 -104l2 34h-248l-211 -331h-205z" />
    <glyph glyph-name="FL0042h" unicode="B" horiz-adv-x="518" 
d="M316 128c9.33301 0 16.168 0.666992 20.501 2s9.16602 5 14.499 11l1 4l74 240h-105l-79 -257h74zM443.002 790l-81.0029 -264h107l75 246l-0.5 0.5c-0.333008 0.333008 -0.166016 0.833008 0.500977 1.5v6c-1.33301 4.66699 -3.66602 7.5 -6.99902 8.5
s-9.66602 1.5 -18.999 1.5h-75zM308.999 921l376 0.00195312c6.66699 0 13.834 -1.83301 21.501 -5.5s14.834 -8.16699 21.501 -13.5s12.167 -11 16.5 -17s6.5 -11.333 6.5 -16l-116 -378c-8 -20.667 -20.333 -36.334 -37 -47.001c5.33301 -4 9.16602 -8.83301 11.499 -14.5
s2.83301 -13.834 1.5 -24.501l-108 -354c-4 -4 -10.167 -9 -18.5 -15s-17.333 -11.667 -27 -17s-19.334 -9.83301 -29.001 -13.5s-18.167 -5.5 -25.5 -5.5h-376z" />
    <glyph glyph-name="FL0043h" unicode="C" horiz-adv-x="499" 
d="M470 0l-200 0.00390625c-24 0 -48 0.5 -72 1.5s-46 4.5 -66 10.5s-36.333 15.667 -49 29s-19.334 32 -20.001 56l-1 18l184 601c2.66699 5.33301 9.33398 14.166 20.001 26.499s23.334 26.166 38.001 41.499s30.667 31.166 48 47.499s34.333 31.166 51 44.499
s32 24.333 46 33s25 13 33 13h268l-41 -134h-160c-7.33301 0 -19 -6.33301 -35 -19s-32.333 -27.334 -49 -44.001s-31.667 -33 -45 -49s-21 -27.333 -23 -34l-148 -484c1.33301 -7.33301 6.16602 -12.166 14.499 -14.499s16.833 -3.5 25.5 -3.5h19h205z" />
    <glyph glyph-name="FL0044h" unicode="D" horiz-adv-x="502" 
d="M338 144l193.999 635c0 5.33301 -2.16699 8.83301 -6.5 10.5s-11.166 2.5 -20.499 2.5h-60l-203 -665h57c9.33301 0 16.833 0.5 22.5 1.5s10.167 4.16699 13.5 9.5zM33.999 23l275 899h364c7.33301 0 14.5 -1.83301 21.5 -5.5s13.333 -8 19 -13s10.667 -10.5 15 -16.5
s7.5 -11 9.5 -15l-252 -822c-3.33301 -4 -8.83301 -9 -16.5 -15s-16.167 -11.667 -25.5 -17s-18.833 -9.83301 -28.5 -13.5s-18.167 -5.5 -25.5 -5.5h-389z" />
    <glyph glyph-name="FL0045h" unicode="E" horiz-adv-x="408" 
d="M27 0h350l42 137h-170l76 248h168l43 142h-164l80 262h166l41 133h-350z" />
    <glyph glyph-name="FL0046h" unicode="F" horiz-adv-x="408" 
d="M-42 -231h180l190 620h166l43 142h-164l81 264h166l41 133h-348z" />
    <glyph glyph-name="FL0047h" unicode="G" horiz-adv-x="499" 
d="M466 4l160.001 521.998h-220l-41 -135h45l-79 -256c1.33301 3.33301 -0.666992 5 -6 5h-17c-5.33301 0 -11.333 0.166992 -18 0.5s-12.834 1 -18.501 2s-10.5 2.83301 -14.5 5.5s-6.33301 6.33398 -7 11.001l147 483c1.33301 4.66699 5.33301 11.5 12 20.5s15 19 25 30
l32 34c11.333 11.667 22.5 22.167 33.5 31.5s21 17 30 23s15.833 9 20.5 9h160l40 134h-268c-8 0 -19 -4.33301 -33 -13s-29.333 -19.667 -46 -33s-33.667 -28.166 -51 -44.499l-48.5 -47.5c-15 -15.333 -27.667 -29.333 -38 -42s-16.833 -22 -19.5 -28l-184 -601v-20
c2.66699 -23.333 10.5 -41.5 23.5 -54.5s29 -22.5 48 -28.5s40.333 -9.5 64 -10.5s47.5 -1.5 71.5 -1.5h13l-17 -55z" />
    <glyph glyph-name="FL0048h" unicode="H" horiz-adv-x="504" 
d="M295 0l119 389h-94l-190 -621h-175l354 1159h177l-121 -397h92l121 397h176l-283 -927h-176z" />
    <glyph glyph-name="FL0049h" unicode="I" horiz-adv-x="226" 
d="M307 920h171l-281 -920h-171z" />
    <glyph glyph-name="FL004Ah" unicode="J" horiz-adv-x="502" 
d="M244 144l-1.00098 -3.00098c2.66699 -6 6.33398 -9.66699 11.001 -11s11.667 -2 21 -2h34c5.33301 0.666992 10 1.83398 14 3.50098s8.33301 5.16699 13 10.5v-1c0 0.666992 0.333008 1.16699 1 1.5s1 0.833008 1 1.5l237 776h177l-265 -869c-4 -4 -10 -9 -18 -15
s-16.5 -11.667 -25.5 -17s-18.167 -9.83301 -27.5 -13.5s-18 -5.5 -26 -5.5h-283c-7.33301 0 -14.833 2 -22.5 6s-14.667 8.83301 -21 14.5s-11.333 11.5 -15 17.5s-5.16699 11.333 -4.5 16l110 363h173z" />
    <glyph glyph-name="FL004Bh" unicode="K" horiz-adv-x="492" 
d="M539 319c0 -4 0.999023 -6.99609 2.99902 -8.99609v-18l1 1c0.666992 -4.66699 0.5 -9.83398 -0.5 -15.501s-1.5 -8.83398 -1.5 -9.50098l-7 -24c-2 -5.33301 -3.5 -11 -4.5 -17s-2.5 -12 -4.5 -18l-64 -209h-178l79 259l-33 133v-5h-8l-189 -619h-176l354 1159h174
l-122 -399h17l-3 -5l100 116c1.33301 1.33301 2.33301 2.66602 3 3.99902s1.66699 3.66602 3 6.99902l84 277h176l-92 -302l-145 -171l33 -128l-2 4c2.66699 0 3.33398 -1.66699 2.00098 -5h2z" />
    <glyph glyph-name="FL004Ch" unicode="L" horiz-adv-x="408" 
d="M309 922l-282 -923h350l40 133h-167l242 790h-183z" />
    <glyph glyph-name="FL004Dh" unicode="M" horiz-adv-x="739" 
d="M-44 -232h168l180 588l-3 -356h127l218 357l-109 -357h171l283 926h-177l-343 -589l13 589h-174z" />
    <glyph glyph-name="FL004Eh" unicode="N" horiz-adv-x="529" 
d="M-44 -232h185l182 594l6 -362h169l284 928h-186l-100 -325l-14 325h-171z" />
    <glyph glyph-name="FL0050h" unicode="O" horiz-adv-x="536" 
d="M317 171c-4.66699 8.66699 -9.00098 18.333 -13.001 29s-7.33301 21 -10 31s-4.5 19.167 -5.5 27.5s-1.16699 14.833 -0.5 19.5l112 365c0.666992 3.33301 4 9 10 17s13.5 17.333 22.5 28s19 21.5 30 32.5s21.833 21.167 32.5 30.5
c4.66699 -10 8.83398 -20.667 12.501 -32s6.66699 -22 9 -32s4 -19 5 -27s1.16699 -14 0.5 -18l-111 -363c-2 -4.66699 -5.83301 -11 -11.5 -19s-12.834 -17 -21.501 -27s-18.167 -20.333 -28.5 -31s-21.166 -21 -32.499 -31zM567.999 205.999l156.003 509.004
c0.666992 8.66699 -2.5 24.167 -9.5 46.5s-16 45.333 -27 69s-23.167 44.667 -36.5 63s-26 27.5 -38 27.5h-145l-8 -6c-10 -3.33301 -21.833 -10 -35.5 -20s-28 -21.5 -43 -34.5s-30.167 -27 -45.5 -42s-29.333 -29.333 -42 -43s-23.334 -26 -32.001 -37
s-14 -18.833 -16 -23.5l-156 -509c-1.33301 -6 -0.666016 -15 2.00098 -27s6.66699 -25.333 12 -40s11.666 -30 18.999 -46s15.166 -30.667 23.499 -44s16.666 -24.5 24.999 -33.5s16.166 -14.167 23.499 -15.5h136c8 0 19 4.33301 33 13s29.167 19.667 45.5 33
s33.333 28.166 51 44.499s34 32.166 49 47.499s27.833 29.166 38.5 41.499s17.334 21.166 20.001 26.499z" />
    <glyph glyph-name="FL0052h" unicode="P" horiz-adv-x="499" 
d="M446 800l-95 -309.999h57c4.66699 0 11.5 0.833008 20.5 2.5s14.833 6.5 17.5 14.5l83 273v2c0 2.66699 0.333008 4.66699 1 6c-1.33301 5.33301 -4.33301 8.66602 -9 9.99902s-11.667 2 -21 2h-54zM-42 -230.999l355.003 1159h355c7.33301 0 14.666 -2 21.999 -6
s14.166 -9 20.499 -15s11.666 -12 15.999 -18s7.16602 -11 8.49902 -15l-129 -422l-3 -6c-2 -1.33301 -3 -3 -3 -5c-5.33301 -11.333 -10.666 -21.166 -15.999 -29.499s-12 -15.166 -20 -20.499c-25.333 -16.667 -48 -26.834 -68 -30.501s-32.667 -5.5 -38 -5.5h-136
l-180 -586h-184z" />
    <glyph glyph-name="FL005Ch" unicode="Q" horiz-adv-x="536" 
d="M265 203h73l-28 148zM496 751c-11.333 -10 -22.3311 -20.5 -32.998 -31.5s-20.334 -21.5 -29.001 -31.5s-16 -18.833 -22 -26.5s-10 -13.5 -12 -17.5l-85 -277l137 45l71 232c0.666992 4 0.5 9.83301 -0.5 17.5s-2.66699 16.5 -5 26.5s-5.33301 20.5 -9 31.5
s-7.83398 21.5 -12.501 31.5zM567.002 204c-4 -7.33301 -12.1699 -18.667 -24.5029 -34s-27.166 -31.333 -44.499 -48l8 -122h-311c-7.33301 1.33301 -15.166 6.5 -23.499 15.5s-16.666 20.167 -24.999 33.5s-16.166 28 -23.499 44s-13.666 31.333 -18.999 46
s-9.33301 28 -12 40s-3.33398 21 -2.00098 27l156 510c2.66699 6 9 15 19 27s22.167 25.333 36.5 40l46.5 46c16.667 16 33.167 30.667 49.5 44s31.5 24.5 45.5 33.5s25.333 14.167 34 15.5h136c12 0 24.667 -9.16699 38 -27.5s25.666 -39.333 36.999 -63
s20.333 -46.667 27 -69s9.66699 -37.833 9 -46.5z" />
    <glyph glyph-name="FL0058h" unicode="R" horiz-adv-x="501" 
d="M-42 -232l354.998 1160h355c8 0 15.667 -2 23 -6s14 -9 20 -15s11 -12 15 -18s6.66699 -11 8 -15l-129 -422c-6 -14 -12.167 -26.167 -18.5 -36.5s-14.166 -18.5 -23.499 -24.5c-18 -12 -34.667 -20.667 -50 -26s-27.666 -8.66602 -36.999 -9.99902l18 -355h-185l-16 263
l-151 -495h-184zM499.998 799.999l-54 0.000976562l-95 -310h56c5.33301 0 12.833 0.833008 22.5 2.5s16.167 7.16699 19.5 16.5l83 273l-2 1l2 -1c-2 0.666992 -2.33301 2.66699 -1 6c-1.33301 5.33301 -4.33301 8.66602 -9 9.99902s-12 2 -22 2z" />
    <glyph glyph-name="FL0053h" unicode="S" horiz-adv-x="453" 
d="M80 173l-52.998 -173h341c12 0 22.667 4.5 32 13.5s17.5 19.5 24.5 31.5s12.667 24.167 17 36.5s7.5 21.833 9.5 28.5l25 82c1.33301 4 2.16602 7.5 2.49902 10.5s1.16602 5.83301 2.49902 8.5l2 8c0 0.666992 1 5.16699 3 13.5s2.66699 15.166 2 20.499l-1 -1l1 18v2
c-0.666992 0.666992 -0.666992 3.33398 0 8.00098h5l-5 21l-3 -1l-53 404l-1 -3c1.33301 3.33301 1.83301 7 1.5 11s-0.5 6.66699 -0.5 8v-2c0 6.66699 0.333008 11 1 13l8 23v1h212l51 167h-315c-17.333 0 -33 -6.33301 -47 -19s-27 -26 -39 -40v1
c-4.66699 -4.66699 -7.66699 -8 -9 -10v1l-6 -8l-46 -151l57 -487l-11 -36h-208zM487.002 291l0.000976562 -1c0 2 -0.333008 3.16699 -1 3.5s-0.333984 -0.5 0.999023 -2.5z" />
    <glyph glyph-name="FL0054h" unicode="T" horiz-adv-x="517" 
d="M310 926l-40 -132h140l-314 -1025h182l314 1025h137l40 132h-459z" />
    <glyph glyph-name="FL0055h" unicode="U" horiz-adv-x="500" 
d="M245 144l-1.00098 -3.00293c2.66699 -6 6.33398 -9.66699 11.001 -11s11.667 -2 21 -2h32c5.33301 0.666992 10.166 1.83398 14.499 3.50098s9.16602 5.83398 14.499 12.501l237 776h176l-265 -869c-4 -4 -10 -9 -18 -15s-16.667 -11.667 -26 -17
s-18.666 -9.83301 -27.999 -13.5s-17.333 -5.5 -24 -5.5h-281c-7.33301 0 -14.666 1.83301 -21.999 5.5s-14 8.33398 -20 14.001s-11.167 11.5 -15.5 17.5s-6.83301 11.333 -7.5 16l265 867h174z" />
    <glyph glyph-name="FL0056h" unicode="V" horiz-adv-x="535" 
d="M306 920h182l-70 -414l188 414h181l-428 -920h-189z" />
    <glyph glyph-name="FL0057h" unicode="W" horiz-adv-x="844" 
d="M610 920l-186 -412l69 412h-186l-133 -920h192l154 328l-47 -328h194l430 920h-181l-193 -415l69 415h-182z" />
    <glyph glyph-name="FL0059h" unicode="X" horiz-adv-x="468" 
d="M401 643c-0.666992 -0.666992 -1 -2 -1 -4l1 5v-1zM273 464l-56 157.997l93 304h176l-83 -271c0 -1.33301 -0.166992 -2.66602 -0.5 -3.99902s-0.5 -2.66602 -0.5 -3.99902l-1 -3l1 -2c0 -1.33301 0.666992 -2.66602 2 -3.99902l-2 -6l10 -39l35 39l-1 -3
c1.33301 2.66699 2 4.33398 2 5.00098s0.666992 1.66699 2 3l-1 -1c1.33301 1.33301 2.5 2.66602 3.5 3.99902s2.16699 2.33301 3.5 3l-1 -3l5 12l84 274h176l-93 -304l-148 -158l51 -160l-93 -304h-176l84 274l1 12v-3l-2 2c-2 0 -2 3 0 9l-11 39l-34 -39l-2 -5
c-1.33301 -1.33301 -2.33301 -2.5 -3 -3.5l-1 -1.5l-3 -2l-1 -3c-2 -3.33301 -3 -6 -3 -8l-154 -502h-176l164 535z" />
    <glyph glyph-name="FL005Bh" unicode="Y" horiz-adv-x="468" 
d="M401 643c-0.666992 -0.666992 -1 -2 -1 -4l1 5v-1zM72 -232l208 678.998l-63 175l93 304h176l-83 -271c0 -1.33301 -0.166992 -2.66602 -0.5 -3.99902s-0.5 -2.66602 -0.5 -3.99902l-1 -3l1 -2c0 -1.33301 0.666992 -2.66602 2 -3.99902l-2 -6l10 -39l35 39
c1.33301 3.33301 2.33301 5 3 5l-1 -1c1.33301 1.33301 2.5 2.66602 3.5 3.99902s2.16699 2.33301 3.5 3l-1 -3l5 12l84 274h176l-93 -304l-164 -175l-208 -679h-183z" />
    <glyph glyph-name="FL005Ah" unicode="Z" horiz-adv-x="453" 
d="M279 209l-11 -35.999h207l-53 -173h-391l59 192l3.5 10.5c1 3 2.16699 5.83301 3.5 8.5l2 8c0 0.666992 1.83301 5.5 5.5 14.5s7.5 16.167 11.5 21.5l1 -1l8 12l1 1l1 5c0.666992 2 2.66699 4.66699 6 8h-4l17 21l1 -1l301 404v-1c0.666992 2.66699 2.16699 6 4.5 10
s4.5 6.66699 6.5 8l1 2l2 4c0.666992 1.33301 1 2.66602 1 3.99902l8 23v1h-213l51 167h395l-69 -226z" />
    <glyph glyph-name="FL005Eh" unicode="[" horiz-adv-x="296" 
d="M265 -1l38 126h-90l132 431h90l39 129h-238l-202 -663l-33 -23h264z" />
    <glyph glyph-name="FL005Dh" unicode="\" horiz-adv-x="385" 
d="M354 0l32.999 107.003c3.33301 10.667 6.16602 21 8.49902 31s3.83301 17.667 4.5 23l2 7l2.5 12.5c0.333008 1.66699 -0.166992 5.16699 -1.5 10.5v11l-1 -1c-0.666992 4.66699 -0.666992 9 0 13s1 6.66699 1 8v-1l-57 302l2 6c-1.33301 1.33301 -2 2.66602 -2 3.99902
l-1 1l1 2c0 1.33301 0.166992 2.66602 0.5 3.99902s0.5 2.66602 0.5 3.99902l3 8c0.666992 1.33301 1.33398 2.83301 2.00098 4.5s1.33398 3.16699 2.00098 4.5l37 124h-155l-52 -170l63 -360l-47 -155h154z" />
    <glyph glyph-name="FL005Fh" unicode="]" horiz-adv-x="296" 
d="M272 22l18 -23h-263l38 126h89l132 431h-89l39 129h238z" />
    <glyph glyph-name="FL0065h" unicode="^" horiz-adv-x="580" 
d="M563 144l-3 -2l8 549h-117l-540 -850h171l152 236h167l-1 -27l135 85l-2 16l20 -14l-137 -91l-19 -46h157zM417 378l-5 -139l-22 16l8 -56h-97z" />
    <glyph glyph-name="FL0060h" unicode="_" horiz-adv-x="456" 
d="M425 0h-398l32 104h398z" />
    <glyph glyph-name="FL00B3h" unicode="`" horiz-adv-x="471" 
d="M180 0l35 84h87l-15 -84h156l153 920h-164l-407 -920h155zM359 412l-34 -189h-50z" />
    <glyph glyph-name="FL0061h" unicode="a" horiz-adv-x="451" 
d="M422 0l89 684h-156l-330 -684h146l26 51h80l-6 -51h151zM306 274l-7 -84h-40z" />
    <glyph glyph-name="FL0062h" unicode="b" horiz-adv-x="456" 
d="M351 556l-42 -137h88l37 120c0 0.666992 -0.333008 1.16699 -1 1.5s-0.666992 0.833008 0 1.5v1h-1c0 5.33301 -1.66699 8.83301 -5 10.5s-8.33301 2.5 -15 2.5h-61zM313 143l42 137h-88l-47 -154h62c7.33301 0 12.833 0.666992 16.5 2s7.16699 5 10.5 11zM236 685
l326.001 0.000976562c6.66699 0 13 -2 19 -6s11.333 -9 16 -15s8.66699 -12 12 -18s5.66602 -11 6.99902 -15l-75 -246c-8.66699 -22 -20.667 -37.667 -36 -47c10 -7.33301 13.667 -20.333 11 -39l-75 -246c-4 -4.66699 -9.66699 -10 -17 -16s-15.333 -11.833 -24 -17.5
s-17.167 -10.334 -25.5 -14.001s-15.5 -5.5 -21.5 -5.5h-326z" />
    <glyph glyph-name="FL0063h" unicode="c" horiz-adv-x="405" 
d="M373 0l-139.001 0.00195312c-20.667 0 -41.167 0.5 -61.5 1.5s-38.666 4.66699 -54.999 11s-29.5 16 -39.5 29s-15 31.5 -15 55.5l-1 16l112 368c2.66699 5.33301 8.83398 14.166 18.501 26.499s21.167 26.166 34.5 41.499s28 31 44 47l46 44
c14.667 13.333 28 24.166 40 32.499s21.333 12.5 28 12.5h198l-40 -132h-104c-6 0 -16 -6.33301 -30 -19s-28.5 -27.167 -43.5 -43.5s-28.5 -32.666 -40.5 -48.999s-19 -27.833 -21 -34.5l-76 -251l-1 -4c0.666992 -7.33301 6.16699 -11.5 16.5 -12.5
s20.166 -1.5 29.499 -1.5h142z" />
    <glyph glyph-name="FL0064h" unicode="d" horiz-adv-x="442" 
d="M421 542c0 6 -1.83203 9.83301 -5.49902 11.5s-8.83398 2.5 -15.501 2.5h-49l-132 -431h48c7.33301 0 13.333 0.833008 18 2.5s8.66699 5.5 12 11.5zM34.001 22l202 663.001h314c6.66699 0 13 -2 19 -6s11.333 -9 16 -15s8.66699 -12 12 -18s5.66602 -11 6.99902 -15
l-177 -579c-4 -4.66699 -9.5 -10 -16.5 -16s-14.667 -11.833 -23 -17.5s-16.666 -10.334 -24.999 -14.001s-15.5 -5.5 -21.5 -5.5h-340z" />
    <glyph glyph-name="e" unicode="e" horiz-adv-x="361" 
d="M27 0h303l41 135h-145l45 145h142l42 140h-139l41 134h142l40 131h-303z" />
    <glyph glyph-name="FL0066h" unicode="f" horiz-adv-x="361" 
d="M27 0h158l86 280h142l42 140h-139l41 134h142l40 131h-303z" />
    <glyph glyph-name="g" unicode="g" horiz-adv-x="440" 
d="M409 4l128.001 417.002h-193l-42 -135h39l-46 -152c0.666992 2.66699 -2.66602 4 -9.99902 4h-9c-10.667 0 -21.167 0.666992 -31.5 2s-15.5 5.66602 -15.5 12.999v4l77 252c2 6.66699 9 18.167 21 34.5s25.5 32.666 40.5 48.999s29.5 30.833 43.5 43.5s24 19 30 19h138
l40 132h-232c-6.66699 0 -16.167 -4.33301 -28.5 -13s-26 -19.5 -41 -32.5s-30.333 -27.667 -46 -44l-44 -47c-13.667 -15 -25.334 -28.667 -35.001 -41s-15.834 -21.5 -18.501 -27.5l-112 -367l1 -18c0.666992 -24 6.33398 -42.5 17.001 -55.5s24.167 -22.667 40.5 -29
s34.666 -10 54.999 -11s40.5 -1.5 60.5 -1.5h10l-15 -50z" />
    <glyph glyph-name="FL006Bh" unicode="h" horiz-adv-x="444" 
d="M257 0l86 280h-76l-86 -280h-154l209 685h154l-81 -266h76l81 266h156l-209 -685h-156z" />
    <glyph glyph-name="FL0069h" unicode="i" horiz-adv-x="207" 
d="M25 0h155l209 685h-155z" />
    <glyph glyph-name="FL006Ah" unicode="j" horiz-adv-x="442" 
d="M224 144c0 0.666992 -0.332031 1.00195 -0.999023 1.00195c0.666992 -8.66699 2.66699 -14 6 -16s9.66602 -3 18.999 -3h26c6.66699 0.666992 11.334 1.66699 14.001 3s5.66699 4.66602 9 9.99902l167 546h156l-193 -632c-3.33301 -4.66699 -8.5 -10 -15.5 -16
s-14.667 -11.833 -23 -17.5s-16.833 -10.334 -25.5 -14.001s-16 -5.5 -22 -5.5h-244c-6.66699 0 -13.334 2 -20.001 6s-12.5 8.83301 -17.5 14.5s-9 11.5 -12 17.5s-4.16699 11.333 -3.5 16l78 258h153z" />
    <glyph glyph-name="FL0068h" unicode="k" horiz-adv-x="433" 
d="M247 0l46.998 155l-24 130l2 -5h-5l-86 -280h-154l209 685h154l-81 -266h10l83 105c4 4 6.66699 8.66699 8 14l45 147h156l-52 -170l-133 -168l25 -126h-2c1.33301 -1.33301 1.83301 -2.83301 1.5 -4.5s0.166992 -3.16699 1.5 -4.5c-1.33301 -2 -1.33301 -3.66699 0 -5
v-3v-17c0.666992 -3.33301 0.833984 -5.83301 0.500977 -7.5s-0.166016 -5.16699 0.500977 -10.5l-9 -28c-1.33301 -5.33301 -2.83301 -11 -4.5 -17s-3.16699 -11.667 -4.5 -17l-33 -107h-155z" />
    <glyph glyph-name="FL006Ch" unicode="l" horiz-adv-x="361" 
d="M236 684l-209 -685h303l40 131h-142l169 554h-161z" />
    <glyph glyph-name="FL006Dh" unicode="m" horiz-adv-x="610" 
d="M579 0h-145l76 249l-159 -249h-97l-8 250l-76 -250h-143l209 685h149l-2 -423l252 423h153z" />
    <glyph glyph-name="n" unicode="n" horiz-adv-x="442" 
d="M27 0h153l79 257l14 -257h138l209 685h-156l-70 -229l-17 229h-141z" />
    <glyph glyph-name="FL004Fh" unicode="o" horiz-adv-x="472" 
d="M281 156c-3.33301 10 -6.16797 20.999 -8.50098 32.999s-4 23.833 -5 35.5s-1.66699 22.167 -2 31.5s-0.166016 16.333 0.500977 21l40 132c2 4 5.66699 10.5 11 19.5s12 19 20 30s16.833 22.333 26.5 34s19.834 22.5 30.501 32.5c4 -10 7.16699 -21 9.5 -33
s4.16602 -23.667 5.49902 -35s2 -21.666 2 -30.999c0 -8.66699 -0.333008 -14.667 -1 -18l-40 -131c-2 -4.66699 -6 -11.667 -12 -21s-13.167 -19.833 -21.5 -31.5s-17.333 -23.5 -27 -35.5s-19.167 -23 -28.5 -33zM502.998 203.999l84.9951 277.005
c0.666992 5.33301 0 14.166 -2 26.499s-5.16699 26.166 -9.5 41.499s-9.5 31 -15.5 47s-12.333 30.667 -19 44s-13.667 24.166 -21 32.499s-14.666 12.5 -21.999 12.5h-127l-11 -7c-12.667 -6 -28.834 -18.167 -48.501 -36.5s-39.334 -38 -59.001 -59s-37 -41.167 -52 -60.5
s-24.167 -33 -27.5 -41l-85 -277c-0.666992 -5.33301 0 -14 2 -26s5 -25.333 9 -40s8.83301 -29.834 14.5 -45.501s11.834 -30.167 18.501 -43.5s13.334 -24.5 20.001 -33.5s13.334 -14.167 20.001 -15.5h117c7.33301 -0 17.333 4.33301 30 13s26.334 19.5 41.001 32.5
s29.834 27.667 45.501 44l43.5 47c13.333 15 24.833 28.667 34.5 41s15.834 21.166 18.501 26.499z" />
    <glyph glyph-name="FL0070h" unicode="p" horiz-adv-x="436" 
d="M351 559l-43.001 -140h27c19.333 0 32.166 1.33301 38.499 4s11.5 10.667 15.5 24l30 98h-1c-1.33301 6 -3.16602 9.83301 -5.49902 11.5s-8.16602 2.5 -17.499 2.5h-44zM26.999 0l209.001 685h308c6.66699 0 13 -2 19 -6s11.333 -9 16 -15s8.66699 -12 12 -18
s5.66602 -11 6.99902 -15l-77 -250c-10 -20 -19.167 -36 -27.5 -48s-22.5 -22.667 -42.5 -32c-16.667 -7.33301 -30.5 -11.833 -41.5 -13.5s-17.833 -2.5 -20.5 -2.5h-113l-87 -285h-162z" />
    <glyph glyph-name="FL0071h" unicode="q" horiz-adv-x="472" 
d="M265 274l41 -60h-60zM268 291l37.999 117.999c2 4 5.83301 9.83301 11.5 17.5l20 26c7.66699 9.66699 16.167 19.834 25.5 30.501s18.666 20.667 27.999 30c3.33301 -9.33301 6.33301 -19.333 9 -30s4.83398 -21 6.50098 -31s2.83398 -19 3.50098 -27
s0.666992 -13.667 0 -17l-20 -66zM502.999 201.999l84.9951 279.006c0.666992 5.33301 0 14.166 -2 26.499s-5.16699 26.166 -9.5 41.499s-9.5 31 -15.5 47s-12.333 30.667 -19 44s-13.667 24.166 -21 32.499s-14.666 12.5 -21.999 12.5h-127l-9 -3
c-12.667 -6 -29 -18.333 -49 -37s-39.833 -38.834 -59.5 -60.501s-37.167 -42.334 -52.5 -62.001s-24.666 -33.5 -27.999 -41.5l-85 -277c-0.666992 -5.33301 0 -14 2 -26s5 -25.333 9 -40s8.83301 -29.834 14.5 -45.501s11.834 -30.167 18.501 -43.5
s13.334 -24.5 20.001 -33.5s13.334 -14.167 20.001 -15.5h270l-3 120c14 16 27 31.667 39 47s20 27 24 35z" />
    <glyph glyph-name="r" unicode="r" horiz-adv-x="448" 
d="M27 0l210 685.999h308c7.33301 0 14 -2 20 -6s11.167 -9 15.5 -15s8 -12 11 -18s5.16699 -11 6.5 -15l-75 -246c-8 -20 -20 -34.167 -36 -42.5s-34.667 -15.166 -56 -20.499h-3l-1 -0.5c-0.666992 -0.333008 -2 -0.5 -4 -0.5l14 -322h-161l-13 235l-72 -235h-164z
M384 558.999l-33 0.000976562l-43 -140h17c21.333 0 36.333 1.5 45 4.5s15 11.167 19 24.5l29 94v3v2h-2c0.666992 5.33301 -2.5 8.66602 -9.5 9.99902s-14.5 2 -22.5 2z" />
    <glyph glyph-name="s" unicode="s" horiz-adv-x="387" 
d="M68 135l-40.999 -135h282c10.667 0 20.334 3.5 29.001 10.5s16 15.167 22 24.5s10.667 18.666 14 27.999s5.66602 16.333 6.99902 21l7 23c3.33301 10.667 6.16602 21 8.49902 31l5.5 23l2 7c0.666992 3.33301 1.16699 6 1.5 8s0.5 3.33301 0.5 4v4
c0 2 -0.333008 4.33301 -1 7l-1 1h3c-1.33301 4 -2.33301 9 -3 15s-1 11.667 -1 17l-56 299l1 5v4l1 3c-2 1.33301 -2.66699 3.83301 -2 7.5s1.66699 7.5 3 11.5h175l40 131h-265c-14.667 0 -27.167 -4.66699 -37.5 -14s-19.833 -19.333 -28.5 -30v1l-7 -7
c-0.666992 -1.33301 -2.66699 -3.66602 -6 -6.99902l-35 -113l60 -357l-7 -23h-171z" />
    <glyph glyph-name="FL0074h" unicode="t" horiz-adv-x="456" 
d="M236 685l-40 -131h122l-169 -554h159l169 554h117l40 131h-398z" />
    <glyph glyph-name="FL0075h" unicode="u" horiz-adv-x="441" 
d="M225 144c0 0.666992 -0.332031 1 -0.999023 1c0.666992 -8.66699 2.66699 -14 6 -16s9.66602 -3 18.999 -3h25c5.33301 0.666992 9.33301 1.66699 12 3s6.33398 5 11.001 11l166 545h156l-193 -632c-3.33301 -4.66699 -8.5 -10 -15.5 -16s-14.833 -11.833 -23.5 -17.5
s-17.334 -10.334 -26.001 -14.001s-16 -5.5 -22 -5.5h-241c-6.66699 0 -13.167 1.83301 -19.5 5.5s-12 8.33398 -17 14.001s-9.16699 11.5 -12.5 17.5s-5.33301 11.333 -6 16l193 632h154z" />
    <glyph glyph-name="FL0076h" unicode="v" horiz-adv-x="451" 
d="M234 685h151l-33 -262l126 262h153l-331 -685h-156z" />
    <glyph glyph-name="FL0077h" unicode="w" horiz-adv-x="674" 
d="M234 685h149l-33 -251l122 251h145l-35 -250l124 250h148l-327 -685h-153l33 234l-113 -234h-153z" />
    <glyph glyph-name="FL007Eh" unicode="x" horiz-adv-x="414" 
d="M331 488l2 5l-1 -2zM206 343l-34.001 129.997l65 213h154l-57 -184c0 -1.33301 -0.166992 -2.66602 -0.5 -3.99902s-0.5 -2.66602 -0.5 -3.99902v-1l2 -2c0 -2 0.333008 -3.33301 1 -4l-2 -6l7 -36l27 34c0.666992 2.66699 2 5 4 7c0 1.33301 1 3 3 5
c0 0.666992 0.5 1.16699 1.5 1.5l1.5 0.5c1.33301 1.33301 2 2.66602 2 3.99902l58 189h155l-65 -213l-112 -130l32 -130l-65 -213h-155l58 189v4l-1 0.5c-0.666992 0.333008 -0.666992 0.833008 0 1.5c-0.666992 0.666992 -1 2 -1 4
c-0.666992 0.666992 -0.333984 3 0.999023 7l-6 35l-29 -36l-2 -5c-1.33301 -1.33301 -2.16602 -2.5 -2.49902 -3.5l-0.5 -1.5l-4 -2v-1c-1.33301 -1.33301 -2.16602 -2.66602 -2.49902 -3.99902s-0.833008 -2.66602 -1.5 -3.99902l-56 -184h-154l65 213z" />
    <glyph glyph-name="FL0079h" unicode="y" horiz-adv-x="414" 
d="M127 0l160 0.00195312l91 297l150 176l65 213h-155l-58 -189l-1.5 -3l-0.5 -1l-1 -1c-2.66699 -2 -4.66699 -4.66699 -6 -8l1 2c-0.666992 0 -1.66699 -1.66699 -3 -5l-1 -5v3l-27 -34l-7 36l2 6c-0.666992 0.666992 -1 2 -1 4l-2 2v1
c0 1.33301 0.166992 2.66602 0.5 3.99902s0.5 2.66602 0.5 3.99902l57 184h-154l-65 -213l47 -173zM332 491.002l1 2l-2 -5z" />
    <glyph glyph-name="FL007Ah" unicode="z" horiz-adv-x="387" 
d="M234 158l-7.00195 -23.002h170l-41 -135h-327l33 107l10 31c3.33301 10 6 17.667 8 23l2 7c2.66699 6.66699 4.5 10.834 5.5 12.501s3.5 5.16699 7.5 10.5l9 11l-1 -1c4.66699 10 9 17 13 21v-1l238 300c0.666992 2.66699 2 5 4 7v-2
c0.666992 2.66699 2.33398 5.33398 5.00098 8.00098l1 1c0.666992 1.33301 1.83398 3.83301 3.50098 7.5s3.16699 7.5 4.5 11.5h-176l40 131h328l-52 -170z" />
    <glyph glyph-name="FL007Bh" unicode="{" horiz-adv-x="376" 
d="M346 542l-2.00195 -4.00098l-120 -394l-2 -5l2 1c0.666992 -6 2.83398 -9.83301 6.50098 -11.5s8.83398 -2.5 15.501 -2.5h138l-39 -126h-247c-6.66699 0 -13.167 1.83301 -19.5 5.5s-12 8.33398 -17 14.001s-9.16699 11.5 -12.5 17.5s-5.33301 11.333 -6 16l177 578
c4 4 9.33301 9 16 15s14 12 22 18s16.333 11 25 15s16.667 6 24 6h247l-39 -129h-139c-6.66699 0 -12.167 -0.833008 -16.5 -2.5s-8.5 -5.5 -12.5 -11.5h-1z" />
    <glyph glyph-name="FL007Ch" unicode="|" 
d="M140 376h144l94 309h-144zM25 0h144l92 302h-144z" />
    <glyph glyph-name="FL007Dh" unicode="}" horiz-adv-x="376" 
d="M357 538l-119.998 -394.001l-3 -5l1 1c-4.66699 -6 -9.33398 -9.83301 -14.001 -11.5s-10.667 -2.5 -18 -2.5h-137l-39 -126h248c6 0 13.333 1.83301 22 5.5s17.167 8.33398 25.5 14.001s16 11.5 23 17.5s12.167 11.333 15.5 16l177 578
c-1.33301 4 -3.66602 9 -6.99902 15s-7.33301 12 -12 18s-10 11 -16 15s-12.333 6 -19 6h-248l-39 -129h138c7.33301 0 12.666 -0.833008 15.999 -2.5s5.66602 -5.5 6.99902 -11.5z" />
    <glyph glyph-name="FL00AAh" unicode="~" horiz-adv-x="589" 
d="M-80 -159h169l157 239h152l4 -80h161l14 691h-119zM425 388l-17 -189h-100z" />
    <glyph glyph-name="FL007Fh" horiz-adv-x="184" 
 />
    <glyph glyph-name="FL00A1h" unicode="&#xa1;" 
d="M315 476h-144l-146 -476h144zM378 685h-144l-41 -135h144z" />
    <glyph glyph-name="FL00A2h" unicode="&#xa2;" horiz-adv-x="440" 
d="M266 278c-1.33301 -6 -1.33105 -15 0.00195312 -27s3.5 -24.667 6.5 -38s6.66699 -26.333 11 -39s9.16602 -23 14.499 -31l123 403c-10 -8 -21 -18.333 -33 -31s-23.5 -25.5 -34.5 -38.5s-20.833 -25.333 -29.5 -37s-14.334 -20.5 -17.001 -26.5zM230.002 -77
l24.001 77.001h-77c-10 0 -20.333 9.16699 -31 27.5s-20.334 39.333 -29.001 63s-15.667 46.667 -21 69s-7.33301 37.833 -6 46.5l85 279c2.66699 5.33301 9 14.333 19 27s21.667 26.5 35 41.5s28 30.667 44 47s31.333 31.166 46 44.499s28.167 24.333 40.5 33
s21.833 13 28.5 13h77l20 65h61l-20 -65h94l-41 -134h-94l-130 -425h94l-40 -132h-92l-24 -77h-63z" />
    <glyph glyph-name="FL00A3h" unicode="&#xa3;" horiz-adv-x="510" 
d="M460 539l-37 -119.999h113l-42 -139h-113l-47 -154h184l-39 -126h-452l39 127h112l47 153h-110l42 139h111l65 212c4 4 9.5 9 16.5 15s14.5 12 22.5 18s16.333 11 25 15s16.667 6 24 6h267l-39 -128h-155c-7.33301 -0.666992 -13.333 -1.83398 -18 -3.50098
s-9 -5.5 -13 -11.5h-1z" />
    <glyph glyph-name="dollar" unicode="&#xa4;" horiz-adv-x="2420" 
d="M171 464c-7.33301 -23.333 -11.8281 -44.833 -13.4951 -64.5s-2.5 -38.834 -2.5 -57.501c-1.33301 -4 -1.83301 -7.5 -1.5 -10.5s0.5 -5.5 0.5 -7.5v1c0.666992 -12 0.666992 -23.667 0 -35s-2 -22.333 -4 -33c-0.666992 -2 -1.33398 -5.33301 -2.00098 -10
s-1.33398 -9.66699 -2.00098 -15s-1.16699 -10.166 -1.5 -14.499s-0.833008 -7.5 -1.5 -9.5c-2 -13.333 -3.16699 -25 -3.5 -35s-0.166016 -20.333 0.500977 -31c0.666992 -7.33301 1.16699 -14.5 1.5 -21.5s0.5 -13.833 0.5 -20.5c0 -14 -1 -27.333 -3 -40l-9 -29
c4 -14.667 12.833 -23.667 26.5 -27s27.5 -5 41.5 -5l63 1c10 2.66699 17 6.5 21 11.5s7.66699 9.83301 11 14.5h2l3 4.5l1 1.5l1 1.5c0.666992 1 1.66699 2.83301 3 5.5l8 12l-3 -51h118l37 40c0 -1.33301 0.333008 -2.66602 1 -3.99902l1 -2
c0.666992 -0.666992 1 -1.33398 1 -2.00098c-0.666992 -0.666992 -0.666992 -1.33398 0 -2.00098v3c-0.666992 -1.33301 -0.833984 -2.16602 -0.500977 -2.49902l0.5 -0.5c2 -6.66699 4.5 -13.334 7.5 -20.001s10.167 -10 21.5 -10h117l33 58
c1.33301 -2 2.33301 -3.83301 3 -5.5s1.66699 -3.16699 3 -4.5c5.33301 -12 11.166 -23 17.499 -33s15.833 -15 28.5 -15h102c8.66699 0 18.167 5 28.5 15s20.5 22 30.5 36s19.167 28.667 27.5 44s14.833 28.333 19.5 39c2.66699 2 5 6 7 12
c1.33301 0.666992 3.33301 3.33398 6 8.00098s6.33398 10.334 11.001 17.001v-2l1 1c0 0.666992 0.333008 1.33398 1 2.00098c0 0.666992 0.666992 1.66699 2 3v1h2l5 10l-42 -179h118l16 52l12.5 -29.5c4.33301 -10.333 5.83301 -20.166 4.5 -29.499h121l159 521
c6.66699 4.66699 12.5 12.334 17.5 23.001s8.16699 21.5 9.5 32.5s0.666016 20.5 -2.00098 28.5s-8.33398 11.667 -17.001 11h-91c-1.33301 0 -3.66602 -1.5 -6.99902 -4.5s-6.66602 -6.83301 -9.99902 -11.5s-6.5 -9.33398 -9.5 -14.001s-4.83301 -8.33398 -5.5 -11.001
c-1.33301 -2.66699 -2.83301 -6 -4.5 -10s-4.16699 -8.66699 -7.5 -14l1 1c0 8 -0.333008 12.333 -1 13l-1 -1c-2 13.333 -4.66699 25.333 -8 36s-8.33301 16 -15 16h-100c-2.66699 -4.66699 -4.66699 -9 -6 -13s-3.66602 -7.66699 -6.99902 -11l-4.5 -6.5
c-1.66699 -2.33301 -3.16699 -4.83301 -4.5 -7.5c-4.66699 -7.33301 -9.16699 -15 -13.5 -23s-7.5 -15.667 -9.5 -23c-0.666992 -1.33301 -1.5 -2.83301 -2.5 -4.5l-4.5 -7.5v1v-1l-1 1l1 1c-0.666992 0.666992 -1.16699 1.66699 -1.5 3s-0.833008 6.66602 -1.5 15.999
l-0.5 4c-0.333008 2.66699 -0.833008 4.66699 -1.5 6c-3.33301 16 -6.83301 30.833 -10.5 44.5s-9.16699 20.5 -16.5 20.5h-161c-4 0 -10.667 -6 -20 -18s-20 -26.833 -32 -44.5l-36 -55.5l-31 -50l2 14.5c0.666992 5 1.66699 10.5 3 16.5
c3.33301 14.667 6.16602 30.167 8.49902 46.5s2.16602 31.166 -0.500977 44.499s-8.66699 24.333 -18 33s-23.333 13 -42 13l-209 -8l-28 -31l3 39h-138l-115 -125l-4 -15c-0.666992 -1.33301 -1.33398 -2.5 -2.00098 -3.5s-1.33398 -2.16699 -2.00098 -3.5zM2119 607
l4.00293 15.9971h-152c-6 0 -12.833 -4 -20.5 -12s-15.667 -18 -24 -30s-16.666 -24.833 -24.999 -38.5l-22.5 -37.5c-6.66699 -8.66699 -10.834 -14.834 -12.501 -18.501s-2.83398 -6.83398 -3.50098 -9.50098c-1.33301 -2 -2.66602 -4.66699 -3.99902 -8
s-3.66602 -7 -6.99902 -11c-3.33301 -4.66699 -6.83301 -9.83398 -10.5 -15.501s-7.16699 -11.834 -10.5 -18.501l25 63l1 3c2 0 4 3 6 9c0.666992 2.66699 1.16699 7.5 1.5 14.5s0.166016 13.833 -0.500977 20.5c0 4.66699 0.166992 8.66699 0.5 12s0.5 6.33301 0.5 9
c0.666992 1.33301 1 5.66602 1 12.999v12c0 4 -0.166992 7.5 -0.5 10.5s-0.833008 5.83301 -1.5 8.5v1l-1 1c-0.666992 1.33301 -1.16699 2.16602 -1.5 2.49902l-0.5 0.5l-9 12h-102c-6 0 -14.333 -4.5 -25 -13.5s-21.667 -20 -33 -33s-22.5 -26.833 -33.5 -41.5
s-19.833 -27.667 -26.5 -39l1 22c0 1.33301 0.166992 2.33301 0.5 3s0.5 1.66699 0.5 3v-1c0 6.66699 -0.333008 14.334 -1 23.001s-2.66699 19.667 -6 33c-0.666992 0.666992 -1.16699 2.83398 -1.5 6.50098s-0.5 7.83398 -0.5 12.501s0.333008 9.33398 1 14.001
s1.33398 8.33398 2.00098 11.001h-115l-29 -19l3 -12l-2 -7l-38 -91l-17 -76l-9 -8l-108 -353c0 -1.33301 -0.5 -4.5 -1.5 -9.5s-1.5 -10.5 -1.5 -16.5c0 -5.33301 1.16699 -10.5 3.5 -15.5s6.5 -7.83301 12.5 -8.5l39 -1h4c30.667 0 52 5.5 64 16.5s21 26.167 27 45.5l5 19
l7 -34c-2 -5.33301 -1.33301 -10.666 2 -15.999v-4c0 1.33301 -0.166992 1.33301 -0.5 0s-0.833008 -3.66602 -1.5 -6.99902c28 5.33301 49.667 16 65 32l-14 -44h118c7.33301 0 13.833 2.66699 19.5 8s10.5 12 14.5 20c1.33301 -5.33301 2.5 -9.66602 3.5 -12.999
s1.83301 -5.66602 2.5 -6.99902v2c0 -9.33301 4.33301 -15 13 -17h10c4 -0 10.667 0.333008 20 1s19.166 1.33398 29.499 2.00098s20.166 1.5 29.499 2.5s16.666 1.83301 21.999 2.5c4.66699 5.33301 10.167 12.833 16.5 22.5s10.5 17.167 12.5 22.5l24 -5l-1 -1
c-4.66699 -18.667 1.66602 -32 18.999 -40l45 -1h3c14 0 26.333 1.33301 37 4s21 5.66699 31 9l-1 -1c2 0 3.83301 0.166992 5.5 0.5s3.16699 0.5 4.5 0.5l11 3c3.33301 -9.33301 11.666 -15 24.999 -17s27 -3.33301 41 -4h11c2 0 4.16699 -0.166992 6.5 -0.5l10.5 -1.5
c6.66699 6.66699 12.334 13 17 19c4.66699 6 8.66699 11.667 12 17c0 1.33301 0.666992 2.66602 2 3.99902v1v-1v1l1 4c0.666992 1.33301 1.66699 2.66602 3 3.99902l4 4c0 -0.666992 0.333008 -1 1 -1l-1 1c0 0.666992 0.166992 0.833984 0.5 0.500977
s0.5 -0.166016 0.5 0.500977v-2c1.33301 -10 3.33301 -19.833 6 -29.5s8 -14.5 16 -14.5h99l26 31c2.66699 7.33301 8.5 19 17.5 35l30.5 53l35 59l32 53c1.33301 3.33301 2.83301 6.16602 4.5 8.49902l4.5 6.5l12 20l4.5 9c1.66699 3.33301 3.16699 6.66602 4.5 9.99902
c2 2.66699 3.66699 5.66699 5 9s3.66602 7.33301 7 12c0.666992 0.666992 1.66699 2.66699 3 6c0 2.66699 1.33301 5 4 7l28.5 51c9.66699 16.667 19.5 28.334 29.5 35.001l25 82c-2.66699 10 -4.33398 16.333 -5 19c-0.666992 2.66699 -2 7 -4 13l-6.5 13
c-1.66699 3.33301 -3.16699 6.83301 -4.5 10.5s-2.83301 8.33398 -4.5 14.001s-4.16699 13.5 -7.5 23.5v-1c-1.33301 4.66699 -4.5 10.667 -9.5 18s-10.167 13.666 -15.5 18.999h-37c-14.667 0 -27.167 -0.5 -37.5 -1.5s-19.5 -3.16699 -27.5 -6.5
s-15.333 -7.83301 -22 -13.5s-13.334 -12.834 -20 -21.501l-0.5 2.5l-1.5 7.5l1 1l2 7h-3h-1l-2 1l2 -2l-1 -2l-3 -1l4 3l-5.5 13c-1.66699 4 -5.16699 6 -10.5 6h-92l-28 -12l-47 -93v-1l-2 18.5c-0.666992 6.33301 -1.66699 12.833 -3 19.5
c-1.33301 5.33301 -2.33301 11 -3 17s-1.33398 11.333 -2 16v8c0 4.66699 -0.333008 7.33398 -1 8.00098l-21 -9c-1.33301 2 -3.66602 5.16699 -7 9.5c-3.33301 4.33301 -5.66602 7.5 -6.99902 9.5h4h8zM1603.01 259.997c-3.33301 -11.333 -2.99902 -16.998 1.00098 -16.998
c1.33301 -1.33301 2.33301 -2 3 -2l-1 2c2 -2 3.83301 -3.5 5.5 -4.5l15.5 -9.5l9 28c0 1.33301 -2 5.33301 -6 12s-8.66699 11.667 -14 15l1 1l2 2l0.5 1.5c0.333008 1 1.16602 2.16699 2.49902 3.5l22 -8l17 56h-9c0.666992 2.66699 1.33398 5.5 2.00098 8.5
s1.33398 5.83301 2.00098 8.5h32l8 5l-1 -1c4.66699 1.33301 8.33398 6.33301 11.001 15l1.5 7.5c0.333008 1.66699 0.5 2.16699 0.5 1.5c0 1.33301 -1 3 -3 5l-5 6c-2 0.666992 -3.16699 1.16699 -3.5 1.5l-0.5 0.5c0.666992 1.33301 1.83398 3.33301 3.50098 6l7.5 12h49
l-9 29l33 3c-2 -1.33301 -3 -2.33301 -3 -3l-7 -22c6 -6.66699 11.667 -10.667 17 -12l-3 -10l-1 -3l-7 8l-28 -25c0.666992 -9.33301 2.83398 -15.833 6.50098 -19.5s8.16699 -5.83398 13.5 -6.50098c-1.33301 -2.66699 -2.33301 -5 -3 -7s-1.66699 -4.66699 -3 -8h-23
l-14 -46h18c-3.33301 -4 -5.33301 -8.33301 -6 -13c-2.66699 0.666992 -4.33398 1.16699 -5.00098 1.5s-1.33398 0.5 -2.00098 0.5h-16c-0.666992 -1.33301 -1.66699 -4 -3 -8s-2.33301 -6.66699 -3 -8l-3 -10c-2.66699 -6.66699 0.666016 -13.667 9.99902 -21l-2 -2l-2 -1
l1 1l-33 -18c-0.666992 -16 5 -25.667 17 -29l-13 -31l-1 1h-2l-18 -10l-10 -32h14l-11 -24h-40l-12 7l5 17c7.33301 1.33301 14.333 4.83301 21 10.5s10.334 9.16699 11.001 10.5c1.33301 3.33301 1.16602 8.5 -0.500977 15.5s-3.83398 11.167 -6.50098 12.5l-3 -2
c0 2 2.33301 6.33301 7 13c1.33301 4.66699 3.66602 8.66699 6.99902 12v-1c3.33301 2.66699 6.66602 6.66699 9.99902 12s7.33301 15.666 12 30.999c-25.333 0 -45.333 -5 -60 -15l4 11h-33l-12 -37h13c-2.66699 -3.33301 -4.66699 -6.33301 -6 -9
s-2.66602 -4.66699 -3.99902 -6l-6 -9v1c-2.66699 -2 -5 -5 -7 -9l-2 2l-5 -3l2 2h-17l-5 -16c-3.33301 3.33301 -6.5 6.16602 -9.5 8.49902s-5.83301 4.16602 -8.5 5.49902v-5l-2 32h5l11 8l5 16v6c-1.33301 1.33301 -2.33301 3 -3 5s-1.66699 3.66699 -3 5v-1l-16 17
l-2 -6h-24l-10 -19l8 25l-41 -29c-6 8.66699 -13 13.667 -21 15l6 19h25l12 38h-25l4 13h24l8 26c4 12.667 -1.33301 19.334 -16 20.001c1.33301 3.33301 3 6.33301 5 9s3.33301 5.33398 4 8.00098h14c1.33301 4 1.66602 6.33301 0.999023 7l21 13
c-8 8.66699 -12.833 13.667 -14.5 15s-3.5 2.33301 -5.5 3c-4 0 -6.66699 0.666992 -8 2l10 19h18l5 16c2 7.33301 2.66699 11.333 2 12h36l-8 -26c4.66699 0 7.66699 -0.166992 9 -0.5l10 -2.5c3.33301 0 7 1 11 3l-1 -21l-1 3l-19 -8l-11 -35h31l-1 -22
c0 0.666992 -0.166992 1.16699 -0.5 1.5s-0.5 0.833008 -0.5 1.5l-19 -5l-12 -39h32v-13l-5 6l-33 -18c9.33301 -19.333 22 -29 38 -29l3 10c1.33301 -1.33301 4.33301 -2 9 -2c6.66699 0 11.5 1.33301 14.5 4s6.16699 6 9.5 10l1 1l1.5 1.5c1 1 2.16699 2.5 3.5 4.5
c1.33301 1.33301 2 2.33301 2 3l1.5 3l0.5 1c-1.33301 -3.33301 -2.16602 -5.83301 -2.49902 -7.5s-0.833008 -3.16699 -1.5 -4.5zM1086.01 416.999c0.666992 -0.666992 3.00586 -1.00391 7.00586 -1.00391h8l1.5 -7.5c0.333008 -1.66699 0.5 -2.16699 0.5 -1.5v-6l-31 -20
c6 -16.667 18 -25 36 -25c1.33301 -2.66699 1.66602 -5 0.999023 -7s-0.333984 -3.66699 0.999023 -5l-1 -3l-27 -17c2.66699 -13.333 6.66699 -21.666 12 -24.999s12.666 -5 21.999 -5l-2 5c2.66699 -10.667 10.334 -20.667 23.001 -30
c-2 -3.33301 -3.83301 -7.16602 -5.5 -11.499l-5.5 -14.5h46c5.33301 15.333 7.33301 25.666 6 30.999s-5.33301 9 -12 11l-6 -1c6 6.66699 15.667 10 29 10v25c0 9.33301 -3 15.666 -9 18.999l5 16l25 9c0 6.66699 -0.333008 13.667 -1 21s-4 12.333 -10 15l5 15l42 13
c-2 -7.33301 1 -12.333 9 -15l-3 -11l-30 -23l17 -19l-7 -22l-37 -26c9.33301 -3.33301 15.833 -7.83301 19.5 -13.5s5.83398 -11.167 6.50098 -16.5h-20c-4 -13.333 -6.66699 -23.833 -8 -31.5s1.33398 -12.5 8.00098 -14.5l-4 -12l-18 -7l-10 -34h16l-8 -25
c-18.667 -4 -31.334 -18 -38.001 -42h25l-7 -24h-25c-6 -19.333 -5.33301 -32.666 2 -39.999h-33l4 16c1.33301 1.33301 2 2.33301 2 3c4.66699 14 0 21 -14 21c-1.33301 0 -2.33301 -0.333008 -3 -1c-1.33301 0.666992 -1.33301 2.66699 0 6c0 2 -0.166992 3.5 -0.5 4.5
l-0.5 1.5c0.666992 0.666992 1 2.66699 1 6v5c0.666992 0.666992 1.33398 1.16699 2.00098 1.5s1.33398 0.833008 2.00098 1.5l-1 -1h1l1 2c3.33301 1.33301 10 4.83301 20 10.5l40 23.5h-76c1.33301 9.33301 2.16602 15.833 2.49902 19.5s1.16602 7.5 2.49902 11.5l13 9
l8 5c2 6.66699 2.16699 12.5 0.5 17.5s-3.83398 8.16699 -6.50098 9.5v1c0.666992 0 1.33398 0.333008 2.00098 1h-21c-0.666992 0 -1.33398 -0.166992 -2.00098 -0.5s-1.33398 -0.5 -2.00098 -0.5c1.33301 12 -2.33398 20 -11.001 24l-23 -15l-4 -14h-27l1 -1
c-10.667 4.66699 -17 10.334 -19 17.001h12c4.66699 15.333 6.66699 26 6 32s-1.66699 11.333 -3 16c-2.66699 2.66699 -4 6.66699 -4 12c3.33301 1.33301 8.5 4.33301 15.5 9l33.5 23c-15.333 4.66699 -24.5 7.33398 -27.5 8.00098l-4.5 1l3 11c1.33301 4 4 7.66699 8 11
c3.33301 3.33301 5.66602 6 6.99902 8s2.66602 4.66699 3.99902 8c2.66699 7.33301 2.5 13 -0.5 17s-6.16699 6.66699 -9.5 8l5 17h15l9 28h11c2 -6 4.33301 -11.667 7 -17s4.66699 -8.66602 6 -9.99902zM828.015 401.995c0 -3.33301 -0.330078 -6.33008 -0.99707 -8.99707
s-0.333984 -5.33398 0.999023 -8.00098c-6 6 -11.333 9 -16 9h-19c-2 -4 -3 -5.66699 -3 -5c-1.33301 2.66699 -2.83301 4.83398 -4.5 6.50098l-4.5 4.5l-18 -8l-11 -35h12c-1.33301 -2.66699 -2.33301 -4.5 -3 -5.5l-1 -1.5l-1 -3l-5 -16
c-0.666992 0.666992 -1.66699 1.5 -3 2.5l-6 4.5l-19 -7l-11 -37h30l-5 -22c-1.33301 4.66699 -3.33301 7.66699 -6 9h-23l-12 -38h35v-2l-3 -8l-2 -7c-0.666992 -0.666992 -1 -3 -1 -7l-25 10l-9 -29c0 -12 5.66699 -18 17 -18l14 7
c-1.33301 -3.33301 -1.66602 -5.33301 -0.999023 -6l-2 -10.5c-0.666992 -3.66699 -0.333984 -7.16699 0.999023 -10.5c-4 2 -7.33301 3 -10 3l-16 -11c-2 -6 -3 -10 -3 -12c-2.66699 3.33301 -7.83398 8 -15.501 14s-12.834 9 -15.501 9l-1 -0.5
c-0.666992 -0.333008 -2 -0.833008 -4 -1.5l6 19h15c4 13.333 5.5 22.333 4.5 27s-2.16699 9 -3.5 13v-2l-4 10c-1.33301 3.33301 -2.33301 6.66602 -3 9.99902l2 1l-1 -2c4.66699 1.33301 8.83398 3 12.501 5s6.83398 7.33301 9.50098 16l7 21
c-9.33301 0 -14.333 -0.333008 -15 -1l-1 3l1 6c0.666992 0.666992 1.33398 1.5 2.00098 2.5s1.66699 2.16699 3 3.5l-1 -2l1 1c5.33301 5.33301 9.66602 12.666 12.999 21.999c2 6.66699 2.16699 11.334 0.5 14.001l-4.5 7c-1.33301 1.33301 -2.83301 3 -4.5 5
s-2.16699 3.66699 -1.5 5c1.33301 2.66699 2.16602 5.33398 2.49902 8.00098s1.16602 5.33398 2.49902 8.00098h48c-4.66699 14.667 -7.83398 23.5 -9.50098 26.5s-2.83398 5.16699 -3.50098 6.5l-5 6h-8c2.66699 3.33301 5.16699 6.66602 7.5 9.99902l7.5 11l-2 -7h82
l10 32c0.666992 0.666992 6 1 16 1c-3.33301 -3.33301 -5.33301 -5.66602 -6 -6.99902l-3 -6l-2 -9c-1.33301 -1.33301 -1.33301 -2.33301 0 -3h1c0.666992 -4 2.66699 -7.5 6 -10.5s9.66602 -4.83301 18.999 -5.5l9 30c-1.33301 2.66699 -2.16602 4.5 -2.49902 5.5
s-2.5 3.16699 -6.5 6.5h10h1c1.33301 -4.66699 3.16602 -9.33398 5.49902 -14.001s4.5 -8.66699 6.5 -12l-3 -8h30l3 -8l-6 6c-0.666992 -0.666992 -2 -3.83398 -4 -9.50098s-3.66699 -10.167 -5 -13.5l-6 -17l2 -2v2c0 -11.333 9 -17 27 -17l3 8l3 -10v-2
c0 -3.33301 -0.333008 -5.33301 -1 -6v2c-10.667 -4.66699 -18.667 -10.334 -24 -17.001s-10.333 -16.667 -15 -30h28l-1.5 -7.5c-0.333008 -1.66699 -0.5 -2.16699 -0.5 -1.5c0 -4 -0.333008 -6.33301 -1 -7h-21l-13 -43h22
c-0.666992 -1.33301 -0.833984 -2.83301 -0.500977 -4.5s0.5 -3.16699 0.5 -4.5c-6.66699 -2.66699 -11.667 -5 -15 -7s-6.33301 -3.66699 -9 -5v1l-5 -3l-6 -20c-1.33301 -12 3.66699 -18 15 -18h5l-5 -14c-0.666992 -4.66699 -1.66699 -7 -3 -7l-43 -25l21 -20
c-4 -12 -10 -24 -18 -36l-2 18c-9.33301 -2 -17.5 -7 -24.5 -15s-12.167 -17.667 -15.5 -29h26c-1.33301 -1.33301 -2.5 -2.16602 -3.5 -2.49902l-1.5 -0.5h-108l1 -3l-3 4.5c-0.666992 1 -1.66699 2.16699 -3 3.5l3 2l-1 -1c3.33301 1.33301 5.33301 2.5 6 3.5
s2 4.83301 4 11.5c0.666992 3.33301 1.16699 5.66602 1.5 6.99902s0.5 1.33301 0.5 0l-0.5 2l-1.5 6c-2.66699 2.66699 -6 5 -10 7s-7 3 -9 3c-6 0 -10.333 -1 -13 -3l-10 33l2 2l7.5 4.5c1.66699 1 6.5 3.16699 14.5 6.5c0 -8 4.66699 -14.667 14 -20l17 12
c2.66699 -10 6.33398 -18 11.001 -24s11 -9 19 -9c8.66699 0 19 6 31 18l-1 -2h35c8 26 6 40.333 -6 43l8 25c0.666992 -0.666992 2.66699 -1 6 -1c6.66699 0 10.334 -0.333008 11.001 -1l9 29c0 2 -1.66699 4.83301 -5 8.5s-6.66602 8.16699 -9.99902 13.5l1 4
c0.666992 1.33301 0.833984 2.5 0.500977 3.5s-0.166016 2.16699 0.500977 3.5h14c3.33301 9.33301 4.5 17.5 3.5 24.5s-2.83301 12.167 -5.5 15.5l3 11h8c1.33301 5.33301 0.666016 14.166 -2.00098 26.499s-6.66699 24.833 -12 37.5c4 -2 9.33301 -3 16 -3
c3.33301 10.667 4.5 21.167 3.5 31.5s-6.16699 15.5 -15.5 15.5h-22zM2279.02 285.998l5 -4.99805l-11 -5l-10 -33h33c0.666992 2.66699 1.33398 5.66699 2 9c0.666992 3.33301 1.33398 7 2 11l6 -6l-1 2c1.33301 -1.33301 2.5 -3 3.5 -5s3.16699 -3.33301 6.5 -4h-1
c0.666992 -0.666992 3.66699 -1 9 -1h14c0 0.666992 1 1 3 1h28h-1c0.666992 -0.666992 2 -1 4 -1l-14 -27l1 3h-62l39 -42l-14 -25c-4 4.66699 -8 7 -12 7h-21l-11 -37h26l-19 -32l1 1l4 14l-67 -37l7 15c-9.33301 2 -14 6.66699 -14 14c0 8 1 15 3 21l1 4h40l-35 42l3 10
c0.666992 1.33301 1 4 1 8h36l-10 42l-20 -3c-2.66699 1.33301 -5.33398 2.83301 -8 4.5l-4 2.5c-9.33301 0 -19 -5.66699 -29 -17l-14 21l-16 -50h12l-3 -10c0 -1.33301 -0.166992 -2.33301 -0.5 -3l-1.5 -3v1c-3.33301 -4.66699 -5.83301 -8.83398 -7.5 -12.501
s-3.16699 -5.5 -4.5 -5.5c-2 0 -3 0.333008 -3 1c-0.666992 0 -0.833984 0.166992 -0.5 0.5c0.333008 0.333008 0.166016 0.5 -0.5 0.5l-22 -21l-15 15v-1c-0.666992 0.666992 -1 2.33398 -1 5.00098l10 32v1h16l14 44h-8c1.33301 3.33301 2.83301 6.66602 4.5 9.99902
s3.5 5 5.5 5l-1 2l2 -3l28 21c-9.33301 4 -14.666 6.66699 -16 8c-1.33301 1.33301 -1.33301 3 0 5l6 22h64c-16.667 14 -26.5 25.333 -29.5 34s-3.83301 15.667 -2.5 21h29c3.33301 11.333 5.16602 20.833 5.5 28.5c0.333008 7.66699 -2.83398 12.5 -9.5 14.5l3.5 7
c1 2 2.16699 4.66699 3.5 8l2 8h46l-20 25c7.33301 1.33301 13 2.16602 17 2.49902s9.66699 0.5 17 0.5l-9 -28h21l-5 -32l-17 27l-17 -55h30l-4 -23h-56l48 -50l1 3l-1 -7h-15zM405.018 210l-10.0068 -34.998h33l-9 -27c0 0.666992 -0.666992 1.16699 -2 1.5
s-2.33301 0.833008 -3 1.5l-19 -8l2 1c-15.333 3.33301 -24.5 7.5 -27.5 12.5s-3.83301 10.167 -2.5 15.5c-0.666992 -0.666992 -1.66699 -1 -3 -1l3 2l1 4l-1 -4l1 1c6.66699 3.33301 11.334 9.33301 14.001 18c1.33301 6 1.5 10.167 0.5 12.5s-2.16699 5.5 -3.5 9.5v-3
c-0.666992 0.666992 -0.666992 2.33398 0 5.00098c-4 5.33301 -6.66699 11.666 -8 18.999h34l2 -6c0.666992 -2 2.33398 -3.66699 5.00098 -5l15 11h4c-1.33301 0 -2.33301 0.333008 -3 1l9 7c0.666992 -0.666992 5.33398 -1 14.001 -1c1.33301 0 2.33301 0.166992 3 0.5
s1.66699 0.5 3 0.5h30c2 2.66699 5 4.66699 9 6l12 -16l35 24l-19 27l1 4h13c2.66699 8.66699 4.33398 14.667 5.00098 18s1 10 1 20c-2 0 -4.33301 0.833008 -7 2.5l-4 2.5c-2 4.66699 -4.33301 9.33398 -7 14.001h2c0 0.666992 -0.166992 1.33398 -0.5 2.00098
s-0.166016 1.66699 0.500977 3h28l11 37h-33l-8 -26c-1.33301 6.66699 -3.33301 13 -6 19s-6.5 11.167 -11.5 15.5s-11.833 7.66602 -20.5 9.99902s-20 3.5 -34 3.5l-7 -24l-3 8l-19 -3l-12 -40h25c0 -4 -1 -8.33301 -3 -13
c-0.666992 -2.66699 -1.33398 -4.83398 -2.00098 -6.50098s-0.666992 -3.16699 0 -4.5h-18l-12 -38h27c-0.666992 -3.33301 -1.16699 -6.33301 -1.5 -9s-0.5 -5.33398 -0.5 -8.00098c-3.33301 2 -6.33301 3 -9 3l-18 -11l-2 -7c-15.333 13.333 -23 23.333 -23 30l24 40h-21
c-0.666992 3.33301 -0.5 7.16602 0.5 11.499s0.833008 8.5 -0.5 12.5h34c-11.333 24 -22.666 36.333 -33.999 37l1 23h20c4.66699 8.66699 5.33398 20 2.00098 34h25l-11 -34h30l11 34h36l-11 -34h32l11 34h25c-6 -19.333 -2 -31 12 -35l23 13
c2.66699 -5.33301 4.33398 -10.166 5.00098 -14.499s1.66699 -8.83301 3 -13.5h-17c-6.66699 -22.667 -1 -38.667 17 -48l-1 -2c-8 -4.66699 -15.167 -10.334 -21.5 -17.001s-11.833 -17.667 -16.5 -33h33c0 -1.33301 -0.166992 -2.66602 -0.5 -3.99902l-1.5 -6
c-2 -5.33301 -3 -9.33301 -3 -12l-6 7l-19 -8l-11 -36h5l-17 -20c-0.666992 0.666992 -1.66699 1 -3 1v2l-1 -1c-5.33301 2 -9 3 -11 3l-21 -13l-40 15l-6 -18l-11 15l-13 -44c7.33301 23.333 6 37.666 -4 42.999zM2058.01 394.002l-10.999 -37h27l-7 -22l-13 18l-16 -51h19
l-3 -10c-1.33301 -5.33301 -2.66602 -8.66602 -3.99902 -9.99902l-14 11l-14 -43h17c-0.666992 -1.33301 -1.33398 -3 -2.00098 -5s-1.66699 -4.66699 -3 -8l-3 -12h-51l5 18h8l13 43h-8l3 8h9c4.66699 15.333 5.66699 29.166 3 41.499s-10.667 18.5 -24 18.5
c-9.33301 0 -15.833 -1.33301 -19.5 -4s-8.16699 -8.33398 -13.5 -17.001v1l-1 -1v1v-1h-51c3.33301 4 5.66602 7.83301 6.99902 11.5s3.66602 7.83398 6.99902 12.501h57l-36 34l4 7c1.33301 4 2.83301 7.33301 4.5 10s3.83398 5.66699 6.50098 9v-1h46l5 16l-6 6
c-5.33301 3.33301 -7.66602 6 -6.99902 8c0 1.33301 -0.666992 2 -2 2c-2 0 -3 0.666992 -3 2h20c3.33301 -10.667 8.16602 -19.167 14.499 -25.5s14.5 -9.5 24.5 -9.5l11 35h27l-9 -27h19l-9 -29h-27zM1823.01 151.002
c-0.666992 -2.66699 -0.329102 -7.50195 1.00391 -14.502s2.66602 -12.5 3.99902 -16.5l-1 -1v-1l3 -1l-1 -1h1l6 -2c4 0 7 0.666992 9 2l20 13l20 -15l34 19l-4 -12h41c4 12.667 5.66699 20.667 5 24s-4.66699 7.33301 -12 12c1.33301 1.33301 2.33301 3 3 5
c1.33301 2 3.16602 5.16699 5.49902 9.5l8.5 16.5h41l-23 26l1 2l29 -32c-1.33301 -3.33301 -2.16602 -6 -2.49902 -8s-1.5 -4.66699 -3.5 -8l-1 -4l-6 -3c-2.66699 -1.33301 -6.33398 -3.66602 -11.001 -6.99902l1 2c-4 -2.66699 -6.5 -4.66699 -7.5 -6s-2.5 -5 -4.5 -11
c-2 -8 -3 -13 -3 -15s2.33301 -3 7 -3v2c0.666992 -2.66699 3.33398 -4.66699 8.00098 -6l-5 -16c-2 0.666992 -3.16699 1.16699 -3.5 1.5l-0.5 0.5l-16 -10l-9 -30l-36 49l-7 -24c-5.33301 6 -11.333 9 -18 9h-9c-2 0 -6.16699 -0.333008 -12.5 -1s-13 -1.5 -20 -2.5
l-21 -3c-7 -1 -12.5 -1.83301 -16.5 -2.5l-5 -6l-5 20l-28 -18c-6 -17.333 -4.66699 -27 4 -29v2l4 -4v-2h-36l14 8l2 6v1c0.666992 0 1 0.333008 1 1v-3c2.66699 4.66699 4.66699 8.66699 6 12c1.33301 4 2.16602 7.83301 2.49902 11.5s-2.5 5.83398 -8.5 6.50098v-2l-7 5
l1 3c1.33301 3.33301 5.5 5.66602 12.5 6.99902s14.5 2 22.5 2c2.66699 8 4.66699 12.833 6 14.5s2.66602 3.83398 3.99902 6.50098l4 13c-2.66699 4.66699 -7 8.66699 -13 12l19 29l22 -6l7 21c2.66699 8 3 13.667 1 17l-1 -3v7l-3 3l0.5 1
c0.333008 0.666992 1.16602 1.66699 2.49902 3l3 7c0.666992 4 1.66699 7 3 9h51l-10 -18h-30c-3.33301 -16.667 -5 -25.667 -5 -27c0 -7.33301 3.33301 -12.333 10 -15l-20 -32h-25zM250.017 350l18 0.000976562l-2 -27l-3 2c-3.33301 0.666992 -5.33301 1.16699 -6 1.5
s-0.333984 0.5 0.999023 0.5h-8l-12 -8l-10 -31h35l-1 -24c-9.33301 6 -17 9 -23 9l-9 -31l22 -26c-4 2 -7.66699 3 -11 3l-6 -21c-4 -14 2.33301 -22.333 19 -25l-2 -25c-2 2.66699 -6 4 -12 4l-16 -10c-7.33301 -24 1 -36 25 -36l-1 -17l-15 -2l-13 -40h23v-4h-62
c2.66699 2.66699 6 5.16699 10 7.5s10.333 4.83301 19 7.5l-13 21l1 4h-4c-6.66699 0 -9.5 3.5 -8.5 10.5s2.16699 12.833 3.5 17.5l1 5v-1h2h7l14 29c-12 2 -19 6 -21 12s-2.33301 12.333 -1 19c6 2.66699 19 15.667 39 39h-25l-4 3c0 0.666992 -3.66699 1.66699 -11 3v4
c0.666992 0.666992 1 2 1 4c4.66699 2 9.5 5.83301 14.5 11.5l17.5 19.5c-10 4 -17.333 8.5 -22 13.5s-7.66699 10.167 -9 15.5h15c3.33301 12 4.83301 21 4.5 27s-1.16602 10.667 -2.49902 14l-3 2c-2 2.66699 -3.83301 5.66699 -5.5 9s-1.83398 6.66602 -0.500977 9.99902
l1 2c-1.33301 -1.33301 -0.666016 -2 2.00098 -2h44h3zM2342.02 303.001l3.00098 -0.00488281l30 18c-6 8.66699 -9 15 -9 19c0 0.666992 0.166992 1.83398 0.5 3.50098l1.5 7.5c1.33301 2 2.83301 5 4.5 9s3.83398 6 6.5 6c-1.33301 0 -1.66602 -0.166992 -1 -0.5
c0.666992 -0.333008 2.66699 -0.833008 6 -1.5l19 30c-7.33301 0 -11 1 -11 3v-2l1 3l-1 -1l1 1c1.33301 4.66699 4 10.5 8 17.5s8 10.5 12 10.5v1c3.33301 -2 6 -4 8 -6s5.66699 -4.66699 11 -8c1.33301 8.66699 2.33301 16 3 22s1.33398 11 2 15h19l-10 -6l24 -21l-6 -13
l3 10l-52 -33l20 -26l-12 -22l-16 17l-21 -68l14 9l-10 -15c-2.66699 1.33301 -4.33398 2.33301 -5 3c-2.66699 0.666992 -4.33398 1.16699 -5 1.5l-1 0.5c-2 0 -3.33301 -0.166992 -4 -0.5s-3.33398 -1.16602 -8 -2.49902l-10 -10c-2 -5.33301 -1.33301 -10.666 2 -15.999
l-18 21l1 1c-3.33301 3.33301 -6.66602 5.33301 -10 6l1 -1c-3.33301 0.666992 -5.33301 1.16699 -6 1.5s-0.333984 0.5 1 0.5c1.33301 2.66699 3.16602 5.33398 5.5 8.00098c2.33301 2.66699 5.16602 5.33398 8.49902 8.00098zM536.018 181.996l-2.00391 5l9 -36h-15
c-3.33301 -12 -3.66602 -22.333 -0.999023 -31s9.66699 -14.667 21 -18l4 12l5 -23h-8l-8 -25c-4 -12.667 0.666992 -19 14 -19h4c5.33301 0 8.33301 0.333008 9 1c0 -2 0.666992 -3.66699 2 -5h-52c-4 0 -7.33301 2.33301 -10 7c10.667 5.33301 20.667 13.666 30 24.999
c-8.66699 5.33301 -14.667 8.66602 -18 9.99902s-6 2.33301 -8 3c-3.33301 0.666992 -6 1.33398 -8 2.00098s-3.66699 1.33398 -5 2.00098l-3 8l8 26c0 0.666992 0.5 1.5 1.5 2.5s1.5 1.83301 1.5 2.5l-1 15c-2 0 -3.33301 -0.333008 -4 -1
c-1.33301 1.33301 -2.16602 2.5 -2.49902 3.5s-2.16602 5.16699 -5.49902 12.5c-3.33301 -4 -6.16602 -7.16699 -8.49902 -9.5l-5.5 -5.5l-11 32l32 19l-4 -15h39zM1421.01 150.996l-11.002 -35.999h22c-2 -2 -4 -6.33301 -6 -13l-3 -11h-20l-11 -37h17l-1 -3h-39
c5.33301 1.33301 9 3.33301 11 6s4.33301 7.66699 7 15c4 13.333 1.33301 21.666 -8 24.999l5 18h14c3.33301 11.333 5.5 20.333 6.5 27s-1.5 11.334 -7.5 14.001l8 27c0.666992 -0.666992 2.66699 -1 6 -1l23 12l19 -19l-2 -5l-2 -8
c-1.33301 -2.66699 -2.16602 -4.83398 -2.49902 -6.50098s-1.16602 -3.16699 -2.49902 -4.5h-23zM221.012 409.997c2 6.66699 3.33301 12.668 4 18.001s1 10.666 1 15.999h24l-11 -34h31l-1 -26c-1.33301 2 -4 3 -8 3h-50l-11 10v13h21zM392.012 83.998
c-1.33301 -5.33301 -2.49805 -9.5 -3.49805 -12.5l-1.5 -4.5c-11.333 9.33301 -18.833 17 -22.5 23s-4.5 11.667 -2.5 17c0.666992 1.33301 1.66699 2.83301 3 4.5s8.66602 4.83398 21.999 9.50098c7.33301 -9.33301 15.666 -14.333 24.999 -15
c0 -5.33301 0.333008 -8.33301 1 -9c-0.666992 -0.666992 -1 -2.33398 -1 -5.00098c0 -3.33301 -0.333008 -5.33301 -1 -6v-2h-19zM741.014 102.998l-15 -50c21.333 0 40 10.333 56 31zM2108.01 55.998v1l3 1h-3c-12 0 -21.333 -1 -28 -3h1c-2 0 -3 -0.333008 -3 -1h-2
l-5 -1l-10 -2c2.66699 4 8.33398 6.66699 17 8l14 29c-8 3.33301 -11.667 5.33301 -11 6h1c1.33301 1.33301 2.66602 4.33301 4 9c1.33301 4.66699 4.33301 10.667 9 18h21l-19 -62h14c0 -0.666992 -0.5 -1.16699 -1.5 -1.5s-1.5 -0.833008 -1.5 -1.5zM1108.01 284.998
c-6 -2.66699 -11.832 -8 -17.499 -16s-10.167 -16.667 -13.5 -26h43c3.33301 9.33301 4.66602 18 3.99902 26s-3.66699 13.333 -9 16h-7zM992.015 157.998l-3.00098 -11.999c-6.66699 3.33301 -11 6.16602 -13 8.49902s-2.66699 4.5 -2 6.5l6 18
c0.666992 1.33301 2.66699 3 6 5s10 5 20 9l19 -16l-7 -23c-1.33301 0.666992 -2.16602 1.16699 -2.49902 1.5l-2.5 2.5h-21zM1908.01 293.999l7 24l19 -23l-9 -14h-28l-8 -26l-17 21l11 18h25zM1006.01 115.999l-8.00195 -26.999c0.666992 0 1 -0.333008 1 -1h-3
c-0.666992 2.66699 -3 4 -7 4l-5 -3l3 2h-26c0.666992 -1.33301 0.833984 -3 0.500977 -5s0.166992 -3.66699 1.5 -5c-3.33301 1.33301 -5.66602 4 -6.99902 8l-2 2l7 24c2 1.33301 5 3.16602 9 5.49902s8.66699 5.83301 14 10.5l-5 -17h15c0.666992 0 2 0.166992 4 0.5
s4.66699 0.833008 8 1.5zM1985.01 394c0 -14 1 -23.668 3 -29.001s5.66699 -8 11 -8h12l4 14c1.33301 0.666992 2.33301 1.83398 3 3.50098l4 10.5l-9 9h-28zM2260.01 53.999l-3 -3.00098h-54v8h12l3 7h35c-0.666992 -4 -0.333984 -6.66699 1 -8
c1.33301 -1.33301 3.33301 -2.66602 6 -3.99902zM1639.01 52.998l1.00195 0.999023c-1.33301 -1.33301 -2 -2.33301 -2 -3h-48v2c5.33301 0.666992 10.166 2.33398 14.499 5.00098s10.166 8 17.499 16l20 -18l-2 -2zM1919.01 58.9971l54 -0.000976562l-2 -8h-53
c0.666992 0.666992 1 3.33398 1 8.00098zM2142.01 117.996c-1.33301 -4.66699 -2.83301 -9 -4.5 -13s-3.83398 -7.66699 -6.5 -11l-12 27h24v-1zM797.014 446.996l-7 -22l-19 20c4 0.666992 8 1.16699 12 1.5s8.66699 0.5 14 0.5zM1509.01 91.9961
c-2 3.33301 -2.33301 11 -1 23h16c-3.33301 -7.33301 -8.33301 -15 -15 -23zM392.014 42.9961l-31.999 0.000976562l1 4l27 7c-0.666992 -6.66699 0.666016 -10.334 3.99902 -11.001zM973.015 55.9971c0.666992 0 1 -0.333008 1 -1h2l-2 2l4 -3l-1 2c2 -2 4.66699 -3 8 -3h2
v-2h-29l1 6c3.33301 4 5.33301 8.33301 6 13l6 -10.5zM1231.01 443.997l20 0.000976562c-2 -0.666992 -3.33301 -2.33398 -4 -5.00098l-1 -4c-6 2.66699 -11 5.66699 -15 9zM992.015 73.998c-0.666992 0 -1 0.333008 -1 1l2 6l3 2l-1 -3l3 4l-1 -2zM468.015 74.998l-4 -14
c-0.666992 0 -1 0.333008 -1 1l2 6l2 6c0 0.666992 0.333008 1 1 1zM257.015 213.998c-0.666992 0 -1.16699 0.166992 -1.5 0.5l-0.5 0.5l3 10zM670.015 237.998l3 2c0 -1.33301 -1 -2 -3 -2zM681.015 87.998h-3l3 1v-1zM2492.01 453.998v-1l-1 -1zM998.015 88.998v-1h-2v1
h2zM2324.01 154.998l1 -0.5c0.666992 -0.333008 1 -0.833008 1 -1.5c0 0.666992 -0.666992 1 -2 1v1zM404.015 42.998v1v-1zM2097.01 125.998l-1 -1zM1762.01 93.998l-2 2l1 1zM1526.01 117.998v-1l-1 1h1z" />
    <glyph glyph-name="FL00A5h" unicode="&#xa5;" horiz-adv-x="414" 
d="M331 488l2 5l-1 -2zM103 228l94 -0.00195312l2 8h-94l43 139h48l-24 98l65 213h154l-57 -184c0 -1.33301 -0.166992 -2.66602 -0.5 -3.99902s-0.5 -2.66602 -0.5 -3.99902v-1l2 -2c0 -2 0.333008 -3.33301 1 -4l-2 -6l7 -36l27 34v-3l1 5c1.33301 3.33301 2.33301 5 3 5
c0 1.33301 1 3 3 5l-1 -1c0.666992 0.666992 1.5 1.33398 2.5 2.00098l1.5 1c1.33301 1.33301 2 2.66602 2 3.99902l58 189h155l-65 -213l-84 -98h45l-43 -139h-87l-2 -8h87l-43 -139h-87l-27 -89h-160l27 89h-94z" />
    <glyph glyph-name="FL00A6h" unicode="&#xa6;" 
d="M140 376h144l94 309h-144zM25 0h144l92 302h-144z" />
    <glyph glyph-name="c" unicode="&#xa7;" horiz-adv-x="1131" 
d="M554 349c1.33301 0.666992 2.5 1.16699 3.5 1.5s2.83301 1.16602 5.5 2.49902c4.66699 2 9.66699 4 15 6s10 4.33301 14 7c10 4 19.5 8.33301 28.5 13s18.833 9.33398 29.5 14.001l20 9c6 2.66699 10.667 4.66699 14 6h16l107 -53l-8 81
c0.666992 1.33301 3.83398 5.16602 9.50098 11.499s12.167 13.166 19.5 20.499l3 2c3.33301 3.33301 6.66602 6 9.99902 8s6.66602 3.66699 9.99902 5l-1 -1l16.5 10l15.5 9c2.66699 0.666992 4.66699 1.66699 6 3l-89 4l-11 4l-40 108l-89 -99l1 1
c-3.33301 -4.66699 -8.66602 -8.5 -15.999 -11.5s-16 -5.33301 -26 -7s-20.667 -3 -32 -4s-22.333 -1.83301 -33 -2.5h-3l28.5 -22l18.5 -14l2 -3l2 -1c0.666992 0 1 -0.333008 1 -1l1 1c1.33301 -1.33301 2.5 -3.16602 3.5 -5.49902s0.166992 -8.16602 -2.5 -17.499z
M375 457c11.333 37.333 31 72.502 59 105.502s60.833 61.667 98.5 86s78.5 43.666 122.5 57.999s87.667 21.5 131 21.5c44 0 83.333 -7.16699 118 -21.5s62.667 -33.833 84 -58.5s35.5 -53.5 42.5 -86.5s4.83301 -68.167 -6.5 -105.5s-30 -72.833 -56 -106.5
s-57 -63.334 -93 -89.001s-75.833 -46 -119.5 -61s-88.5 -22.5 -134.5 -22.5c-45.333 0 -86 7.33301 -122 22s-65.167 34.667 -87.5 60s-37 55 -44 89s-4.5 70.333 7.5 109zM321 452.002c-12.667 -41.333 -14.6641 -80.834 -5.99707 -118.501s26 -70.667 52 -99
s59.333 -50.833 100 -67.5s87 -25 139 -25c52.667 0 104.334 8.33301 155.001 25s97 39.334 139 68.001s78.333 61.834 109 99.501s52.667 77.5 66 119.5c12 40.667 14.167 79.5 6.5 116.5s-23.667 69.667 -48 98s-56.333 51 -96 68s-85.5 25.5 -137.5 25.5
c-52.667 0 -104.834 -8.16699 -156.501 -24.5s-99.334 -38.5 -143.001 -66.5s-81.334 -60.833 -113.001 -98.5s-53.834 -77.834 -66.501 -120.501zM782.003 908.001c2.66699 0 5.33301 0.164062 8 0.49707s5 0.5 7 0.5h35c56 0 107.833 -6.5 155.5 -19.5
s89.667 -31.667 126 -56s66.5 -53.833 90.5 -88.5s40.333 -73.334 49 -116.001c1.33301 -9.33301 2.33301 -17.833 3 -25.5l2 -23.5l1 1c0 -2.66699 -0.333008 -4.33398 -1 -5.00098v-4c0 -17.333 1 -32.333 3 -45l-46 -150c-0.666992 -4.66699 -4.66699 -12 -12 -22
c-7.33301 -9.33301 -12.666 -18 -15.999 -26c-33.333 -49.333 -72.833 -94.333 -118.5 -135s-95.667 -75.5 -150 -104.5s-111.833 -51.5 -172.5 -67.5s-123 -24 -187 -24h-21c-2 0 -4 0.166992 -6 0.5s-4.33301 0.5 -7 0.5c-2 0 -4.16699 0.166992 -6.5 0.5
s-4.83301 0.5 -7.5 0.5h-23c-44 6.66699 -85 17.834 -123 33.501s-71.5 35.167 -100.5 58.5s-53.333 50.333 -73 81s-33.5 64.334 -41.5 101.001v1c-1.33301 1.33301 -2 3.66602 -2 6.99902l-1 -1c-2 15.333 -3.66699 32.833 -5 52.5s0.666992 37.834 6 54.501l38 127
c4.66699 13.333 12.834 29 24.501 47s22.167 33.333 31.5 46v-1c1.33301 2 3 4.66699 5 8s3.66699 5.66602 5 6.99902c0 0.666992 0.333008 1.16699 1 1.5l1 0.5c27.333 36.667 60.166 70.834 98.499 102.501s79.666 59.834 123.999 84.501s90.833 45.334 139.5 62.001
s97 28.334 145 35.001h21z" />
    <glyph glyph-name="FL00A8h" unicode="&#xa8;" horiz-adv-x="439" 
d="M202 571h159l33 109h-159zM424 571h159l33 109h-159z" />
    <glyph glyph-name="eight" unicode="&#xa9;" horiz-adv-x="2068" 
d="M567 588c-0.666992 -0.666992 -1.33301 -1 -2 -1v-1zM1052 236c0.666992 0 1 0.333008 1 1v1zM1054 243v-2h1v2h-1zM820.001 381l4 1l1 3zM822.001 395c2.66699 -4 3.6709 -8.33496 3.00391 -13.002v-10v1c0.666992 -0.666992 1 -2 1 -4v-3
c0 -3.33301 -1.33301 -14.166 -4 -32.499l-9 -59.5c0 -3.33301 -0.333008 -7.16602 -1 -11.499s-1.33398 -8.16602 -2.00098 -11.499c-1.33301 -4.66699 -1.83301 -8.83398 -1.5 -12.501s0.166016 -6.83398 -0.500977 -9.50098l-3 -9
c-0.666992 -1.33301 -1.33398 -4.16602 -2.00098 -8.49902s-1.33398 -6.83301 -2.00098 -7.5h-82c10.667 34.667 23 67 37 97s30.667 60 50 90zM1126 513.998c20 0 35.501 -2.16797 46.501 -6.50098s18.833 -10.333 23.5 -18s6.66699 -17 6 -28s-3 -22.833 -7 -35.5
c-2.66699 -9.33301 -6.33398 -19.666 -11.001 -30.999s-11 -22 -19 -32s-18.167 -18.5 -30.5 -25.5s-27.5 -10.5 -45.5 -10.5c-14 0 -18.333 7.66699 -13 23zM1790.01 81.9971h184l23 74h-101l130 427h-83zM1755.01 508.997h98l22 74h-204l-1 -38l-142 -463h194l23 74h-98
l42 137h98l23 75h-98zM1057.01 251.997c4 2.66699 6.50098 4.16113 7.50098 4.49414s3.5 0.5 7.5 0.5c4.66699 0 7.66699 -0.5 9 -1.5s1 -4.16699 -1 -9.5l1 4c4 -10.667 6.66699 -20.334 8 -29.001s2.33301 -17 3 -25c-0.666992 -1.33301 -0.833984 -2.5 -0.500977 -3.5
s0.166016 -2.16699 -0.500977 -3.5v1c0 -1.33301 0.333008 -3.16602 1 -5.49902s0.666992 -4.5 0 -6.5c0 -4.66699 0.833008 -11.5 2.5 -20.5s2.16699 -14.833 1.5 -17.5c-0.666992 -0.666992 -1.33398 1.66602 -2.00098 6.99902
c-0.666992 -4.66699 -1.16699 -8.66699 -1.5 -12s-0.333008 -7 0 -11s1.33301 -9.33301 3 -16l6.5 -26l3 2v-2h84l-14 174l4 13c2 6.66699 6.5 14.334 13.5 23.001s15.167 17.667 24.5 27c13.333 13.333 26.5 28 39.5 44s23.167 33 30.5 51l10.5 6
c3.66699 2 6.83398 3 9.50098 3c4.66699 0 8 -4.66699 10 -14s2.66699 -21.166 2 -35.499s-2 -30.166 -4 -47.499s-4.33301 -34 -7 -50c-0.666992 -4 -1.16699 -8.33301 -1.5 -13s-0.833008 -9 -1.5 -13l-3 -21l-15 -147v-2v2h114l247 501h-89l-126 -259l-42 -48l37 307h-89
l-8 -53l-14 -46c-8.66699 11.333 -14.667 20.666 -18 27.999s-6.33301 13.666 -9 18.999c-2 6 -4.5 12 -7.5 18s-6.66699 11.5 -11 16.5s-9.83301 9.16699 -16.5 12.5s-15 5 -25 5h-175l-149 -487l-20 -2l-7 55l58 434h-129l-8 -13
c-4.66699 -9.33301 -11.334 -23.666 -20.001 -42.999s-18.667 -40.333 -30 -63l-19 -38l-38 -79.5c-11.333 -24.333 -19.666 -41.5 -24.999 -51.5l-5.5 -13.5c-2.33301 -5.66699 -4.5 -11.5 -6.5 -17.5c-6 -14.667 -13.333 -31 -22 -49s-18 -35 -28 -51
s-20.333 -29.333 -31 -40s-21 -16 -31 -16l145 475h-125c0 -0.666992 -0.666992 -1.66699 -2 -3l-11 -20.5l-11 -20.5l-22 -41.5l-24 -43.5l-29 -49.5l-36 -58.5l-12 33l15 204h-122l-153 -501h84l60 197c9.33301 -3.33301 16.333 -7.66602 21 -12.999
s7.83398 -11.333 9.50098 -18s2 -13.334 1 -20.001s-2.5 -13 -4.5 -19c-1.33301 -5.33301 -2 -9.66602 -2 -12.999c0 -2.66699 -0.166992 -7.5 -0.5 -14.5s-0.5 -15.167 -0.5 -24.5s-0.166992 -18.833 -0.5 -28.5s-0.5 -18.5 -0.5 -26.5v-23c0 0.666992 2.66699 1 8 1
c2 0 3.5 0.166992 4.5 0.5s1.83301 0.5 2.5 0.5h9c0.666992 0 1.33398 -0.166992 2.00098 -0.5s2 -0.5 4 -0.5c6 0 8.33301 -1.66699 7 -5c4.66699 7.33301 10.334 17.833 17.001 31.5s14.667 28.834 24 45.501l17 29.5c5.33301 9.66699 10.166 18.834 14.499 27.501
s8.33301 16.334 12 23.001s6.5 11.667 8.5 15c2.66699 6 7.5 12.667 14.5 20s21.5 16.666 43.5 27.999l-65 -213h198l10 13v-1l1 1c0 0.666992 0.333008 1.33398 1 2.00098c0 0.666992 1 1.66699 3 3v-1l1 1l2.5 5c1 2 2.16699 5 3.5 9c0.666992 0.666992 1 0.666992 1 0
c10 13.333 19.333 20 28 20h79c5.33301 0 9 -2.83301 11 -8.5s3 -11.5 3 -17.5c-0.666992 -2.66699 -0.833984 -5.16699 -0.500977 -7.5s0.5 -4.83301 0.5 -7.5l1 1l-1 -12h205l49 159h9v2h-1c1.33301 4.66699 2.33301 7.33398 3 8.00098s1.66699 1 3 1zM234.007 671.991
h2008l-205 -672h-2008z" />
    <glyph glyph-name="FL00B9h" unicode="&#xaa;" horiz-adv-x="456" 
d="M563 686h-255.001c-7.33301 0 -15.333 -2 -24 -6s-17 -9 -25 -15s-15.5 -12 -22.5 -18s-12.5 -11 -16.5 -15l-193 -632h153l86 280h89l-86 -280h156l193 632c-1.33301 4 -3.66602 9 -6.99902 15s-7.5 12 -12.5 18s-10.5 11 -16.5 15s-12.333 6 -19 6zM350.999 548
c7.33301 5.33301 16.667 7.99902 28 7.99902h32c14 0 21.5 -2.5 22.5 -7.5s0.166992 -11.167 -2.5 -18.5l-34 -111h-89l34 112c1.33301 4.66699 4.33301 10.334 9 17.001z" />
    <glyph glyph-name="FL00B1h" unicode="&#xab;" horiz-adv-x="348" 
d="M269 322l11 33l-31 -16zM393 339l22 -18l-42 -137l-116 90l-28 -90l-118 91l39 128l174 92l-27 -91l171 91l-42 -139z" />
    <glyph glyph-name="FL00ACh" unicode="&#xac;" horiz-adv-x="847" 
d="M493 920h-186l-133 -920h192l431 920h-185l-188 -414zM818 0l89 692h-162l-336 -692h151l26 51h83l-6 -51h155zM696 273l-11 -81h-32z" />
    <glyph glyph-name="FL00ADh" unicode="&#xad;" horiz-adv-x="237" 
d="M130 339l-35 -113h180l35 113h-180z" />
    <glyph glyph-name="FL00AEh" unicode="&#xae;" horiz-adv-x="772" 
d="M269 190h32l11 81zM546 685h155l-32 -263l128 263h157l-335 -685h-161zM518 684l-84 -684h-156l7 51h-83l-26 -51h-150l333 684h159z" />
    <glyph glyph-name="FL00AFh" unicode="&#xaf;" horiz-adv-x="456" 
d="M192 541h398l-32 -105h-398z" />
    <glyph glyph-name="FL00B0h" unicode="&#xb0;" 
d="M199 569h144l33 109h-144z" />
    <glyph glyph-name="FL00B2h" unicode="&#xb1;" horiz-adv-x="381" 
d="M398 448h-147l-13 -44h-85l-41 -134h85l-14 -45h147l14 45h89l41 134h-89zM414 213h-322l-41 -134h322z" />
    <glyph glyph-name="FL00B6h" unicode="&#xb2;" horiz-adv-x="220" 
d="M239 423l-0.00195312 -1.99902h81l-24 -79h-137c-11.333 0 -17.333 4.66699 -18 14s0.333008 18 3 26l5 18l5 15l5 17c2 4.66699 3.66699 7.66699 5 9l-1 -3l2 2l5 13c0.666992 0.666992 1.33398 1.16699 2.00098 1.5s1.66699 1.16602 3 2.49902l118 150h-81l23 77h129
c9.33301 0 14.5 -3.83301 15.5 -11.5s1.5 -16.167 1.5 -25.5c-0.666992 -1.33301 -0.666992 -2.5 0 -3.5s0.666992 -2.16699 0 -3.5c-1.33301 -3.33301 -1.66602 -5 -0.999023 -5c0 -3.33301 1 -6 3 -8l-11 -34z" />
    <glyph glyph-name="FL00B8h" unicode="&#xb3;" horiz-adv-x="223" 
d="M172 477l83.999 -0.000976562l-19 -60h-7h-77l-22 -75h127c7.33301 0 16.333 3.83301 27 11.5s18 14.167 22 19.5l37 122c0.666992 3.33301 0.833984 6.33301 0.500977 9s-0.833008 5.33398 -1.5 8.00098c4.66699 5.33301 8.66699 12 12 20l37 121
c-1.33301 5.33301 -4.83301 11.833 -10.5 19.5s-12.167 11.5 -19.5 11.5h-127l-23 -76h77c4 0 6.33301 -0.333008 7 -1l-16 -50h-84z" />
    <glyph glyph-name="FL00B4h" unicode="&#xb4;" horiz-adv-x="306" 
d="M180 572h168l157 111h-169z" />
    <glyph glyph-name="FL00B5h" unicode="&#xb5;" horiz-adv-x="884" 
d="M329 202c0 1.33301 -0.666992 2 -2 2zM450 568c2 -2 6.66602 -2.99805 13.999 -2.99805l27 5c-3.33301 4 -7.16602 8.16699 -11.499 12.5s-8.16602 9.16602 -11.499 14.499c-2 -2.66699 -4 -4.83398 -6 -6.50098s-4 -3.16699 -6 -4.5v1
c-0.666992 -1.33301 -1.83398 -2.5 -3.50098 -3.5s-3.16699 -2.16699 -4.5 -3.5c-4.66699 -4 -7.66699 -6.66699 -9 -8zM780.999 114.002c0 0.666992 -0.341797 0.998047 -1.00879 0.998047v1l-1 -4v4c0 1.33301 -0.333008 2.83301 -1 4.5s-1 3.16699 -1 4.5
c-1.33301 3.33301 -2.16602 6.5 -2.49902 9.5s0.5 7.83301 2.5 14.5c0 0.666992 0.166992 1.16699 0.5 1.5s0.5 0.833008 0.5 1.5l3 7l5 10c0.666992 10.667 -0.166016 18.5 -2.49902 23.5s-6.16602 10.167 -11.499 15.5l-1 -1c0 0.666992 -0.833008 1.66699 -2.5 3
s-3.16699 3.66602 -4.5 6.99902l1 -2l-3 2c-5.33301 -1.33301 -9.5 -2.66602 -12.5 -3.99902s-5.5 -2 -7.5 -2c-8 -2 -14.667 -3.33301 -20 -4s-10.666 -1 -15.999 -1h-32l2 2l-26.5 -12.5c-6.33301 -3 -12.166 -5.5 -17.499 -7.5
c0.666992 -5.33301 2.16699 -10.5 4.5 -15.5s4.5 -8.5 6.5 -10.5v-2l1 -1c1.33301 -3.33301 2.83301 -6.5 4.5 -9.5l5.5 -9.5c4.66699 -8.66699 8.16699 -17 10.5 -25s0.833008 -20 -4.5 -36v-2c-1.33301 -3.33301 -4 -7.83301 -8 -13.5s-7.66699 -9.5 -11 -11.5h-7
c-0.666992 0 -1.33398 -0.166992 -2.00098 -0.5s-1.33398 -0.5 -2.00098 -0.5h-9c-11.333 0 -20.333 1.5 -27 4.5s-12.167 6.83301 -16.5 11.5s-7.66602 9.83398 -9.99902 15.501s-4.5 11.5 -6.5 17.5c-2 7.33301 -5 14.166 -9 20.499s-11.667 9.5 -23 9.5
c-4.66699 0 -10 -0.166992 -16 -0.5s-11.667 -0.833008 -17 -1.5h-2c-5.33301 -0.666992 -10.666 -1.16699 -15.999 -1.5s-11.333 -0.5 -18 -0.5c-63.333 0 -108.666 20.667 -135.999 62c-2.66699 4 -4.66699 8.83301 -6 14.5s-1.33301 11.167 0 16.5l13 43
c2 6.66699 5.5 12.834 10.5 18.501s10.167 10.167 15.5 13.5v-1c47.333 32.667 97 49 149 49h8c6 0 12.5 -0.5 19.5 -1.5s11.833 -1.5 14.5 -1.5l-2 19l-8 4c-4 1.33301 -7.33301 3.33301 -10 6l-1 -1c-2.66699 1.33301 -7 5.33301 -13 12s-10.667 12.667 -14 18v1v-2
c-3.33301 0 -4.33301 0.666992 -3 2l-16.5 11.5c-7 5 -11.167 8.83301 -12.5 11.5l1 -2l-16 16c-5.33301 -1.33301 -9.33301 -2 -12 -2h-13c-9.33301 0 -16 1.5 -20 4.5l-14 10.5l-4 2c-1.33301 0.666992 -3 1.33398 -5 2.00098s-3.66699 1.66699 -5 3v-1l-20 6
c-4.66699 1.33301 -9.33398 4.33301 -14.001 9s-8.66699 9.33398 -12 14.001l-6 5v-2c-4 1.33301 -8.33301 3 -13 5s-7.66699 4.66699 -9 8l1 -1c-0.666992 0.666992 -1.33398 1 -2.00098 1l-1 1l-3 3l1 -2c-3.33301 0 -6 1 -8 3l-4 4l2 -2h-10
c-9.33301 0 -18.666 0.5 -27.999 1.5s-17.666 4.16699 -24.999 9.5c-2 0.666992 -4 2.16699 -6 4.5s-4 4.5 -6 6.5l1 -2h-1c-0.666992 0 -1.33398 0.166992 -2.00098 0.5s-1.66699 0.5 -3 0.5s-2.33301 1 -3 3v-2c-0.666992 0.666992 -4 1 -10 1h-8l10 35
c6.66699 0 10.334 0.333008 11.001 1c2 0 3.66699 0.666992 5 2l12 2l15 3c9.33301 1.33301 18 2.5 26 3.5s13.667 2.16699 17 3.5h3c0.666992 0 1.16699 -0.166992 1.5 -0.5s0.833008 -0.5 1.5 -0.5h5l-2 -2c4 2.66699 7.5 4.83398 10.5 6.50098s4.5 2.16699 4.5 1.5
c0.666992 2.66699 2 5.66699 4 9s4.66699 5.66602 8 6.99902v3l-1.5 4c-1 2.66699 -1.5 4.66699 -1.5 6c-2.66699 4.66699 -4.33398 9.5 -5.00098 14.5s0.333008 11.167 3 18.5c4 15.333 12.667 23 26 23c12 0 20.5 -4.66699 25.5 -14s9.16699 -19.666 12.5 -30.999
c1.33301 -6 2.83301 -11.5 4.5 -16.5s5.83398 -7.5 12.501 -7.5c2 0 4.33301 1.33301 7 4l-1 -3c1.33301 5.33301 2 7 2 5c7.33301 7.33301 14.666 13.833 21.999 19.5s16.666 8.5 27.999 8.5h1c0 4.66699 1.33301 10 4 16c6.66699 21.333 19.167 38.5 37.5 51.5
s39.166 19.5 62.499 19.5c12 0 22 -2.33301 30 -7s14.667 -10.5 20 -17.5s9.5 -14.833 12.5 -23.5s5.5 -17.334 7.5 -26.001l3 2c0.666992 -3.33301 1.33398 -7.16602 2.00098 -11.499s1 -8.16602 1 -11.499c4 -1.33301 4 -2 0 -2l-0.5 -0.5
c-0.333008 -0.333008 0.166992 -0.833008 1.5 -1.5v-2c4 0 6.83301 1.16699 8.5 3.5s4.16699 5.16602 7.5 8.49902l5 6l12.5 13c3.66699 4 7.5 6.66699 11.5 8l35 18v-1c11.333 6.66699 21.166 13.334 29.499 20.001s16.166 13.667 23.499 21c2.66699 2 4.83398 4 6.50098 6
s3.5 4 5.5 6c6.66699 7.33301 13.334 14.166 20.001 20.499s14.334 12.166 23.001 17.499l85 72l-2 -5c1.33301 2.66699 2.16602 4.83398 2.49902 6.50098s0.833008 3.16699 1.5 4.5c0 4 2.66699 14 8 30c6 0 9.33301 -0.333008 10 -1c2 5.33301 4.16699 10.666 6.5 15.999
s8.16602 8 17.499 8c8 0 13.333 -3.33301 16 -10l7 20c18.667 0 29.334 -5.16699 32.001 -15.5s2 -21.166 -2 -32.499l-7 -23h4c0.666992 0 1.33398 0.166992 2.00098 0.5s2 0.5 4 0.5c9.33301 0 17.166 -1.66699 23.499 -5s8.16602 -9.33301 5.49902 -18
c-1.33301 -5.33301 -3.83301 -9.83301 -7.5 -13.5s-7.16699 -6.5 -10.5 -8.5c-24.667 -2 -51.334 -6.66699 -80.001 -14l3 4c-3.33301 -3.33301 -7.66602 -8.83301 -12.999 -16.5s-10.666 -15.834 -15.999 -24.501v1c-1.33301 -3.33301 -2.33301 -5.33301 -3 -6l-20.5 -29.5
c-6.33301 -9 -11.166 -14.833 -14.499 -17.5v1l-29 -29c-3.33301 -3.33301 -6.66602 -6.33301 -9.99902 -9s-6.66602 -5.66699 -9.99902 -9c2.66699 1.33301 2.16699 0 -1.5 -4s-6.83398 -6.66699 -9.50098 -8l-24 -23.5c-8 -7.66699 -15.333 -14.167 -22 -19.5l1 3l-3 -2
v-30c-0.666992 -2 -1 -5.33301 -1 -10v-10c-1.33301 -14 -3 -27.833 -5 -41.5l-6 -41.5l12 -50l29 12.5c11.333 5 23 7.5 35 7.5s22 -2 30 -6s16.667 -9.66699 26 -17c4.66699 -3.33301 9.16699 -11.5 13.5 -24.5s7.83301 -27 10.5 -42s4.66699 -29.333 6 -43
s1.33301 -22.834 0 -27.501l-48 -98c-2.66699 -7.33301 -3.66699 -15.166 -3 -23.499s1.66699 -16.833 3 -25.5c1.33301 -9.33301 2.33301 -18.833 3 -28.5s-1.33301 -21.5 -6 -35.5c-3.33301 -12 -9.66602 -24.5 -18.999 -37.5s-22.666 -19.5 -39.999 -19.5
c-5.33301 0 -11.166 2.16699 -17.499 6.5s-12 9.83301 -17 16.5s-8.66699 13.667 -11 21s-2.5 13.666 -0.5 18.999z" />
    <glyph glyph-name="parenleft" unicode="&#xb6;" horiz-adv-x="1984" 
d="M1074 146c-0.666992 -0.666992 -1.33301 -1 -2 -1v-1zM932.001 600h1h-1zM1668 474c-0.666992 -0.666992 -1.33301 -1 -2 -1l-1 -1zM890.002 272v-1v2v-1zM934.002 600c0.666992 0 1 -0.333008 1 -1h1l-1 2zM1068 216l1 2zM567.002 338c1.33301 1.33301 1 2 -1 2l1 -1
l-1 -1h1zM1700 600c0.666992 0 1.16797 -0.166992 1.50098 -0.5s0.833008 -0.5 1.5 -0.5c-0.666992 0.666992 -1.33398 1 -2.00098 1v1zM822.003 474l1 -2l2 2h-3zM815.003 528c1.33301 1.33301 2.33301 2 3 2l1 3l-3 -2zM1185 522l10 8h-12zM1442 537l1 1.00195
c-2 -0.666992 -3.16699 -1.33398 -3.5 -2.00098s-1.16602 -1.33398 -2.49902 -2.00098h30l-10.5 2c-3.66699 0.666992 -7.83398 1 -12.501 1h-2zM996.003 630.002c-2 -2.66699 -4 -5.6709 -6 -9.00391s-4.66699 -6.66602 -8 -9.99902h4l1 1v1l1 1
c0 0.666992 0.333008 1.33398 1 2.00098v-1c0 0.666992 0.5 1.33398 1.5 2.00098s1.5 1.33398 1.5 2.00098l7 12c-0.666992 -0.666992 -1.66699 -1 -3 -1zM558.003 180.998l4 12l-19 -12h15zM1349 529.998l-17.002 0.00195312
c-2.66699 -2.66699 -5.16699 -5.33398 -7.5 -8.00098s-5.16602 -5.33398 -8.49902 -8.00098l5 3c5.33301 3.33301 8.83301 5.33301 10.5 6s3.83398 1.66699 6.50098 3zM966.001 404c7.33301 0 12.333 0.833008 15 2.5s5 4.16699 7 7.5c-13.333 -2 -22.333 -5.33301 -27 -10
h5zM495.001 321l7 23l-21 -23h14zM1564 414c-11.333 0 -18.999 -3.33203 -22.999 -9.99902c8 0 14.167 0.666992 18.5 2s8.16602 3.66602 11.499 6.99902c-2 0 -3.66699 0.166992 -5 0.5zM1577 576.001h15.001c3.33301 0 6.66602 4 9.99902 12l-22 -1l-1 -4zM1398 406.001
c1.33301 0 3.66797 2.66699 7.00098 8c-20.667 -1.33301 -35.334 -4 -44.001 -8h37zM892.005 262.001l-4.99805 0.000976562l2 5l1 4h2c0 2.66699 -0.666992 3.33398 -2 2.00098l1 1c-12.667 -2 -22.667 -7.66699 -30 -17h22c0 0.666992 0.166992 1.16699 0.5 1.5
s0.5 0.833008 0.5 1.5c1.33301 1.33301 2.66602 3.16602 3.99902 5.49902s2.66602 4.16602 3.99902 5.49902l2 -2zM960.007 593.002l-5.00098 -17h6c2.66699 2.66699 4.33398 5 5.00098 7c3.33301 3.33301 6.33301 7.33301 9 12s5.66699 9 9 13zM1480.01 271.002
c-12 -1.33301 -20.668 -3.83301 -26.001 -7.5s-9.66602 -9.16699 -12.999 -16.5c11.333 1.33301 19.5 3.83301 24.5 7.5s9.83301 9.16699 14.5 16.5zM1514 612.002c-16 -7.33301 -26 -15.333 -30 -24c0 -1.33301 0.333008 -2.83301 1 -4.5s1 -3.16699 1 -4.5v1
c0 -2 0.333008 -3.33301 1 -4h14c-1.33301 0.666992 -0.333008 5.66699 3 15c1.33301 3.33301 2.83301 6.83301 4.5 10.5s3.5 7.16699 5.5 10.5zM918.005 600.002l4.00098 3l7 22c-12.667 -4 -22.834 -11.833 -30.501 -23.5s-13.5 -23.167 -17.5 -34.5l7 1
c2 5.33301 5 11 9 17s11.333 11.333 22 16zM1654.01 572.002c1.33301 4.66699 3.5 9.5 6.5 14.5s11.167 10.167 24.5 15.5l6 21h-16l-31 -49h1c4 0 6.33301 -0.5 7 -1.5s1 -2.16699 1 -3.5zM1860.01 600.002c3.33301 3.33301 6.5 7.50195 9.5 12.502s5.16699 8.5 6.5 10.5
h-19l-3 -10l-26 -40h2c6.66699 0 11.667 1.66699 15 5s7 7.66602 11 12.999l-1 -1c0.666992 1.33301 1.16699 2.16602 1.5 2.49902l1.5 1.5c0 0.666992 0.333008 1.66699 1 3s1 2.33301 1 3zM1453.01 623.004c-12.667 -1.33301 -22.333 -7 -29 -17s-11.667 -20 -15 -30h15z
M1057.01 623.004h-12c-0.666992 0 -2.16699 -1.66699 -4.5 -5l-8 -12l-9.5 -15c-3.33301 -5.33301 -6 -10.333 -8 -15h22l10 31h6l2 7zM837.007 614.004c0.666992 1.33301 1.16699 2.66699 1.5 4s0.833008 3 1.5 5h-19l-3 -10l-25 -40h1c9.33301 0 17 4 23 12
s11.667 16.333 17 25v-2l1.5 3zM1372.01 626.005c-0.666992 -0.666992 -2.66797 -0.998047 -6.00098 -0.998047l-9 -30c-1.33301 -2.66699 -2.5 -4.83398 -3.5 -6.50098s-2.16699 -4.16699 -3.5 -7.5c-1.33301 -2.66699 -2.33301 -4.33398 -3 -5.00098h11l-4 -5
c5.33301 6 9.33301 10.667 12 14s4.66699 6.16602 6 8.49902l3.5 6c1 1.66699 2.5 3.83398 4.5 6.50098c1.33301 1.33301 3.33301 4.5 6 9.5s5.33398 9.5 8.00098 13.5c-0.666992 -0.666992 -2.66699 -1 -6 -1h-5c-1.33301 0 -2.33301 -0.166992 -3 -0.5
s-1.66699 -0.5 -3 -0.5c-0.666992 0 -1.5 -0.166992 -2.5 -0.5s-1.83301 -0.5 -2.5 -0.5zM1744.01 600.007l-7.5 -4.5c-1.66699 -1 -3.16699 -1.83301 -4.5 -2.5l-7 -25c13.333 3.33301 23.5 9.83301 30.5 19.5s13.167 20.167 18.5 31.5l1 4h-16l3 2
c-3.33301 -2 -7 -6.33301 -11 -13s-6.33301 -10.667 -7 -12zM1993.01 613.007c1.33301 4.66699 -0.333984 8.16699 -5.00098 10.5s-10.667 4.16602 -18 5.49902c1.33301 -4.66699 1.83301 -8.83398 1.5 -12.501s0.166992 -7.16699 1.5 -10.5l1 1
c0 -1.33301 -0.166992 -2.16602 -0.5 -2.49902s-0.5 -1.16602 -0.5 -2.49902c0.666992 -4.66699 0.833984 -9.5 0.500977 -14.5s-0.5 -10.833 -0.5 -17.5c13.333 3.33301 28 11 44 23c-1.33301 -0.666992 -5 -1 -11 -1l-17 5zM1761.01 323.007
c-6 -2.66699 -11.668 -5.83105 -17.001 -9.49805s-9.66602 -6.83398 -12.999 -9.50098l-14 -47h31c3.33301 11.333 6 22.166 8 32.499s3.66699 21.5 5 33.5zM1275 623.01h-54.0029c-5.33301 0 -10.833 -6.16699 -16.5 -18.5l-16.5 -34.5c10 3.33301 17.833 9.5 23.5 18.5
s11.5 19.5 17.5 31.5c14.667 -6.66699 22.834 -13.334 24.501 -20.001s1.83398 -12.667 0.500977 -18v-3l2 -4c0.666992 -1.33301 4.66699 -2 12 -2h8l-1 -2l82 52h-12l3 1l-10 -5c-4 -2 -8.66699 -4.66699 -14 -8c-3.33301 -2 -6 -3.66699 -8 -5
s-4.33301 -2.66602 -7 -3.99902l-3 -2c-6.66699 -4.66699 -13 -7 -19 -7c-4 0 -6.66699 0.333008 -8 1s-4.66602 3.66699 -9.99902 9zM1858 525.01c1.33301 0 5 0.999023 11 2.99902s10 4 12 6h39l5 15c1.33301 4.66699 2.66602 9.83398 3.99902 15.501
s1.83301 10.667 1.5 15s-2.16602 8 -5.49902 11s-8.66602 4.5 -15.999 4.5c-2 0 -3 1 -3 3l-49 -68h-12c5.33301 -3.33301 9.66602 -5 12.999 -5zM1720 469.009c15.333 0 24.833 -1.83203 28.5 -5.49902s3.5 -12.5 -0.5 -26.5c-3.33301 -10.667 -8 -21.5 -14 -32.5
s-13.833 -21 -23.5 -30s-21 -16.333 -34 -22s-28.5 -8.5 -46.5 -8.5c3.33301 10.667 8 22.167 14 34.5s12.5 24 19.5 35s14 21.167 21 30.5s13.167 16.666 18.5 21.999zM1685 184.01c0 -0.666992 -0.666992 -1.66602 -2 -2.99902h103c5.33301 0 10.833 3 16.5 9s11 13 16 21
s9.33301 16 13 24s6.5 14 8.5 18l33 165l5 16l1.5 3l1.5 3l3 13l24 20h79l-2 -2l-1 -3c1.33301 2.66699 2.33301 4.33398 3 5.00098c0 1.33301 1.66699 3.66602 5 6.99902h-114c-5.33301 0 -10.333 -2.5 -15 -7.5s-9 -11 -13 -18s-7.33301 -14.167 -10 -21.5
s-4.66699 -13.333 -6 -18l-3 -11l-36 -153l-12 -39l-24 -15h-71c0.666992 -0.666992 1 -1.33398 1 -2.00098l-1 -1zM889.002 379.011l13.502 21.4951l17 26l15.5 22.5c4.66699 6.66699 7.66699 10.667 9 12l-1 -2l15 14h68l4 7h-109l-198 -299h108c6 0 10.667 4 14 12
c-2 0 -4 0.166992 -6 0.5s-3.33301 0.5 -4 0.5c-6.66699 0 -13.167 0.333008 -19.5 1s-11.833 2 -16.5 4s-8 5 -10 9s-2 9.33301 0 16l2 4c2 6 9.33301 17.333 22 34v-1c3.33301 8.66699 5 12.334 5 11.001c3.33301 3.33301 5.66602 6.33301 6.99902 9s2.66602 5 3.99902 7
c8 12 14.333 20.667 19 26s9 10 13 14h69l-1 -2l-1 -3c0 0.666992 0.333008 1.33398 1 2.00098s1 1.33398 1 2.00098l8 12l-1 -1c3.33301 5.33301 5 8.33301 5 9l1 3h-55c-0.666992 4.66699 -1.16699 8.33398 -1.5 11.001s-0.5 4.33398 -0.5 5.00098
c0 2.66699 0.333008 5 1 7zM1607 476.006l3.99902 3.99805h-106l-199 -299h112c2 0 3.83301 1.16699 5.5 3.5s3.16699 4.83301 4.5 7.5c-5.33301 0.666992 -11.5 1.5 -18.5 2.5s-13.333 2.66699 -19 5s-10 5.66602 -13 9.99902s-3.5 10.166 -1.5 17.499l4 12
c2.66699 4.66699 6.83398 10.834 12.501 18.501l17.5 23l17.5 21.5c5.66699 6.66699 10.167 11.667 13.5 15l3 7h71c1.33301 0 3.33301 2.5 6 7.5s5 10.167 7 15.5h-59c6.66699 20.667 13.5 38.834 20.5 54.501s15.5 28.834 25.5 39.501s22.333 18.834 37 24.501
s33 9.16699 55 10.5zM1122 206.004c-2 -6 -1.99805 -10.667 0.00195312 -14s5 -5.83301 9 -7.5s8.5 -2.83398 13.5 -3.50098s9.83301 -1 14.5 -1c9.33301 -0.666992 17.5 -1.83398 24.5 -3.50098s11.5 -6.16699 13.5 -13.5v3c1.33301 0 5.5 0.833008 12.5 2.5
s14.833 3.83398 23.5 6.50098l-1 -2v-1c5.33301 3.33301 9 5 11 5l-1 -1l8 3l106 169c-17.333 0 -31.333 -1.16699 -42 -3.5s-18.667 -7.83301 -24 -16.5h10c-2.66699 -8.66699 -7 -20.334 -13 -35.001s-13.167 -29.167 -21.5 -43.5s-17.5 -26.666 -27.5 -36.999
s-20.333 -15.5 -31 -15.5c-12.667 0 -23.167 3.16699 -31.5 9.5s-10.5 15.833 -6.5 28.5l1 3c0 0.666992 0.666992 1.66699 2 3l1 5l7 10.5c3.33301 5 7 10.833 11 17.5l9.5 13.5c3 4.33301 6.16699 9.16602 9.5 14.499l27 39.5c8.66699 13 15.667 22.167 21 27.5v-1
c8 12 18.5 24.5 31.5 37.5s27.5 24.833 43.5 35.5s32.833 19.334 50.5 26.001s35.5 10 53.5 10l5 -1l0.5 1l1.5 3h-88l2 2l-14 -8.5l-19.5 -12l-20.5 -13c-6.66699 -4.33301 -12 -8.16602 -16 -11.499c-13.333 -10 -24.333 -19.5 -33 -28.5s-16.667 -19.167 -24 -30.5
l-102 -154v-2c-0.666992 -1.33301 -1.33398 -2.33301 -2.00098 -3s-1.33398 -1.66699 -2.00098 -3zM707.005 345.004l41.998 135.001h-32l-93 -303c3.33301 0 5.33301 0.333008 6 1c2 0.666992 4.66699 1 8 1h6c2 0 4.5 0.166992 7.5 0.5s6.83301 0.833008 11.5 1.5l200 299
h-30c-1.33301 -2.66699 -2.66602 -4.33398 -3.99902 -5.00098s-2.66602 -1.66699 -3.99902 -3c0 -1.33301 -1 -2.33301 -3 -3l1 1l-22.5 -28.5l-29 -38l-27 -36.5c-8.33301 -11.333 -13.833 -19.333 -16.5 -24zM1086 347.005l41.001 133.002h-43l-193 -299h30l93 137l38 18
l-47 -153l7.5 -1.5c1.66699 -0.333008 2.83398 -0.5 3.50098 -0.5h8l9 -4l-1 1c6.66699 0 12.167 2.66699 16.5 8s8.16602 10.666 11.499 15.999l-1 -1c2 2 3 3.66699 3 5c4 5.33301 6.33301 9.33301 7 12l30.5 49l47 73l50.5 77.5l41 62.5h-30
c-4 -4.66699 -10.333 -13.334 -19 -26.001l-26.5 -40l-25 -40c-7.66699 -12.667 -12.834 -21.667 -15.501 -27h-36zM1806 480.007h-133.001l4 5c-3.33301 -4.66699 -6.16602 -8 -8.49902 -10l-3.5 -3c-2 -2.66699 -3.33301 -5.33398 -4 -8.00098h-1
c-4.66699 -5.33301 -8.83398 -11.166 -12.501 -17.499s-5.83398 -10.166 -6.50098 -11.499l-30.5 -45l-36 -54l-37 -56l-33 -50.5l-23.5 -36.5c-6 -9.33301 -9 -14.333 -9 -15v-1l40 4c4 6.66699 9.83301 15.834 17.5 27.501l24 35l23 32c7 9.66699 11.833 16.167 14.5 19.5
v-1c1.33301 3.33301 7.33301 9 18 17s20.334 14 29.001 18l-47 -151h25c2 -0.666992 5 -1 9 -1c3.33301 0 6.33301 -0.333008 9 -1s3.33398 -2.66699 2.00098 -6l54 178c18.667 2 35 8 49 18c1.33301 3.33301 2.83301 5.83301 4.5 7.5l4.5 4.5
c14.667 19.333 26 35.166 34 47.499s14.667 26.166 20 41.499zM585.003 323.007l12 -14l105 341h-46l3 5l-538 -603h60l-3 -4l178 188h163l-1 -2l33 21l-21 22l-9 -9h-149l213 230l17 -3l-44 -144c0 -2 2.33301 -5.33301 7 -10l1 -1c0 -0.666992 0.333008 -1 1 -1v-1h3z
M643.003 703.007l132.006 -0.00488281l-51 -167h10c3.33301 11.333 6.16602 20 8.49902 26s5.16602 11 8.49902 15c0.666992 0.666992 1.33398 1 2.00098 1c0 0.666992 0.333008 1.33398 1 2.00098s1 1.33398 1 2.00098c2.66699 6.66699 5.66699 11.667 9 15
c-4.66699 1.33301 -8.33398 3.5 -11.001 6.5s-3 8.16699 -1 15.5l3 8l22 41h402c-2 -6.66699 -6.83301 -16.5 -14.5 -29.5l-25 -40.5c-9 -14 -18 -27 -27 -39s-15.833 -20.333 -20.5 -25h36c3.33301 8.66699 9.33301 20.5 18 35.5s18 29.833 28 44.5
s19.167 27.334 27.5 38.001s13.833 16 16.5 16h102l3 -12l26 12h170l-2 -7l15.5 2.5c6.33301 1 11.166 2.5 14.499 4.5h481l4 -12l25 12h130c-2.66699 -2 -7.66699 -5.33301 -15 -10l-23 -14.5l-22 -13.5c-6.66699 -4 -10.334 -6.33301 -11 -7l1 1
c-20 -11.333 -39.833 -24.333 -59.5 -39s-35.167 -31.667 -46.5 -51h67l-46 -76l-18 -23c-1.33301 -4 -3.16602 -7.16699 -5.49902 -9.5s-7.5 -6.16602 -15.5 -11.499h-70l-6 -17c-0.666992 -1.33301 -1.5 -4.5 -2.5 -9.5s-1.5 -11.167 -1.5 -18.5
c-0.666992 -3.33301 -1.33398 -7 -2.00098 -11l-2 -12l-6 -42c-2 -13.333 -3.66699 -22 -5 -26l-7 -23c-2.66699 -8.66699 -7.33398 -20.167 -14.001 -34.5s-15.167 -28.5 -25.5 -42.5s-22.333 -26 -36 -36s-28.834 -15 -45.501 -15h-232l-3 8l-14 -12h-290l-111 -29l5 16
c0.666992 2 1.5 4.33301 2.5 7s1.5 4.33398 1.5 5.00098l1 2c-0.666992 2.66699 -3.33398 5 -8.00098 7s-10.167 3.83301 -16.5 5.5s-12.833 3 -19.5 4s-12 1.5 -16 1.5c-1.33301 -1.33301 -2 -3 -2 -5s-0.333008 -3.33301 -1 -4l-2 -6h-126l1 4
c-4.66699 -2.66699 -8.66699 -4 -12 -4h-490l18 58h-87l-176 -185h-175z" />
    <glyph glyph-name="FL00B7h" unicode="&#xb7;" 
d="M93 223h144l34 109h-144z" />
    <glyph glyph-name="FL00BAh" unicode="&#xb8;" horiz-adv-x="192" 
d="M-25 -20h49l15 48h131l-53 -171h-180z" />
    <glyph glyph-name="FL00BCh" unicode="&#xb9;" horiz-adv-x="157" 
d="M202 605h30l-80 -263h79l104 342h-73z" />
    <glyph glyph-name="FL00BDh" unicode="&#xba;" horiz-adv-x="249" 
d="M388 684l-113 0.000976562c-8 0 -17 -3.83301 -27 -11.5s-17.333 -13.834 -22 -18.501l-86 -282c0.666992 -5.33301 3.83398 -11.833 9.50098 -19.5s12.5 -11.5 20.5 -11.5h113c7.33301 0 16.166 3.83301 26.499 11.5s17.833 14.167 22.5 19.5l86 282
c-1.33301 4 -4.83301 10 -10.5 18s-12.167 12 -19.5 12zM294 603.001c0.666992 1.33301 1.16699 2.16699 1.5 2.5l1.5 1.5h16l0.5 -0.5c0.333008 -0.333008 1.5 -0.833008 3.5 -1.5v-1c0.666992 0 0.666992 -0.333008 0 -1h1v2l1 -1l-57 -186
c-0.666992 -0.666992 -3.33398 -1 -8.00098 -1h-8c-5.33301 0 -7.66602 0.333008 -6.99902 1h-1z" />
    <glyph glyph-name="FL00BBh" unicode="&#xbb;" horiz-adv-x="348" 
d="M125 321l-42 -137l172 90l-28 -90l174 91l39 128l-118 92l-27 -91l-117 91l-42 -139l21 -17zM301 339l-30 -17l11 33z" />
    <glyph glyph-name="FL00C7h" unicode="&#xbc;" horiz-adv-x="514" 
d="M239 603l-38 0.000976562l69 82h86l-104 -340l127 180c2.66699 6 5 9.33301 7 10l-1 -1l1 1c0.666992 0 1 0.333008 1 1c2 2.66699 3 5.33398 3 8.00098c0.666992 0.666992 1 2 1 4s0.333008 3.33301 1 4l40 133h132l-52 -172l-110 -155h74l-40 -133h28l40 133h88
l-109 -358h-88l43 141h-118l54 176l-115 -163l-47 -154h-131l33 107c3.33301 10.667 6.83301 21 10.5 31l8.5 23l2 5c2 7.33301 3.5 12 4.5 14s3.5 5.66699 7.5 11l7 12l1 -1c2 3.33301 4 7.16602 6 11.499s3.66699 7.16602 5 8.49902l74 105h-85z" />
    <glyph glyph-name="FL00BEh" unicode="&#xbd;" horiz-adv-x="484" 
d="M239 603l-38 -0.00390625l69 82h86l-104 -340l127 180c2.66699 6 5 9.33301 7 10l-1 -1l1 1c0.666992 0 1 0.333008 1 1c2 2.66699 3 5.33398 3 8.00098c0.666992 0.666992 1 2 1 4s0.333008 3.33301 1 4l40 133h131l-52 -171l-111 -156h125
c9.33301 0 14.5 -4.83301 15.5 -14.5s1.5 -19.5 1.5 -29.5c1.33301 -3.33301 1.66602 -6.66602 0.999023 -9.99902s-0.666992 -6 0 -8l-10 -33l-139 -178l-1 -3h85l-25 -82h-148c-10.667 0 -16.667 4.83301 -18 14.5s-0.666016 18.5 2.00098 26.5l6 20
c0.666992 2.66699 1.5 5.16699 2.5 7.5s1.83301 4.83301 2.5 7.5l6 18c2 8 4.66699 12.667 8 14v-1l4 7l0.5 1.5c0.333008 1 0.833008 2.16699 1.5 3.5l125 154c0.666992 0.666992 1.16699 1.33398 1.5 2.00098s0.833008 1.33398 1.5 2.00098h-87l11 37l-114 -161l-47 -153
h-130l33 107c3.33301 10.667 6.83301 21 10.5 31l8.5 23l2 5c2 7.33301 3.5 12 4.5 14s3.5 5.66699 7.5 11l6 10v-1c1.33301 3.33301 3.5 7.33301 6.5 12l6.5 10l74 105h-85z" />
    <glyph glyph-name="FL00C8h" unicode="&#xbe;" horiz-adv-x="570" 
d="M266 0l46.9961 153l115 164l-54 -176h119l-43 -141h89l109 358h-89l-40 -133h-28l40 133h-75l110 156l52 171h-132l-40 -133c-0.666992 -0.666992 -1 -2 -1 -4s-0.333008 -3.33301 -1 -4c0 -2.66699 -1 -5.33398 -3 -8.00098c0 -0.666992 -0.333008 -1.16699 -1 -1.5
s-1 -0.833008 -1 -1.5l-1 -2c0 -0.666992 -0.666992 -1.66699 -2 -3l1 3c-1.33301 -1.33301 -2.33301 -3 -3 -5l-111 -157l36 119c-1.33301 4 -2 7 -2 9s-0.666992 4.33301 -2 7c2.66699 2.66699 5 5.83398 7 9.50098s4.66699 8.16699 8 13.5l39 128
c-1.33301 4.66699 -5.16602 10.834 -11.499 18.501s-13.166 11.5 -20.499 11.5h-141l-24 -79h84c4.66699 0 7.33398 -0.333008 8.00098 -1l-16 -53h-92l-26 -84h92l-19 -62c0 0.666992 -2.66699 1 -8 1h-84l-24 -80h141c4.66699 0 10.834 2.16699 18.501 6.5
s14.167 9.16602 19.5 14.499l-87 -125c0 -0.666992 -0.666992 -1.66699 -2 -3c-0.666992 -4 -3 -8.66699 -7 -14l-1.5 -3l-1.5 -3v1l-6 -10c-4 -5.33301 -6.5 -9 -7.5 -11s-2.5 -6.66699 -4.5 -14l-2 -5l-8.5 -23c-3.66699 -10 -7.16699 -20.333 -10.5 -31l-33 -107h131z
" />
    <glyph glyph-name="FL00BFh" unicode="&#xbf;" horiz-adv-x="386" 
d="M373 534l-293.999 -364l-35 -113l3 -8c0 -2 1 -4 3 -6v3c3.33301 -11.333 7.33301 -21.833 12 -31.5s14 -14.5 28 -14.5h265l40 131h-175l4 10.5c1.33301 3.66699 3 6.5 5 8.5v2c0.666992 1.33301 1.5 2.33301 2.5 3s1.83301 1.33398 2.5 2.00098l2 5l238 299
c3.33301 5.33301 7.33301 11 12 17l12 15h-3l1 1v1l1 1l2 2c5.33301 7.33301 8.66602 13.666 9.99902 18.999l5 17h-141zM564.001 685h-156l-41 -135h156z" />
    <glyph glyph-name="FL00C0h" unicode="&#xc0;" horiz-adv-x="640" 
d="M362 201h95l-5 56l20 -16l5 139zM717 728h-176l-84 139h175zM476 46l136 92l-20 15l3 -17l-135 -86l1 27h-167l-152 -237h-170l540 855h117l-9 -552l2 2l-8 -145h-157z" />
    <glyph glyph-name="FL00C1h" unicode="&#xc1;" horiz-adv-x="640" 
d="M622 145l-2 -2l9 552h-117l-540 -855h170l152 237h167l-1 -27l135 86l-3 17l20 -15l-136 -92l-19 -46h157zM431 726h175l169 139h-175zM477 380l-5 -139l-20 16l5 -56h-95z" />
    <glyph glyph-name="FL00C2h" unicode="&#xc2;" horiz-adv-x="640" 
d="M362 201h95l-5 56l20 -16l5 139zM585 759l-37 -30h-175l169 139h151l85 -139h-175zM476 46l136 92l-20 15l3 -17l-135 -86l1 27h-167l-152 -237h-170l540 855h117l-9 -552l2 2l-8 -145h-157z" />
    <glyph glyph-name="FL00C3h" unicode="&#xc3;" horiz-adv-x="640" 
d="M362 201h95l-5 56l20 -16l5 139zM544 754l-33 -28h-146l150 139h126l12 -30l33 30h147l-149 -139h-126zM476 46l136 92l-20 15l3 -17l-135 -86l1 27h-167l-152 -237h-170l540 855h117l-9 -552l2 2l-8 -145h-157z" />
    <glyph glyph-name="FL00C4h" unicode="&#xc4;" horiz-adv-x="640" 
d="M622 145l-2 -2l9 552h-117l-540 -855h170l152 237h167l-1 -27l135 86l-3 17l20 -15l-136 -92l-19 -46h157zM612 728h162l41 137h-162zM386 728h161l41 137h-161zM477 380l-5 -139l-20 16l5 -56h-95z" />
    <glyph glyph-name="FL00C5h" unicode="&#xc5;" horiz-adv-x="640" 
d="M622 145l-2 -2l9 552h-117l-540 -855h170l152 237h167l-1 -27l135 86l-3 17l20 -15l-136 -92l-19 -46h157zM498 727h161l42 137h-161zM477 380l-5 -139l-20 16l5 -56h-95z" />
    <glyph glyph-name="FL00C6h" unicode="&#xc6;" horiz-adv-x="1032" 
d="M627 541l-181 -290h167l5 59l124 -109l5 15l-116 100l-4 11v214zM-50 -232l715.998 1159h151l-14 -528l91 298h320l-41 -133h-150l-41 -136h147l-44 -142h-151l-45 -149h154l-42 -137h-387l6 18c0.666992 3.33301 1.33398 5.83301 2.00098 7.5
s1.33398 3.16699 2.00098 4.5l1 2c0.666992 1.33301 1.5 2.83301 2.5 4.5s1.83301 3.16699 2.5 4.5l83 65l11 36l-108 -77l2 34h-250l-212 -331h-206z" />
    <glyph glyph-name="h" unicode="&#xc7;" horiz-adv-x="772" 
d="M786 669l1 1zM785 668l1 1zM348 270l1 1zM745 749c-0.666992 0 -1 -0.333008 -1 -1zM394 468h1v-1zM543 243c0 0.666992 -0.332031 0.666992 -0.999023 0s-1.33398 -1.66699 -2.00098 -3l-1 -5zM755.001 753c-4 -0.666992 -6.66699 -1.66895 -8 -3.00195h-1l-1 -1
c1.33301 0.666992 3 1.33398 5 2.00098s3.66699 1.33398 5 2.00098zM719.001 738.998c-2 -0.666992 -4.16699 -1.16699 -6.5 -1.5s-6.5 -1.83301 -12.5 -4.5c0.666992 0.666992 4 1 10 1v-2l2 2l8 5h-1zM657.001 716.998c-5.33301 -2 -10.333 -4 -15 -6
s-9.66699 -3.66699 -15 -5l20 1c1.33301 2 3.33301 4 6 6s5 3.66699 7 5c-0.666992 -0.666992 -1.66699 -1 -3 -1zM746.001 383.998l-0.999023 2c2 -0.666992 3.33301 -1.5 4 -2.5s1.66699 -2.16699 3 -3.5l11 13v-2c3.33301 3.33301 6.66602 7.5 9.99902 12.5
s7 9.16699 11 12.5c4.66699 4 10 9.5 16 16.5s11.667 14.5 17 22.5l15 23c4.66699 7.33301 7.66699 13 9 17c2 6.66699 3 13.334 3 20.001c0.666992 0.666992 0.833984 1.5 0.500977 2.5s-0.166016 2.16699 0.500977 3.5v-1c0 1.33301 0.166992 3.33301 0.5 6
s1.5 7.33398 3.5 14.001c-1.33301 5.33301 -2.66602 11.833 -3.99902 19.5s-2 14.167 -2 19.5c-2.66699 6.66699 -5.33398 15.167 -8.00098 25.5s-4.66699 18.5 -6 24.5l-1 -1c-1.33301 2 -1.83301 4.5 -1.5 7.5s0.166016 5.5 -0.500977 7.5l-5 12v-1
c-3.33301 5.33301 -5.5 10.833 -6.5 16.5l-3.5 20.5c-5.33301 -1.33301 -9.83301 -4.16602 -13.5 -8.49902l-10.5 -12.5l-1 -1l-14 -12l-16 -10c-7.33301 -4.66699 -15.333 -9.16699 -24 -13.5l-24.5 -12c-7.66699 -3.66699 -13.167 -5.5 -16.5 -5.5l2 1
c-13.333 -2.66699 -21.333 -4.33398 -24 -5.00098l-39 -8.5c-13.333 -3 -22 -7.16699 -26 -12.5l2 -1l-1 -24c2 -1.33301 4.33301 -2.66602 7 -3.99902l8 -4c0 -1.33301 1.66699 -2 5 -2l8 -7l-14 -45h-1c2.66699 -2.66699 5 -4.83398 7 -6.50098s4 -3.16699 6 -4.5
c0 -0.666992 1.66699 -2.5 5 -5.5l11 -10c4 -3.66699 7.83301 -6.83398 11.5 -9.50098s5.83398 -4.33398 6.50098 -5.00098v1c3.33301 -1.33301 6.66602 -5 9.99902 -11s5.66602 -10.667 6.99902 -14v3c6 -2 12.833 -6.33301 20.5 -13s14.167 -13 19.5 -19zM562.002 775.998
c-2.66699 -10.667 -4 -22 -4 -34v1c0 -1.33301 -0.333008 -2.83301 -1 -4.5s-1 -3.16699 -1 -4.5c-0.666992 -3.33301 -0.833984 -7.16602 -0.500977 -11.499s-0.166992 -8.16602 -1.5 -11.499v-1c3.33301 1.33301 6.5 2.66602 9.5 3.99902s5.5 2.66602 7.5 3.99902
c0.666992 0.666992 1.66699 1 3 1c0.666992 0 1.33398 0.333008 2.00098 1c5.33301 2.66699 9.83301 5 13.5 7s5.83398 3 6.50098 3v-1l60.5 20.5l62.5 22.5v-1c5.33301 2 9.66602 3.83301 12.999 5.5l5 2.5c2.66699 0.666992 5.66699 1.66699 9 3l10 4l23 9h1
c0 0.666992 0.666992 1 2 1l-2 -1c2 0.666992 3.66699 0.333984 5 -0.999023l5 16c-1.33301 4 -2.83301 9.16699 -4.5 15.5s-3.16699 13 -4.5 20s-2.33301 13.5 -3 19.5s-0.666992 10 0 12v-2l-17 27.5c-8 13 -15.667 24.5 -23 34.5c-6.66699 4.66699 -14.667 10 -24 16
s-19.333 11.833 -30 17.5s-21.667 10.667 -33 15s-22 7.16602 -32 8.49902l-110 -229l3 -2h3c4.66699 -2.66699 9.33398 -4 14.001 -4c3.33301 11.333 10.666 17 21.999 17h11zM650.002 -1.00195c-12 0 -20.835 2.83301 -26.502 8.5s-9.33398 12.667 -11.001 21
s-1.66699 17.333 0 27s3.83398 18.834 6.50098 27.501l-3 3c4.66699 18.667 5.66699 34.667 3 48l1 -5c-1.33301 0 -2.16602 -0.166992 -2.49902 -0.5s-0.833008 -0.5 -1.5 -0.5l1 1c-1.33301 -1.33301 -2.83301 -2.16602 -4.5 -2.49902l-2.5 -0.5l-3 -1
c-3.33301 -1.33301 -5.33301 -2.16602 -6 -2.49902s-2 -0.5 -4 -0.5c-19.333 0 -26.333 9.66699 -21 29c0 2 0.5 5.83301 1.5 11.5s2.5 11.167 4.5 16.5c-4 1.33301 -6.66699 3.33301 -8 6s-2.66602 4.66699 -3.99902 6l1 -2l-14 16h-1c0 0.666992 -0.333008 1 -1 1l-2 3
c-3.33301 3.33301 -6.66602 7 -9.99902 11s-5.66602 8 -6.99902 12v1c0 0.666992 -0.5 2.83398 -1.5 6.50098s-1.5 6.5 -1.5 8.5c-1.33301 4 -2.33301 8 -3 12s-1.66699 7.66699 -3 11c0 -1.33301 -0.833008 -0.5 -2.5 2.5s-3.16699 5.5 -4.5 7.5v-1
c-3.33301 4.66699 -7.33301 10 -12 16s-9.66699 11.667 -15 17l-1 -8c-4.66699 -14.667 -10.834 -24 -18.501 -28s-17.834 -6 -30.501 -6c-8.66699 0 -15.667 1.66699 -21 5l1 -1c-0.666992 0 -1.16699 0.166992 -1.5 0.5s-0.833008 0.5 -1.5 0.5
c-1.33301 0 -3 1.33301 -5 4l-1 -1h-4l2 2l-25 -16c-2 -0.666992 -5.66699 -1 -11 -1l-29 5l-5 -16h-13c-8 0 -13.5 3.33301 -16.5 10s-3.16699 13.667 -0.5 21v2c-10 -1.33301 -16 -2.33301 -18 -3l2 2c-7.33301 -5.33301 -12.333 -8.33301 -15 -9
c3.33301 -5.33301 4.33301 -11.666 3 -18.999l-2 -5c-0.666992 -1.33301 -0.833984 -2.66602 -0.500977 -3.99902l2.5 -10v1l0.5 -0.5c0.333008 -0.333008 1.5 -0.5 3.5 -0.5l2 -4c4 -4.66699 6.16699 -10.834 6.5 -18.501s-0.166992 -15.167 -1.5 -22.5l-1 -4
c-0.666992 -1.33301 -1 -3 -1 -5l1 2l9 -4c1.33301 -1.33301 3 -4.16602 5 -8.49902s4 -9 6 -14s3.5 -9.83301 4.5 -14.5s1.16699 -8.33398 0.5 -11.001c-4 -12 -9.33301 -21 -16 -27l-2 -2c-1.33301 -1.33301 -2 -1 -2 1c-4.66699 -7.33301 -8.83398 -13.333 -12.501 -18
s-7.66699 -8.83398 -12 -12.501s-9.16602 -7 -14.499 -10l-19 -10.5l-15 -10l-4.5 -1.5c-1 -0.333008 -3.16699 -1.5 -6.5 -3.5h-46c-8 0 -13.167 3.16699 -15.5 9.5s-2.5 13.166 -0.5 20.499c3.33301 9.33301 8.16602 16.166 14.499 20.499s13.5 7.83301 21.5 10.5
c0.666992 0.666992 2 1.5 4 2.5s4.33301 2.5 7 4.5h1c0 0.666992 0.333008 1 1 1l-1 -1l6 3c2.66699 1.33301 5.66699 2.66602 9 3.99902l4 14c0 1.33301 -0.666992 2.66602 -2 3.99902c-8.66699 -2.66699 -14 -5 -16 -7c-7.33301 -4 -14.5 -7.66699 -21.5 -11
s-14.167 -5 -21.5 -5c-18 0 -24 9.33301 -18 28l16 41v3l2 9v18c0 1.33301 0.833008 6 2.5 14s2.5 13.333 2.5 16c0.666992 1.33301 0.833984 5.5 0.500977 12.5s-2.16602 11.5 -5.49902 13.5l17 54c1.33301 0 3.33301 1 6 3s5.5 4.33301 8.5 7l8.5 7.5
c2.66699 2.33301 4.66699 3.83301 6 4.5c15.333 14 31.666 25.667 48.999 35s35.666 17.666 54.999 24.999l-1 -1c4 1.33301 7 3 9 5l11 3l1 3c4.66699 1.33301 8.16699 2.16602 10.5 2.49902s4.5 0.833008 6.5 1.5c2.66699 0 5.16699 0.166992 7.5 0.5s4.5 0.5 6.5 0.5
c0.666992 0 1.33398 0.166992 2.00098 0.5s1.33398 0.5 2.00098 0.5c10.667 1.33301 20.334 2.66602 29.001 3.99902s13.667 4.33301 15 9c1.33301 4 2.16602 8.16699 2.49902 12.5s0.5 9.16602 0.5 14.499c0 0.666992 -1.33301 1.83398 -4 3.50098l-7 4.5
c-0.666992 0.666992 -1.66699 1.33398 -3 2.00098s-2.33301 1.33398 -3 2.00098v-1c-4 1.33301 -7.66699 2.5 -11 3.5s-7.66602 3.5 -12.999 7.5l2 5c-1.33301 -1.33301 -2.33301 0 -3 4s-1 8.33301 -1 13c-0.666992 4 -1.66699 8 -3 12s-2.33301 8 -3 12l-1 -1l-2 11.5
c-0.666992 3.66699 -1.66699 7.16699 -3 10.5c-4.66699 0 -8.33398 -1 -11.001 -3l-6 -2c-8 -3.33301 -13.333 -5 -16 -5l-19 -3c-8 -1.33301 -15.667 -2.5 -23 -3.5s-15.666 -1.5 -24.999 -1.5c-8 0 -15 0.166992 -21 0.5s-16 1.5 -30 3.5c-0.666992 0.666992 -1 3 -1 7v14
v13v6c1.33301 1.33301 2.66602 3 3.99902 5s2.66602 4.33301 3.99902 7c1.33301 1.33301 1.83301 2.16602 1.5 2.49902s0.166992 1.16602 1.5 2.49902v-1c6.66699 8.66699 13.5 17 20.5 25s16.5 13.333 28.5 16c0 -0.666992 3.33301 -0.666992 10 0
s12.334 1.33398 17.001 2.00098c3.33301 0 6.5 0.166992 9.5 0.5s5.83301 0.5 8.5 0.5l-1 -2c2 2 4.33301 3 7 3c0.666992 0 1.33398 0.166992 2.00098 0.5s2 0.5 4 0.5c0.666992 0 1.5 0.166992 2.5 0.5s1.83301 0.5 2.5 0.5c3.33301 0.666992 6.5 1.33398 9.5 2.00098
s5.16699 0.666992 6.5 0l3 9c1.33301 4.66699 4.83301 10.167 10.5 16.5s12.334 12.333 20.001 18s15.5 10.667 23.5 15s15 6.83301 21 7.5l17 57l20 2c0 -1.33301 1 -2.83301 3 -4.5s4 -2.83398 6 -3.50098l-1 1c1.33301 0 2.66602 -0.5 3.99902 -1.5
s2.33301 -1.83301 3 -2.5l101 214l1 4l5.5 14.5c1.66699 4.33301 3.83398 8.16602 6.50098 11.499l2 4c-1.33301 3.33301 -1 8 1 14v1c4 12.667 11.333 19 22 19h1c2 0 5 -0.5 9 -1.5s9.33301 -2.16699 16 -3.5c3.33301 -0.666992 5.66602 -1.16699 6.99902 -1.5l2 -0.5
l-1 -1c-0.666992 0 -0.166992 -0.166992 1.5 -0.5l7.5 -1.5v1c62.667 -6.66699 110.334 -27.5 143.001 -62.5s50.667 -78.5 54 -130.5c10 6 19 10 27 12s15.667 3 23 3h20c-3.33301 -10 -8 -19.5 -14 -28.5s-12.333 -16.167 -19 -21.5c4 -4 6.33301 -6.66699 7 -8l-4 -13
c0 -1.33301 -0.166992 -2.66602 -0.5 -3.99902s-0.5 -2.33301 -0.5 -3l-0.5 -3l-1.5 -9l2 -1.5c1.33301 -1 2.66602 -3.16699 3.99902 -6.5l-2 -6c-2 -6 -4.66699 -10.5 -8 -13.5s-6.66602 -5.5 -9.99902 -7.5l2 2l-3 -3c-1.33301 -5.33301 -3 -12.5 -5 -21.5
s-2.66699 -13.5 -2 -13.5l23 -17c2.66699 -4 5.5 -11.167 8.5 -21.5s5.5 -21.5 7.5 -33.5s3.16699 -23.667 3.5 -35s-0.166992 -19.666 -1.5 -24.999l-20 -66c-2 -7.33301 -9 -18.833 -21 -34.5s-25.833 -31.5 -41.5 -47.5s-31.334 -30.167 -47.001 -42.5
s-27.834 -18.5 -36.501 -18.5c-6.66699 0 -11.5 2.5 -14.5 7.5s-4.5 11.5 -4.5 19.5c-10.667 6.66699 -22.167 14.667 -34.5 24s-21.166 17 -26.499 23l-1 -2c-6.66699 2 -13.5 6 -20.5 12s-13.5 13.333 -19.5 22l-5 5l-1 -2c2.66699 -8 5.66699 -15.833 9 -23.5
s8.66602 -15.834 15.999 -24.501l-9 -50c-0.666992 -0.666992 -0.833984 -1.33398 -0.500977 -2.00098s0.166016 -1.66699 -0.500977 -3v1c-0.666992 -1.33301 -1 -3 -1 -5v-2c4.66699 -4.66699 11 -7.66699 19 -9c0.666992 0 1.16699 -0.166992 1.5 -0.5
s0.833008 -0.5 1.5 -0.5l13 -4.5c4.66699 -1.66699 11 -6.16699 19 -13.5c-1.33301 1.33301 -1.16602 1.33301 0.500977 0s3.83398 -2.66602 6.50098 -3.99902c2.66699 -2 5.5 -4.5 8.5 -7.5s6.83301 -7.16699 11.5 -12.5c0 -0.666992 1 -2 3 -4h-1
c4.66699 -7.33301 12 -14.5 22 -21.5s21 -13.833 33 -20.5c1.33301 -1.33301 2.83301 -2.16602 4.5 -2.49902s3.16699 -1.16602 4.5 -2.49902c0 -0.666992 0.5 -1.16699 1.5 -1.5l1.5 -0.5l20 -11c5.33301 -3.33301 8.16602 -6.33301 8.49902 -9s-0.5 -7 -2.5 -13l-1 -2
c-3.33301 -11.333 -10.666 -19.333 -21.999 -24s-22.666 -8.66699 -33.999 -12c-2 -0.666992 -3.66699 -1.16699 -5 -1.5l-6 -1.5c-7.33301 -2 -13.333 -3 -18 -3h-1l-4 -10c2 -1.33301 2.66699 -4.33301 2 -9s-1 -9.66699 -1 -15
c0.666992 -2 0.833984 -4.16699 0.500977 -6.5s-0.5 -4.5 -0.5 -6.5v1c1.33301 -1.33301 1.33301 -2.66602 0 -3.99902v-3v-19c0 -6 0.666992 -9.66699 2 -11l-1 -1c1.33301 -3.33301 2.66602 -7.5 3.99902 -12.5s1.66602 -8.16699 0.999023 -9.5l-1 -5v-1
c0 -0.666992 -0.333008 -1.66699 -1 -3l-1 -3c-5.33301 -16.667 -13.5 -28.334 -24.5 -35.001s-25.167 -10 -42.5 -10z" />
    <glyph glyph-name="S" unicode="&#xc8;" horiz-adv-x="1273" 
d="M826 424c0 2 -0.666992 3 -2 3zM1026 450c0.666992 0 1.33301 0.333008 2 1l-6 3c0 -0.666992 0.5 -1.16699 1.5 -1.5s1.83301 -0.833008 2.5 -1.5v-1zM990.999 388l-4.50098 6.50098c-1.66699 2.33301 -3.16699 4.83301 -4.5 7.5
c1.33301 -1.33301 2 -2.66602 2 -3.99902c0 -0.666992 0.666992 -2.33398 2 -5.00098v1c1.33301 -1.33301 2.16602 -2.33301 2.49902 -3s0.833008 -1.33398 1.5 -2.00098s0.833984 -1.16699 0.500977 -1.5s-0.166016 -0.833008 0.500977 -1.5v2zM524.998 396.001
c-1.33301 -1.33301 -3.16797 -2.66797 -5.50098 -4.00098s-4.16602 -2.66602 -5.49902 -3.99902h4l-4 -5c2.66699 2 4.66699 4.16699 6 6.5s3 4.5 5 6.5zM1040 524.999c1.33301 -2.66699 4 -5.99902 8 -9.99902c0.666992 0.666992 1.66699 1 3 1l-6.5 5
c-1.66699 1.33301 -3.16699 2.66602 -4.5 3.99902zM1204 566c5.33301 0 9.99902 -1.00098 13.999 -3.00098c-1.33301 0.666992 -5 2.66699 -11 6c-1.33301 -1.33301 -2.66602 -2.16602 -3.99902 -2.49902s-2.33301 -0.833008 -3 -1.5zM1183 643.999
c4 5.33301 7.83008 10 11.4971 14s6.5 7.33301 8.5 10h10c-2.66699 0 -5 0.166992 -7 0.5s-4 0.5 -6 0.5h-2c-3.33301 -6 -7.66602 -12.833 -12.999 -20.5s-10.666 -14.5 -15.999 -20.5c-2 -1.33301 -3 -2.33301 -3 -3l1 0.5
c0.666992 0.333008 1.33398 0.833008 2.00098 1.5c4 4 8.66699 9.66699 14 17zM830.992 596.999c-2 1.33301 -3.33301 3 -4 5s-1.66699 4.66699 -3 8l-21 -13h28zM602.992 344.999l13.9941 20.9951l78 55c-1.33301 1.33301 -3 2 -5 2c-16.667 0 -31.834 -2.5 -45.501 -7.5
s-25.834 -11.167 -36.501 -18.5s-20.167 -15.166 -28.5 -23.499s-15.5 -16.166 -21.5 -23.499c-10 -11.333 -18.667 -20.666 -26 -27.999s-14.666 -11 -21.999 -11c-26 0 -50.5 6.16699 -73.5 18.5s-44.167 24.5 -63.5 36.5c-2 0.666992 -3.66699 1.33398 -5 2.00098l-4 2
l-3 3c-0.666992 0.666992 -1.33398 1 -2.00098 1l-1 1l-1 -1l-1 1c-23.333 -14 -42.333 -29.167 -57 -45.5l-44 -50.5l-36.5 -44c-13.667 -16 -29.5 -33 -47.5 -51l11 51c1.33301 5.33301 5.5 14.666 12.5 27.999s15.833 28.5 26.5 45.5s22.667 34.667 36 53
s26.833 35.166 40.5 50.499s27.167 28 40.5 38s25 15 35 15c4.66699 0 7.66699 -0.333008 9 -1c-2.66699 2 -5.16699 4 -7.5 6s-4.16602 4 -5.49902 6v-2c-9.33301 -0.666992 -21 -5.5 -35 -14.5s-28.333 -19.167 -43 -30.5s-28.334 -22.833 -41.001 -34.5
s-22 -20.834 -28 -27.501c-2 -1.33301 -5.5 -4.5 -10.5 -9.5l-16 -16.5l-15.5 -16.5c-4.66699 -5 -7.66699 -8.5 -9 -10.5l-20 1l5 20c6.66699 22 16.834 42.833 30.501 62.5s29.5 38.334 47.5 56.001s37.333 34.167 58 49.5s41.334 29.666 62.001 42.999l10 8
c7.33301 4 13.5 7 18.5 9s11.167 3 18.5 3c3.33301 0 11 -6.33301 23 -19c-3.33301 5.33301 -6.16602 10.333 -8.49902 15s-4.16602 9 -5.49902 13l1 -4c-8 0 -19.167 -3.16699 -33.5 -9.5s-30.166 -14.5 -47.499 -24.5s-35 -20.833 -53 -32.5l-51 -34.5l-41.5 -30.5
c-11.667 -9 -19.5 -15.5 -23.5 -19.5l7 35c6.66699 22 21.334 43.5 44.001 64.5s48 40.667 76 59s56.333 34.833 85 49.5l72 36c4.66699 0 7.5 0.166992 8.5 0.5s4.16699 1.5 9.5 3.5c6 0 9.66699 -2 11 -6v3c0.666992 0.666992 1 2 1 4c-16 0 -34.5 -3.16699 -55.5 -9.5
s-42.5 -14.166 -64.5 -23.499s-43.5 -19.666 -64.5 -30.999s-39.833 -22 -56.5 -32c-2.66699 -1.33301 -3.16699 -1.66602 -1.5 -0.999023s1.5 0.333984 -0.5 -0.999023v1l-33 -20l8 27c2.66699 8.66699 10 18.834 22 30.501s25.333 23 40 34s29.334 21 44.001 30
s26 15.5 34 19.5c3.33301 1.33301 6.5 2.66602 9.5 3.99902s6.16699 2.66602 9.5 3.99902c6 2.66699 12.833 5.5 20.5 8.5l25.5 10.5l30 13.5l29 13.5l42 17c12.667 5.33301 21.667 9.33301 27 12h8c8 0 12.667 -5 14 -15c-3.33301 -30 -5.83301 -59.333 -7.5 -88
s2.5 -56.334 12.5 -83.001c20.667 11.333 42.334 22.333 65.001 33s43.334 16 62.001 16h7l21 -39c0 -2 0.666992 -5.16699 2 -9.5s3.66602 -8.5 6.99902 -12.5l1 5c1.33301 3.33301 2.16602 5.33301 2.49902 6s1.83301 1.66699 4.5 3l4 4l-1 -1
c7.33301 6 14.5 11.333 21.5 16s14.167 7 21.5 7c0.666992 0 1.33398 -0.166992 2.00098 -0.5s1.33398 -0.5 2.00098 -0.5h48l-4 -2l19 3c9.33301 0 16 -1.5 20 -4.5s7.66699 -7.16699 11 -12.5l-1 -1c1.33301 0 2 -0.333008 2 -1l2 -2l-1 -1h1l3 -3l3 -9
c8.66699 6 16.834 12.833 24.501 20.5s14.5 14.834 20.5 21.501l-1 -3c0.666992 0.666992 1.5 1.66699 2.5 3s2.16699 2.66602 3.5 3.99902s2.5 2.83301 3.5 4.5s2.83301 3.16699 5.5 4.5h12c8 0 16.333 -1.66699 25 -5s17 -7.33301 25 -12s15.833 -9.83398 23.5 -15.501
l20.5 -15.5v-1v-1c5.33301 4.66699 11 10.667 17 18l17 21.5c5.33301 7 10 13.5 14 19.5s7 10.333 9 13c4 6 7.33301 11.333 10 16s5 9 7 13l6 12c2 4 4.66699 9 8 15c4 5.33301 7 10.166 9 14.499s3.66699 8.5 5 12.5c4.66699 10.667 8 16.334 10 17.001l-1 -2
c5.33301 11.333 13.333 17 24 17h6l94 -51c0 -0.666992 0.666992 -1.33398 2 -2.00098s2 -1.33398 2 -2.00098l1 1l9 -6l34 -25c14 -10 27.167 -20.833 39.5 -32.5s22.166 -23.834 29.499 -36.501s9 -25 5 -37l-9 -28l-2.5 2.5c-1 1 -3.16699 2.16699 -6.5 3.5l-11 8.5
c-4 3 -8 6.83301 -12 11.5l-33 25.5c-12 9 -24.833 17.5 -38.5 25.5s-27.834 15.167 -42.501 21.5s-29.334 10.5 -44.001 12.5l32.5 -19l16.5 -10c0 -0.666992 0.666992 -1.33398 2 -2.00098s2.33301 -1.33398 3 -2.00098l5 -5l35.5 -32c14.333 -13.333 27.5 -28 39.5 -44
s21.5 -32.5 28.5 -49.5s8.16699 -33.5 3.5 -49.5l-10 -32c-9.33301 8 -17 14.833 -23 20.5l-15.5 14.5l-11 10.5c-3 3 -5.83301 6.16699 -8.5 9.5l-6 9l-8 8c-13.333 14.667 -28.333 29.667 -45 45l3 -3c12 -12 23 -25.667 33 -41s18.167 -31.833 24.5 -49.5
s10.166 -36.167 11.499 -55.5s-1 -38.666 -7 -57.999l-7 -22c-12 0 -20.333 2.33301 -25 7v1l-1 2l-24 69c-2 6.66699 -5.66699 14.834 -11 24.501s-11.666 18.834 -18.999 27.501s-15.166 16.167 -23.499 22.5s-16.5 9.5 -24.5 9.5l2 3l-20.5 -14l-23.5 -15
c2.66699 1.33301 4.5 2.33301 5.5 3l1.5 1l20 12l4 1c9.33301 0 18 -5.5 26 -16.5s14.833 -24 20.5 -39s10.167 -30.333 13.5 -46s5.33301 -28.167 6 -37.5v1c0 -2 -0.166992 -7.33301 -0.5 -16s-1 -18.167 -2 -28.5s-2.16699 -20.666 -3.5 -30.999
s-2.66602 -18.166 -3.99902 -23.499l-11 -36l-22 23c-1.33301 1.33301 -2 3.66602 -2 6.99902v13l-1 -1c-4 25.333 -9.5 51 -16.5 77s-19.167 47 -36.5 63l1 -2l-5 1c-16.667 -3.33301 -39 -11 -67 -23c-22 -9.33301 -44.167 -18.166 -66.5 -26.499
s-41.166 -12.5 -56.499 -12.5h-9c-4 6.66699 -6.33301 11.334 -7 14.001c0 1.33301 -0.166992 3 -0.5 5s-0.833008 4.66699 -1.5 8c-2.66699 11.333 -5.83398 22.166 -9.50098 32.499s-8.66699 19.333 -15 27s-14.833 13.834 -25.5 18.501s-24.334 7 -41.001 7h-11l39 -52
l1 2c1.33301 -3.33301 2.66602 -6.16602 3.99902 -8.49902s2.33301 -4.5 3 -6.5v-5c0 2 0.666992 2.33301 2 1l-16 -52c-2 -7.33301 -6.16699 -19.333 -12.5 -36s-14.333 -35.5 -24 -56.5s-20.5 -43.167 -32.5 -66.5s-24.833 -45.166 -38.5 -65.499s-27.667 -38 -42 -53
s-28.5 -24.833 -42.5 -29.5l9 29h-70l-8 -27c-10.667 0 -17.167 0.333008 -19.5 1s-4.5 2.66699 -6.5 6l1 -2c-7.33301 3.33301 -12.166 12.333 -14.499 27s-3 32.167 -2 52.5s3 42.333 6 66s6.33301 46.334 10 68.001s7.5 41.167 11.5 58.5s7 29.666 9 36.999z" />
    <glyph glyph-name="V" unicode="&#xc9;" horiz-adv-x="470" 
d="M593 733c0 0.666992 -0.333008 1 -1 1h1v-1zM592 734v-1l-1 1h1zM355 463c-1.33301 1.33301 -1.66699 3 -1 5zM454.999 476c-1.33301 -3.33301 -1.33301 -5 0 -5l3 5h-3zM213.999 54c-2 -6 5.66699 -8.99902 23 -8.99902h14c4 0 7.83301 0.166992 11.5 0.5
s7.5 0.833008 11.5 1.5c-1.33301 5.33301 -6 9.66602 -14 12.999l1 -1h-22c-3.33301 0 -8.33301 -0.5 -15 -1.5s-10 -2.16699 -10 -3.5zM177.999 29.001c-2 -2 -4.00391 -0.667969 -6.00391 3.99902c-2 3.33301 -3.66699 6.5 -5 9.5s-0.666016 8.16699 2.00098 15.5
c2 6.66699 6.83301 12.5 14.5 17.5s16.167 9 25.5 12s18.333 5.16699 27 6.5s14.667 2 18 2h20c6.66699 0 11.834 -1.83301 15.501 -5.5s7.5 -7.83398 11.5 -12.501v-2l4 2l1 -6l3 -3l4 3l1 0.5c0.666992 0.333008 1.33398 0.833008 2.00098 1.5c4 12.667 4 26 0 40l6 37
c0.666992 1.33301 0.833984 2.5 0.500977 3.5s-0.166016 2.16699 0.500977 3.5l2 5l4 26.5c1.33301 9 2 18.833 2 29.5v14l10 71l-1 -2c-1.33301 2 -2.33301 4 -3 6s-0.333984 5.33301 0.999023 10l1.5 7.5c0.333008 1.66699 0.5 2.16699 0.5 1.5
c0 0.666992 0.166992 1.66699 0.5 3s0.5 2.66602 0.5 3.99902c4.66699 20.667 7.66699 40.667 9 60h-1l1 6v-1c0 2 -0.166992 3.5 -0.5 4.5s-0.5 1.16699 -0.5 0.5l-1 1c0 16 2.33301 30 7 42c1.33301 3.33301 1.33301 8.66602 0 15.999c-1.33301 0 -2 -0.666992 -2 -2
c-6.66699 0 -14.834 -0.666992 -24.501 -2l-28.5 -4c-9.33301 -1.33301 -18 -2.66602 -26 -3.99902s-13.667 -2 -17 -2h-5c-3.33301 0 -7.33301 1.66699 -12 5s-9.16699 7.16602 -13.5 11.499s-8 8.83301 -11 13.5s-4.5 8 -4.5 10l11 149
c0.666992 2.66699 2.33398 5.83398 5.00098 9.50098s5.5 7.33398 8.5 11.001s6 6.83398 9 9.50098s5.16699 4.33398 6.5 5.00098l-1 -1c19.333 16 37.666 26.167 54.999 30.5s35.666 7.16602 54.999 8.49902c1.33301 0.666992 5 1 11 1c2 0 3.66699 0.166992 5 0.5
s3 0.5 5 0.5v-1c2.66699 6.66699 9.33398 11 20.001 13l-3 -1c13.333 4 24.333 6.5 33 7.5s17.667 1.5 27 1.5h9c4 -2.66699 6.33301 -4.5 7 -5.5s1 -2.16699 1 -3.5l103 17c4 0 8.33301 -2.33301 13 -7c0 -0.666992 0.333008 -1 1 -1h1v-1
c-0.666992 -0.666992 0.333008 -1 3 -1c2 -1.33301 3.66699 -2.33301 5 -3s2.66602 -1.66699 3.99902 -3c5.33301 -3.33301 9.66602 -7.16602 12.999 -11.499s4.33301 -11.5 3 -21.5l-13 -125c1.33301 -1.33301 2 -2.66602 2 -3.99902l-2 -10l-2 -7
c-3.33301 -11.333 -8.16602 -20 -14.499 -26s-14.166 -12 -23.499 -18l-16 -11c-9.33301 -2.66699 -18.5 -4.83398 -27.5 -6.50098s-18.167 -2.5 -27.5 -2.5c-6 0 -12 -0.5 -18 -1.5s-12.333 -2.16699 -19 -3.5c-0.666992 -3.33301 -1.16699 -8.33301 -1.5 -15
s-0.5 -11 -0.5 -13l-4 -27.5c-1.33301 -9 -3.66602 -18.167 -6.99902 -27.5l1 -8l1 1c1.33301 -3.33301 1.83301 -6.66602 1.5 -9.99902s-1.83301 -8.66602 -4.5 -15.999c-0.666992 -6.66699 -1.33398 -13 -2.00098 -19s-1.66699 -12 -3 -18l-4 -23l1 2
c0.666992 -0.666992 1 -2.33398 1 -5.00098v1c0 -1.33301 0.166992 -2.83301 0.5 -4.5s-0.166992 -3.5 -1.5 -5.5l-6 -34l1 3c3.33301 -3.33301 4.5 -7.16602 3.5 -11.499s-2.16699 -8.5 -3.5 -12.5l-6 -18c-2 -3.33301 -2 -5.5 0 -6.5s2.33301 -4.5 1 -10.5
c-3.33301 -16.667 -6.16602 -32.834 -8.49902 -48.501s-3.83301 -31.834 -4.5 -48.501v1c0 -6 -0.166992 -12.333 -0.5 -19s-1.83301 -13.667 -4.5 -21c-4 -13.333 -12.667 -22.833 -26 -28.5s-25 -8.5 -35 -8.5h-5c-6 0 -9.33301 1.33301 -10 4l1 -1h-14l-2 -2
c-2.66699 -2.66699 -8 -4.66699 -16 -6l3 2l-5 -3c-13.333 -6 -25.5 -11 -36.5 -15s-22.167 -6 -33.5 -6c-10 0 -18.667 2.66699 -26 8l-7.5 2.5c-3 1 -11.167 2.5 -24.5 4.5z" />
    <glyph glyph-name="v" unicode="&#xca;" horiz-adv-x="770" 
d="M743 0l85 684h-161l-332 -684h150l25 51h83l-5 -51h155zM390 685h-155l-88 -685h160l335 685h-157l-127 -263zM620 271l-10 -81h-33z" />
    <glyph glyph-name="i" unicode="&#xcb;" horiz-adv-x="1092" 
d="M658 546l9 3c-2 0 -3.16699 -0.166992 -3.5 -0.5s-0.833008 -0.5 -1.5 -0.5v1zM461 677c-1.33301 0 -2.83301 -0.166992 -4.5 -0.5l-7.5 -1.5l28 1c-3.33301 0 -6.33301 0.166992 -9 0.5s-5 0.5 -7 0.5zM1043 677c-3.33301 0 -6.99902 -0.166992 -10.999 -0.5
s-8.66699 -0.833008 -14 -1.5c5.33301 -0.666992 10.666 -1.16699 15.999 -1.5s11.333 -0.5 18 -0.5l-5 6v-2h-4zM751.001 335l3 4.5l1 1.5l25 80h-2zM424.001 264l28.002 17c-6.66699 -1.33301 -13.334 -2.83301 -20.001 -4.5s-13.334 -3.5 -20.001 -5.5
c2.66699 -1.33301 5 -2.33301 7 -3l1 -2h5zM836.003 271c1.33301 0 2.49902 0.166992 3.49902 0.5s2.83301 0.833008 5.5 1.5c-5.33301 2.66699 -11.166 5 -17.499 7s-12.5 3.66699 -18.5 5c8 -6 13.667 -11.667 17 -17v1h2zM607.002 310l3 0.000976562l35 115h-2
c-2.66699 -4.66699 -4 -8.33398 -4 -11.001l-3 -10zM1117 476.001c-1.33301 7.33301 -5.83301 12.3311 -13.5 14.998s-18.167 4.33398 -31.5 5.00098l23 -10c8 -3.33301 15.333 -6.66602 22 -9.99902zM299.002 490.999c2.66699 1.33301 5.00098 2.16895 7.00098 2.50195
s4.66699 1.16602 8 2.49902c-14 0 -25.333 -1 -34 -3s-15.667 -7 -21 -15c7.33301 2.66699 14.666 5.16699 21.999 7.5s13.333 4.16602 18 5.49902zM676.003 310.002c0.666992 0 1.16699 -0.333008 1.5 -1s-0.166992 -2.66699 -1.5 -6l36 118h-5l-35 -112h1
c0.666992 0.666992 1.66699 1 3 1zM675.003 89.002c1.33301 0 2.83398 0.166992 4.50098 0.5s3.16699 0.5 4.5 0.5c-1.33301 13.333 -4 26 -8 38l-13 38v-6c0 -7.33301 0.166992 -13.833 0.5 -19.5s0.833008 -10.5 1.5 -14.5l0.5 -4.5c0.333008 -3 1 -6.5 2 -10.5
s2.16699 -8 3.5 -12s2.66602 -7.33301 3.99902 -10zM479.004 115.002l-14 -17.001c-5.33301 -6.66699 -9.66602 -11.667 -12.999 -15c3.33301 2 6.5 3.16699 9.5 3.5s5.83301 0.5 8.5 0.5h14c4 6.66699 8.83301 14 14.5 22l13.5 19l13.5 23c5 8.66699 10.167 17 15.5 25
c-1.33301 -1.33301 -2.33301 -2.16602 -3 -2.49902s-1.33398 -0.833008 -2.00098 -1.5l-11.5 -11l-18 -17l-17 -16.5c-5 -5 -7.83301 -8.5 -8.5 -10.5l-2 7l-3 -8zM929.004 398.001c0.666992 -0.666992 1.33301 -1.00293 2 -1.00293
c5.33301 -5.33301 15.666 -14.666 30.999 -27.999l47 -40v1l1.5 -2.5c1 -1.66699 2.16699 -3.16699 3.5 -4.5l15 -13c4.66699 -4 9.66699 -7.66699 15 -11l-1 1h2c0.666992 0 2.5 2.33301 5.5 7s6 9.83398 9 15.501s5.83301 11.334 8.5 17.001s4.33398 9.5 5.00098 11.5
l-5 3c-18 10.667 -38.833 20.667 -62.5 30s-48.5 14 -74.5 14h-2zM229.003 353.998c-0.666992 -2.66699 -1.50098 -6.5 -2.50098 -11.5s-1.66699 -10.167 -2 -15.5s-0.166016 -10.5 0.500977 -15.5s2.33398 -8.83301 5.00098 -11.5l-1 1
c30.667 14.667 61.167 30.167 91.5 46.5s57.166 31.5 80.499 45.5l8 5c-11.333 -0.666992 -26.833 -2.5 -46.5 -5.5s-39.167 -6.5 -58.5 -10.5s-36.333 -8.5 -51 -13.5s-22.667 -9.83301 -24 -14.5zM348.002 233.998c1.33301 4.66699 5 10.333 11 17
c-18 -7.33301 -34.167 -15.166 -48.5 -23.499s-26.833 -16.833 -37.5 -25.5c12.667 -16 27 -31.333 43 -46s35.333 -27.334 58 -38.001l6 3l-3 -3c4 3.33301 8.16699 7 12.5 11s8.5 8.33301 12.5 13l17 17c5.33301 5.33301 9.33301 8.66602 12 9.99902l-1 -1
c2.66699 2 5 4 7 6l20 20c10 7.33301 21.333 17.333 34 30v-1c0 0.666992 0.5 1.16699 1.5 1.5s1.83301 0.833008 2.5 1.5l-37 -7l2 2c-5.33301 -3.33301 -8.83301 -6.5 -10.5 -9.5s-4.16699 -6.16699 -7.5 -9.5l-9.5 -11c-3 -3.33301 -6.66699 -6.66602 -11 -9.99902
s-9.5 -6.33301 -15.5 -9s-14 -5 -24 -7l7 22c-7.33301 -2 -16.333 -3 -27 -3l4 11c-7.33301 -2 -16 -3 -26 -3l7 25h-5zM768.002 218.997c-2.66699 1.33301 -7.66504 2.83398 -14.998 4.50098l-24 5.5c11.333 -18 21.5 -36.333 30.5 -55s17.5 -38 25.5 -58
c7.33301 2.66699 18.166 7.16699 32.499 13.5s26.833 12.166 37.5 17.499l30.5 19.5c7 4.33301 13.5 8.16602 19.5 11.499l15 9c0.666992 2.66699 2 4 4 4l-1 -2l14 9l-3 2c-2.66699 2 -5.16699 4.16699 -7.5 6.5s-4.5 5.16602 -6.5 8.49902l-19 21l-6.5 4.5l-6.5 4.5
c-1.33301 -1.33301 -2 -2.66602 -2 -3.99902l-1 -3l-3 -9c-1.33301 -1.33301 -3 -6 -5 -14h-1c-2 -4 -3.83301 -7 -5.5 -9s-5.16699 -4.66699 -10.5 -8l-15 6c0.666992 -3.33301 -0.333008 -9.33301 -3 -18c-7.33301 0 -12.833 0.166992 -16.5 0.5s-7.16699 0.5 -10.5 0.5
c-2 -7.33301 -3.83301 -11.666 -5.5 -12.999s-5.83398 -2 -12.501 -2c-14 0 -21.5 3.5 -22.5 10.5s-0.833008 15.5 0.5 25.5c0.666992 1.33301 0.666992 3 0 5s-3 4 -7 6zM591.004 572.998c-2 -6.66699 1 -11.998 9 -15.998s17.667 -7 29 -9
c-7.33301 6.66699 -9.66602 15 -6.99902 25c3.33301 10 10.833 19.167 22.5 27.5s24.667 15.166 39 20.499s28.5 9.5 42.5 12.5s25 4.5 33 4.5c9.33301 0 17 -1.83301 23 -5.5s10.833 -8.5 14.5 -14.5s6.66699 -12.667 9 -20s4.16602 -14.333 5.49902 -21l1 1v-8
c4 -9.33301 7.66699 -14 11 -14c5.33301 0 11.166 2.16699 17.499 6.5s10.166 8.16602 11.499 11.499c0.666992 0.666992 -0.5 1.5 -3.5 2.5s-5.83301 2.16699 -8.5 3.5c-6 3.33301 -11.167 7.33301 -15.5 12s-4.16602 14.667 0.500977 30
c8.66699 27.333 25.5 50.666 50.5 69.999s51.833 35.666 80.5 48.999c-11.333 5.33301 -24.5 9.83301 -39.5 13.5s-30.333 6.66699 -46 9s-31.167 4 -46.5 5s-29 1.5 -41 1.5c-36 0 -69.833 -2.16699 -101.5 -6.5s-63.834 -12.5 -96.501 -24.5
c9.33301 -7.33301 17 -11 23 -11l20 -22.5c6.66699 -7.66699 12.334 -16 17.001 -25s7.66699 -18.667 9 -29s0 -21.5 -4 -33.5c-4 -12.667 -9.83301 -21.167 -17.5 -25.5s-15.5 -8.16602 -23.5 -11.499v1c-3.33301 -1.33301 -5.66602 -2.66602 -6.99902 -3.99902
c-3.33301 -1.33301 -6 -2.5 -8 -3.5zM158.004 423c18 58 48.668 113 92.001 165s94.166 97.5 152.499 136.5s122 69.833 191 92.5s138.5 34 208.5 34c70.667 0 134 -11 190 -33s101.833 -52.167 137.5 -90.5s59.334 -83.333 71.001 -135s8.5 -107.167 -9.5 -166.5
c-18 -60 -48.5 -116.167 -91.5 -168.5s-94 -97.666 -153 -135.999s-123.5 -68.5 -193.5 -90.5s-140.667 -33 -212 -33c-70 0 -132.833 11 -188.5 33s-100.834 52.333 -135.501 91s-57.667 83.667 -69 135s-8 106.666 10 165.999z" />
    <glyph glyph-name="w" unicode="&#xcc;" horiz-adv-x="639" 
d="M447 414l1 1v1zM465 343l-0.5 -1.50098c-0.333008 -1 0.166992 -2.16699 1.5 -3.5c0 0.666992 -0.166992 1.33398 -0.5 2.00098s-0.5 1.66699 -0.5 3zM639 616.999l2.00195 1.99902v1c0 0.666992 -0.333008 1.33398 -1 2.00098l-10 -9
c-0.666992 -0.666992 -1.33398 -1.16699 -2.00098 -1.5s-1.33398 -0.833008 -2.00098 -1.5l-1 -1h2c2.66699 4 6.66699 7 12 9v-1zM377.002 621.998c-0.666992 0.666992 -1 1.66602 -1 2.99902c-3.33301 -2.66699 -6.66602 -5.16699 -9.99902 -7.5
s-6.33301 -4.16602 -9 -5.49902l1 -2l3 -6c1.33301 -0.666992 2.16602 -1.16699 2.49902 -1.5s1.83301 -1.5 4.5 -3.5c2 2 4 3.33301 6 4s4 1.66699 6 3c-1.33301 2 -1.83301 4.33301 -1.5 7s-0.166992 5.66699 -1.5 9zM80.002 35.9971
c2.66699 8.66699 5.49023 14.4961 8.49023 17.4961s6.5 6.16699 10.5 9.5l15 12c0.666992 0.666992 2.16699 2.5 4.5 5.5s5 6.66699 8 11s4.5 6.83301 4.5 7.5l4 13l2 1c-0.666992 0.666992 -0.333984 3.66699 0.999023 9c2 6.66699 6 12.667 12 18l1 1l2 2l-1 -2l21 49.5
c6 13.667 14.333 29.5 25 47.5l-1 -2l3 10c0.666992 0.666992 1 1.33398 1 2.00098s0.333008 1.33398 1 2.00098v-1c6.66699 7.33301 12.167 13 16.5 17s8.5 8.33301 12.5 13l2 1l2 2l-2 -2c11.333 10 21.666 19.833 30.999 29.5s15.666 19.834 18.999 30.501
c1.33301 4 2 8.33301 2 13c0 4 0.666992 8.66699 2 14l4 11l4 13c0.666992 4.66699 2.33398 9 5.00098 13v2c0.666992 1.33301 1.33398 3 2.00098 5s1.33398 3.66699 2.00098 5c-3.33301 3.33301 -3.66602 9.33301 -0.999023 18l2 8l50 70l-17.5 3.5
c-5 1 -10.167 2.5 -15.5 4.5h1c-2.66699 0.666992 -5.16699 1.33398 -7.5 2.00098s-4.16602 1.33398 -5.49902 2.00098c-2.66699 1.33301 -5.16699 2.16602 -7.5 2.49902s-4.5 0.833008 -6.5 1.5c-6.66699 1.33301 -13.167 3.16602 -19.5 5.49902
s-13.166 6.16602 -20.499 11.499c-6.66699 3.33301 -12.167 8.16602 -16.5 14.499s-8.5 13.5 -12.5 21.5v-2c-1.33301 1.33301 -2.16602 2.5 -2.49902 3.5s-1.16602 2.16699 -2.49902 3.5c-4 6 -6.33301 9.33301 -7 10l2 -2
c-4.66699 0.666992 -6.83398 2.33398 -6.50098 5.00098s1.5 6.66699 3.5 12l9 25c9.33301 5.33301 17.333 10.5 24 15.5l18 13.5c0.666992 0.666992 1.33398 1.16699 2.00098 1.5s1.33398 0.833008 2.00098 1.5l4 4c5.33301 6.66699 10.666 12.167 15.999 16.5
s10.333 8.16602 15 11.499c2 2 5 3.66699 9 5c0.666992 0.666992 1.66699 1.16699 3 1.5s2.66602 1.16602 3.99902 2.49902c0.666992 0.666992 2 1.5 4 2.5s4 2.16699 6 3.5l-1 -1l8 8h11v2l17 11h1v2c4.66699 6.66699 11.5 13.334 20.5 20.001s18.667 12.667 29 18
s20.166 9.83301 29.499 13.5s16.666 5.5 21.999 5.5c3.33301 0 5 -0.333008 5 -1l4 10c3.33301 0 7 1.16699 11 3.5s9.33301 5.16602 16 8.49902l9 6l-1 -2l10.5 4c1.66699 0.666992 3.83398 1.66699 6.50098 3h1l-2 -2l3 2h1c2 12 4.5 21.833 7.5 29.5
s7.16699 14.167 12.5 19.5l4 15l12 7v-2l4 3c3.33301 4 7.5 7.5 12.5 10.5s11.167 4.83301 18.5 5.5l-2 -2c6 4 11.667 6 17 6c2 0 4 -1.33301 6 -4v2c2 0 3.66699 -0.666992 5 -2c5.33301 3.33301 10 5 14 5c3.33301 0 6.33301 -1.33301 9 -4v1h4l12 -14l1 2l6 -4
c2 -1.33301 3.5 -3.16602 4.5 -5.49902s1.83301 -6.16602 2.5 -11.499l2 1v-6c0 -1.33301 -0.666992 -4 -2 -8l-4 -13c-1.33301 -5.33301 -3 -9 -5 -11s-3.66699 -3.33301 -5 -4v-1l-1 -1l-4 -14l-6 -6c3.33301 -2 6.83301 -4.5 10.5 -7.5s7.83398 -6.16699 12.501 -9.5
l14 -11v-16c-0.666992 -0.666992 -1.5 -1.33398 -2.5 -2.00098s-2.16699 -1.66699 -3.5 -3c1.33301 -1.33301 2.83301 -3.33301 4.5 -6s2.5 -4.66699 2.5 -6l1 3c7.33301 -7.33301 12.833 -14.166 16.5 -20.499s5.5 -13.833 5.5 -22.5c4.66699 0 7.66699 -0.333008 9 -1
c3.33301 -4.66699 6.16602 -11.334 8.49902 -20.001s2.83301 -17.334 1.5 -26.001l1 3c5.33301 -7.33301 10.166 -16.333 14.499 -27s4.5 -22.334 0.5 -35.001c-1.33301 -5.33301 -5.83301 -12.333 -13.5 -21s-16.667 -17.167 -27 -25.5s-20.833 -15.5 -31.5 -21.5
s-19.667 -9 -27 -9h-6l-8 2c-0.666992 -0.666992 -2 -1 -4 -1c-3.33301 -0.666992 -6 -1.33398 -8 -2.00098s-3.66699 -1.33398 -5 -2.00098l-10 -7c-2.66699 -1.33301 -5 -3 -7 -5s-5.33301 -3.66699 -10 -5l-1 -2l-2 -47l1 3c2.66699 -4 3.5 -8.33301 2.5 -13
s-2.16699 -9.66699 -3.5 -15l-2 -8c0 -1.33301 0.166992 -3.5 0.5 -6.5s-0.166992 -6.5 -1.5 -10.5l1.5 -3c0.333008 -0.666992 -0.166992 -2.66699 -1.5 -6c-0.666992 -2 0 -4 2 -6l-18 -59l-1 -42l1 3c9.33301 -13.333 15.333 -26.5 18 -39.5s1.66699 -29.833 -3 -50.5
l-15 -65l1 4c0.666992 -0.666992 0.333984 -5 -0.999023 -13l-3 -8c0 -2.66699 1 -4 3 -4l8 -12c2.66699 -4 6 -8 10 -12c0 -2 2 -3.33301 6 -4c8.66699 -5.33301 16.334 -11.166 23.001 -17.499s8 -16.166 4 -29.499l-5 -17h-11l2 1
c-9.33301 -3.33301 -15.333 -5.16602 -18 -5.49902s-6.33398 -0.5 -11.001 -0.5h-17c-13.333 0 -21.333 1 -24 3v-1c-3.33301 1.33301 -6.33301 2.83301 -9 4.5s-5.33398 3.16699 -8.00098 4.5c-2 0 -4.33301 2 -7 6c-0.666992 0.666992 -1.33398 1 -2.00098 1l-1 1l1 -2h-2
c-10 1.33301 -18 2.66602 -24 3.99902s-10.333 3.5 -13 6.5s-3.66699 7.5 -3 13.5s2.66699 14 6 24l5 12l-1 5l2 8l-1 1c0 0.666992 -0.166992 1.5 -0.5 2.5s-1.83301 4.16699 -4.5 9.5l2 7c0.666992 4.66699 1 9 1 13v14v33c-6.66699 7.33301 -9.16699 15.833 -7.5 25.5
s4.16699 20.167 7.5 31.5l1 3l2 9c-1.33301 2.66699 -2 4.33398 -2 5.00098c0 1.33301 -0.666992 2.66602 -2 3.99902c-3.33301 5.33301 -5 9.33301 -5 12c-1.33301 1.33301 -1.66602 2 -0.999023 2c0 0.666992 -0.333008 1.33398 -1 2.00098v17
c0.666992 0.666992 0.833984 1.16699 0.500977 1.5s-0.166016 1.16602 0.500977 2.49902l-1 -2v-11l-5.5 15.5c-3.66699 10.333 -8.16699 30.166 -13.5 59.499l-2 -4l1 10c0 6 -0.333008 12.333 -1 19s-1.66699 10 -3 10c-2 0 -2.66699 0.333008 -2 1l-5 -9l-20 -24l-23 -26
c-3.33301 -3.33301 -6.16602 -6.5 -8.49902 -9.5s-4.5 -6.16699 -6.5 -9.5v1c-7.33301 -7.33301 -14 -14.666 -20 -21.999s-11.333 -14.666 -16 -21.999v1c-4.66699 -7.33301 -8.16699 -14.333 -10.5 -21s-5.16602 -13 -8.49902 -19
c-2.66699 -2.66699 -4.33398 -5.66699 -5.00098 -9c-0.666992 -2 -1.5 -4.16699 -2.5 -6.5s-1.83301 -4.5 -2.5 -6.5l-2 -4c-0.666992 -1.33301 -1.33398 -3 -2.00098 -5c0 -1.33301 -1 -3 -3 -5h3l-8 -5c-1.33301 -1.33301 -3.16602 -2.66602 -5.49902 -3.99902
s-4.16602 -2.66602 -5.49902 -3.99902l-7 -4l-4 -3v1c-5.33301 -4.66699 -9.83301 -9.16699 -13.5 -13.5s-6.5 -8.16602 -8.5 -11.499h-1l-33 -52h5c-7.33301 -8.66699 -11.666 -13.667 -12.999 -15l-4 -4c-3.33301 -4 -5.66602 -7.5 -6.99902 -10.5
s-3.66602 -5.16699 -6.99902 -6.5l-2 -1l-20 -45c-4 -4 -6 -6.33301 -6 -7l-2 -7c-9.33301 -9.33301 -19.333 -16.166 -30 -20.499s-20.667 -6.5 -30 -6.5c-11.333 0 -20.666 2.83301 -27.999 8.5s-9 15.167 -5 28.5z" />
    <glyph glyph-name=".0125" unicode="&#xcd;" horiz-adv-x="885" 
d="M587 35c-2.66699 -6 -4.00098 -13.3301 -4.00098 -21.9971c0 -7.33301 5.66699 -11 17 -11h124c9.33301 2.66699 16.166 7.16699 20.499 13.5s8.16602 13.833 11.499 22.5l-1 1l2 6l2 5l5 15c-2 8.66699 -3 13.667 -3 15c0 2 -1.66699 4.66699 -5 8
c-1.33301 1.33301 -2 2.33301 -2 3v-1c-0.666992 0.666992 -1.66699 1.5 -3 2.5s-2.33301 1.83301 -3 2.5c-2.66699 0 -4 1 -4 3c-2.66699 2.66699 -4 5 -4 7c-1.33301 1.33301 -2 3 -2 5l7 14l-5 16l1 1c0 0.666992 0.333008 1.33398 1 2.00098
c0 1.33301 1.33301 2.33301 4 3l4.5 6.5l5.5 7.5c2.66699 3.33301 5.16699 6.83301 7.5 10.5s4.16602 8.16699 5.49902 13.5l-2 7l16 33l6 17c0.666992 3.33301 0.166992 9.33301 -1.5 18s-3.5 15.667 -5.5 21c0.666992 0.666992 1.33398 1 2.00098 1
c-0.666992 0 1 0.666992 5 2v1c2 1.33301 3.5 3.16602 4.5 5.49902s2.83301 4.5 5.5 6.5c0.666992 0.666992 1 1.33398 1 2.00098l2 2l-1 -2l1.5 0.5c1 0.333008 4.16699 0.5 9.5 0.5c2.66699 0 4.16699 -3.33301 4.5 -10s0.166016 -14.334 -0.500977 -23.001
s-1.66699 -16.834 -3 -24.501s-2.33301 -12.834 -3 -15.501l-9 -41c-1.33301 -4.66699 -2.33301 -8.33398 -3 -11.001s-1.66699 -10.334 -3 -23.001h18c13.333 13.333 25 24 35 32s19 14.667 27 20l5 3v-1c2.66699 1.33301 5 3 7 5s4.33301 3.66699 7 5l9 6
c8.66699 8 15.5 15 20.5 21s8.83301 13.333 11.5 22c5.33301 17.333 5.16602 31.666 -0.500977 42.999s-12.167 22 -19.5 32l-1 -1l-4 9v1h1c3.33301 4 5.66602 7 6.99902 9s3 4 5 6c1.33301 1.33301 1.66602 2 0.999023 2c0 0.666992 0.333008 1.33398 1 2.00098
c7.33301 9.33301 14 18.5 20 27.5s10.667 18.167 14 27.5c3.33301 12 5 21.667 5 29c0 9.33301 -4.66699 16.666 -14 21.999l-1 -1c-1.33301 1.33301 -3.83301 3.16602 -7.5 5.49902s-8.16699 4.16602 -13.5 5.49902l-1 -1c-2 1.33301 -4 2.16602 -6 2.49902
s-3.66699 1.16602 -5 2.49902v1h-2c0 0.666992 -0.333008 1 -1 1c-1.33301 0 -2 -0.333008 -2 -1v-1c-6 6 -9 8.66699 -9 8v-1c-1.33301 1.33301 -2.83301 2.16602 -4.5 2.49902s-3.16699 1.16602 -4.5 2.49902c-3.33301 2.66699 -5.83301 4.5 -7.5 5.5l-2.5 1.5h-1
c2.66699 2.66699 5.66699 4.33398 9 5.00098l-11 13l1 4c4 4.66699 6.66699 7.83398 8 9.50098s2.66602 4.16699 3.99902 7.5v1c2 5.33301 1.66699 11 -1 17v3c-2 0.666992 -3 1.66699 -3 3h-2l2 1c0 4 -1.16699 7.66699 -3.5 11s-5 6.16602 -8 8.49902
s-5.66699 3.83301 -8 4.5s-3.83301 0.333984 -4.5 -0.999023c1.33301 4 3.33301 8.66699 6 14s6 11.333 10 18l1 3l10 15l14.5 33.5c4.33301 10.333 8.16602 21.5 11.499 33.5l10 32c0.666992 12 0.5 23.833 -0.5 35.5s-3.33301 23 -7 34s-9 21 -16 30
s-15.833 16.5 -26.5 22.5l-6 3c-6 3.33301 -12.5 6.66602 -19.5 9.99902s-14.167 5 -21.5 5h-63l-5 -3c-2 -2 -3.66699 -3.33301 -5 -4s-2.66602 -2.33398 -3.99902 -5.00098v1c-3.33301 -2.66699 -7.16602 -4.5 -11.499 -5.5l-14.5 -3.5h-2l-3 -1
c-2 -0.666992 -3.66699 -1.33398 -5 -2.00098v1c-0.666992 -0.666992 -2.66699 -1 -6 -1s-5.33301 -0.333008 -6 -1c-3.33301 5.33301 -6.83301 9.66602 -10.5 12.999s-10.167 5 -19.5 5l-9 -30c-0.666992 -0.666992 -2.66699 -1 -6 -1l-1 -0.5l-3 -1.5v1l-1 -1v2
c-9.33301 -2.66699 -18.666 -5.66699 -27.999 -9s-21 -10.333 -35 -21l-6 -19l-3 -1l1 1c-0.666992 0 -0.833984 1.5 -0.500977 4.5s0.833008 5.16699 1.5 6.5l21 68h-22l-25 -25c-6.66699 -6 -12.834 -14 -18.501 -24s-9.83398 -19.667 -12.501 -29l-6 -36
c-0.666992 -0.666992 -1.33398 -1 -2.00098 -1l1 2h-1v-1l-14 19.5c-4.66699 6.33301 -11.334 12.833 -20.001 19.5l-8 5h-4c-9.33301 0 -20.5 -2.83301 -33.5 -8.5s-26.5 -12.167 -40.5 -19.5l-19 -9.5c-6 -3 -13 -5.5 -21 -7.5l-10 -5
c-13.333 -6 -27.166 -12.833 -41.499 -20.5s-28.166 -17.834 -41.499 -30.501c-4.66699 -5.33301 -8 -10.666 -10 -15.999s-4 -11 -6 -17c-5.33301 -17.333 -8.66602 -33.666 -9.99902 -48.999l-4 -46c0 -11.333 1.5 -21.166 4.5 -29.499s7.33301 -15.833 13 -22.5
s12.167 -12.667 19.5 -18s15.333 -10.666 24 -15.999v2l2 -2l-6 -6c0 0.666992 -0.166992 1.16699 -0.5 1.5s-0.166016 1.16602 0.500977 2.49902l-18 -4l3 -1l-15 5h-17c-5.33301 -3.33301 -9.5 -7.16602 -12.5 -11.499s-5.16699 -7.83301 -6.5 -10.5l-1 -6
c-3.33301 -9.33301 -8 -15.666 -14 -18.999l1 2l-7 1c-12.667 0 -23.667 -2.33301 -33 -7s-16.666 -14.667 -21.999 -30c-3.33301 -11.333 -4.16602 -21.166 -2.49902 -29.499s5 -15.666 10 -21.999s11.333 -11.5 19 -15.5s15.834 -7 24.501 -9
c-1.33301 -1.33301 -2.33301 -2.16602 -3 -2.49902s-1.33398 -0.833008 -2.00098 -1.5l-5 -4l-1 -1c-7.33301 -7.33301 -12.166 -14 -14.499 -20l-7.5 -20c-3.33301 -12 -6.5 -24.667 -9.5 -38s-3.5 -27.666 -1.5 -42.999c1.33301 -3.33301 3 -5.83301 5 -7.5
s3 -3.16699 3 -4.5l3 9h-3c-0.666992 -0.666992 -1 -1.66699 -1 -3v-3c0 -1.33301 0.166992 -2.16602 0.5 -2.49902s0.5 -1.16602 0.5 -2.49902l-1 -4l-6 -5l2 2c-11.333 -0.666992 -23.166 -5 -35.499 -13s-21.166 -15.667 -26.499 -23l-2 -7l-13 -8
c-5.33301 -5.33301 -9.66602 -13 -12.999 -23l-5 -18l-2 2c0 -2 -0.333008 -3.33301 -1 -4c0 -2.66699 0.333008 -4 1 -4c-1.33301 -3.33301 -1.33301 -5.66602 0 -6.99902c0 -6 0.166992 -9.66699 0.5 -11s1.16602 -2.33301 2.49902 -3v1
c3.33301 -3.33301 8.83301 -6.66602 16.5 -9.99902s14.167 -5 19.5 -5c2.66699 0 6.66699 1.16699 12 3.5s11 5.33301 17 9l17.5 10.5l13.5 8v-1l12 6c2.66699 1.33301 4.83398 2.5 6.50098 3.5s3.16699 2 4.5 3l6 4.5l12 8l4 13c0 2 0.333008 3.66699 1 5v1
c3.33301 1.33301 6.66602 3 9.99902 5l10 6c5.33301 2.66699 8.83301 4.66699 10.5 6s3.83398 2.66602 6.50098 3.99902c5.33301 3.33301 8.66602 6.33301 9.99902 9s3 7 5 13c2 5.33301 2.83301 9.5 2.5 12.5s-1.16602 6.16699 -2.49902 9.5l-1 -4v3
c0 2 0.333008 3.33301 1 4l-4 4l19 13c4 2.66699 6.83301 4.66699 8.5 6s4.83398 3 9.50098 5c2.66699 1.33301 4.5 2.33301 5.5 3s2.83301 1.66699 5.5 3l8 5l-1 -1c10.667 6.66699 18 16.667 22 30l-1 4l6 -4.5l2 -1.5h10c1.33301 -7.33301 3.66602 -13.333 6.99902 -18
l2 -2l-1 -2c0.666992 0 1 -0.666992 1 -2l-22 -43c-6.66699 -24.667 1.66602 -37 24.999 -37c18.667 0 36.334 2.66699 53.001 8s33.667 11.666 51 18.999l12 4h1c-1.33301 -3.33301 -1.33301 -5.66602 0 -6.99902c0 -6.66699 1 -12.334 3 -17.001s5.66699 -7 11 -7h3
c-0.666992 -0.666992 2.33301 1 9 5l24 14l9 5.5c2.66699 1.66699 5.33398 3.16699 8.00098 4.5c3.33301 2.66699 7.33301 5 12 7s9.66699 4.33301 15 7c3.33301 1.33301 6.33301 3 9 5s6.66699 4.33301 12 7c-1.33301 -8.66699 -1.16602 -15.334 0.500977 -20.001
s6.16699 -9.66699 13.5 -15c2.66699 -1.33301 5 -2.66602 7 -3.99902v1c0.666992 -0.666992 1.33398 -1.16699 2.00098 -1.5s1.66699 -1.16602 3 -2.49902l3 -2l2 -3c-1.33301 -2 -1 -3 1 -3v-1c-2.66699 -12.667 -0.333984 -20.667 6.99902 -24l-9 -26l-2 -12
c-0.666992 -2.66699 -3.33398 -5 -8.00098 -7c-5.33301 -3.33301 -10 -7.33301 -14 -12s-7.33301 -11.334 -10 -20.001l-4 -12zM863.999 502.003l-0.999023 -6c-0.666992 -0.666992 -1.33398 -1 -2.00098 -1l2 10zM315 239.003l-1 -6v2zM708 857.003l-1 1
c0.666992 0 1 -0.333008 1 -1z" />
    <glyph glyph-name="FL00CEh" unicode="&#xce;" horiz-adv-x="1053" 
d="M719 171l-4.00391 -171h-181l6 18c0.666992 3.33301 1.33398 5.83301 2.00098 7.5s1.33398 3.16699 2.00098 4.5l1 2c0.666992 1.33301 1.33398 2.83301 2.00098 4.5s1.33398 3.16699 2.00098 4.5zM825.996 697h157l-34 -267l130 267h159l-339 -697h-164zM-131.004 -232
l717 1159h150l-17 -753l-169 142l-4 11v214l-180 -290h167l5 59l145 -123v-18l-147 -104l3 34h-252l-212 -331h-206z" />
    <glyph glyph-name=".0049" unicode="&#xcf;" horiz-adv-x="1246" 
d="M134 -1c14 0 27.3398 2.51074 40.0068 7.51074s24.5 11.333 35.5 19s21 15.667 30 24l23.5 22.5v1c2.66699 1.33301 4.83398 2.83301 6.50098 4.5s3.16699 4.5 4.5 8.5c1.33301 1.33301 2.33301 2.66602 3 3.99902c0 2 1 3.66699 3 5c6 5.33301 14.333 10.166 25 14.499
s20.334 7.83301 29.001 10.5h32c33.333 3.33301 66 16 98 38c9.33301 9.33301 15.333 17.666 18 24.999l1 1c0.666992 0.666992 3.33398 1.66699 8.00098 3l11.5 2.5c7.66699 1.66699 16.167 3.16699 25.5 4.5c3.33301 0.666992 6.5 1.16699 9.5 1.5s5.83301 0.5 8.5 0.5
c1.33301 0 2.33301 0.166992 3 0.5s2 0.5 4 0.5c17.333 3.33301 35.166 7.5 53.499 12.5s36.166 13.167 53.499 24.5l5 3.5l11.5 8c4.33301 3 8.66602 6.16699 12.999 9.5l10.5 8c2.66699 1.33301 5 2.66602 7 3.99902s4.33301 2.66602 7 3.99902v-1l12 8l10 6l6 4h-1
c4 3.33301 7.5 7.33301 10.5 12s5.83301 10.667 8.5 18c6 2.66699 14 5.66699 24 9s20.667 6.66602 32 9.99902v-1c13.333 3.33301 30.666 9.66602 51.999 18.999c4.66699 1.33301 8.33398 2.66602 11.001 3.99902s7.66699 3.66602 15 6.99902v-1
c2 0.666992 3.33301 1.33398 4 2.00098l2 2c0.666992 0 1.33398 0.333008 2.00098 1h-1c2 0.666992 4.83301 1.83398 8.5 3.50098l16.5 7.5c4.66699 1.33301 9.16699 2.5 13.5 3.5s10.166 1.5 17.499 1.5c12 0 23.833 -1.16699 35.5 -3.5s23.5 -4.83301 35.5 -7.5h-1
c0 -0.666992 1.33301 -1 4 -1c3.33301 0 5.33301 -0.333008 6 -1v1c1.33301 -1.33301 2.66602 -2 3.99902 -2s2.16602 -0.166992 2.49902 -0.5s1.16602 -0.5 2.49902 -0.5v1c0 -0.666992 1.33301 -1 4 -1c10 -4.66699 25 -7 45 -7c7.33301 0 13.5 1 18.5 3s12.5 6 22.5 12
l-1 -2l23 11c20.667 9.33301 40.167 19.666 58.5 30.999s31.5 29.666 39.5 54.999l3 10l31.5 -16c11 -5.33301 23.5 -8 37.5 -8c4.66699 0 8.33398 1.16699 11.001 3.5l11 9.5l4 14c2 7.33301 1.83301 13.5 -0.5 18.5s-5.5 9.5 -9.5 13.5h11c2.66699 1.33301 5 3 7 5
s4.33301 3.66699 7 5c3.33301 2.66699 6 5.16699 8 7.5s4.33301 7.83301 7 16.5l6 21c-10.667 2 -16.334 4 -17.001 6h-19h-12c-4.66699 0 -8 0.333008 -10 1c2 0.666992 3.5 1.33398 4.5 2.00098s2.83301 1.66699 5.5 3v-1c5.33301 2 11.166 4 17.499 6s16.166 6 29.499 12
l5 16c2 6 2.33301 13.333 1 22s-7.66602 13 -18.999 13c-9.33301 0 -20 -1.83301 -32 -5.5s-23.333 -7.5 -34 -11.5c5.33301 3.33301 9.66602 6.16602 12.999 8.49902s7.66602 4.83301 12.999 7.5l3 12c1.33301 3.33301 1 7 -1 11s-4.66699 7.5 -8 10.5s-7 5.5 -11 7.5
s-7 3 -9 3c-10 0 -21.167 -4.5 -33.5 -13.5s-25.166 -19.167 -38.499 -30.5l-31 -23c-9.33301 -6.66699 -18.666 -11.667 -27.999 -15l1 1c-2 0.666992 -7.33301 1 -16 1h-19c-20 0 -35.667 -1.33301 -47 -4c-3.33301 -4 -6 -7.66699 -8 -11s-3.66699 -7.66602 -5 -12.999
l-6 -21c2 -7.33301 5.66699 -12 11 -14s12.666 -3 21.999 -3l-18 -12l-18 11l-21 12c-4 0.666992 -7.33301 1.16699 -10 1.5s-5 0.5 -7 0.5h-2c0.666992 6.66699 0.333984 11.334 -0.999023 14.001c0 1.33301 0.833008 3.66602 2.5 6.99902s3.5 7.66602 5.5 12.999
c6.66699 23.333 2.66699 42.166 -12 56.499s-35 21.5 -61 21.5c-20 0 -38.833 -5 -56.5 -15s-32.167 -22 -43.5 -36c-10.667 6.66699 -21.834 12.5 -33.501 17.5s-24.167 7.5 -37.5 7.5h-10l2 -4c-2 6 -6 10.667 -12 14c-2.66699 0 -6.16699 0.166992 -10.5 0.5l-13 1
c-4.33301 0.333008 -8.33301 0.833008 -12 1.5s-6.16699 1.33398 -7.5 2.00098h-8l2 -1c-8.66699 5.33301 -17.334 8.66602 -26.001 9.99902s-17.667 2 -27 2c-21.333 0 -42 -4 -62 -12s-39.667 -17 -59 -27h-2c-1.33301 -0.666992 -2.66602 -1 -3.99902 -1
c-5.33301 2 -9 3.5 -11 4.5s-3.5 2 -4.5 3l-2 2c-0.333008 0.333008 -1.5 1.16602 -3.5 2.49902l-9.5 5.5c-3 1.66699 -8.16699 2.5 -15.5 2.5c-6 0 -13.333 -2.33301 -22 -7c-0.666992 -0.666992 -1.33398 -1 -2.00098 -1l-1 -1
c-2.66699 -1.33301 -4.83398 -2.33301 -6.50098 -3s-4.83398 -1 -9.50098 -1c-2 -0.666992 -8.33301 -1 -19 -1c-10 0 -19.333 -2.33301 -28 -7l-20 -12c-4.66699 -2.66699 -7.83398 -4.66699 -9.50098 -6s-3.83398 -2.66602 -6.50098 -3.99902
c-4.66699 -2.66699 -8.83398 -5.16699 -12.501 -7.5s-6.83398 -4.83301 -9.50098 -7.5c-3.33301 -2 -5.5 -3.33301 -6.5 -4s-2.83301 -1.66699 -5.5 -3l-1 -2h-1c-10 -6.66699 -16.333 -14.334 -19 -23.001l-1 -4c-1.33301 0 -2 0.333008 -2 1h-5
c-2 0 -3.33301 0.166992 -4 0.5s-1.33398 0.5 -2.00098 0.5c-6.66699 0 -12.167 -2 -16.5 -6l-14.5 -13l1 1l-5 -3c-1.33301 -1.33301 -2.66602 -2.16602 -3.99902 -2.49902s-2.33301 -0.833008 -3 -1.5l-8 -3c-2 -0.666992 -3.16699 -1.16699 -3.5 -1.5
s-1.5 -0.833008 -3.5 -1.5c-16 -6 -30.167 -12.333 -42.5 -19s-24.166 -17.667 -35.499 -33l-3 -10c-3.33301 -9.33301 -4.16602 -19.166 -2.49902 -29.499s6.16699 -19.166 13.5 -26.499l-1 1c2 -3.33301 5 -6.5 9 -9.5s7 -4.5 9 -4.5h6c7.33301 2 13.833 3.66699 19.5 5
s10.167 2.66602 13.5 3.99902l-1 -1c4.66699 1.33301 8.5 2.33301 11.5 3s6.16699 1.33398 9.5 2.00098l1 10c1.33301 -1.33301 2.33301 -3 3 -5s2 -2.33301 4 -1l-2 -2c0.666992 0.666992 2.33398 1 5.00098 1c3.33301 -3.33301 6.5 -6.33301 9.5 -9s6.83301 -4 11.5 -4
c4 0 9.83301 1.5 17.5 4.5s15.667 6.83301 24 11.5s16.666 9.66699 24.999 15s14.833 10.333 19.5 15l4 14c1.33301 4 1.66602 6.33301 0.999023 7l1 -1h1c2 0 3.33301 -0.333008 4 -1c4.66699 -4 11.334 -6 20.001 -6c8 0 15.667 0.666992 23 2s18.333 4.66602 33 9.99902
c14.667 12 28.5 18.833 41.5 20.5s29.833 2.5 50.5 2.5h5l-1 1c2 -2 3.66699 -3 5 -3c-0.666992 -1.33301 -1 -4 -1 -8l-4 -12c-1.33301 -2.66699 -3.66602 -5.5 -6.99902 -8.5l-11 -9.5c-20.667 -1.33301 -40.334 -8.5 -59.001 -21.5s-33.334 -28.167 -44.001 -45.5l-1 -4
l-1 1l-1 -2l-3 -6l-3 -2c-6 -4.66699 -9.33301 -7.66699 -10 -9l-6 -4c-3.33301 -2 -6.33301 -5 -9 -9c-1.33301 -1.33301 -2.66602 -3 -3.99902 -5s-2.66602 -4.33301 -3.99902 -7l1 2l-21 -22c-5.33301 -7.33301 -10 -13 -14 -17
c-3.33301 -0.666992 -7 -1.83398 -11 -3.50098s-8.33301 -3.83398 -13 -6.50098l-8 -2c-1.33301 0 -3.83301 -0.333008 -7.5 -1s-9.5 -2.66699 -17.5 -6l1 1l-3 -2c-3.33301 -1.33301 -6.83301 -2.83301 -10.5 -4.5s-7.83398 -3.83398 -12.501 -6.50098h4
c-14 -9.33301 -25.667 -19.666 -35 -30.999s-16.333 -24.666 -21 -39.999l-4 -12c-0.666992 -1.33301 -1 -4.66602 -1 -9.99902c-5.33301 -4 -9 -7.66699 -11 -11c-2 -0.666992 -4.33301 -3 -7 -7l-1 -1l1 3c-0.666992 -0.666992 -1.5 -1.66699 -2.5 -3
s-1.83301 -2.33301 -2.5 -3l-5 -4c-21.333 -15.333 -40.666 -30.333 -57.999 -45s-29.666 -33.667 -36.999 -57l-3 -9c-1.33301 -5.33301 -2.33301 -10.833 -3 -16.5s0.333008 -12.834 3 -21.501h14c4.66699 0 7.33398 0.166992 8.00098 0.5s5 2.16602 13 5.49902l3 2
l-3 -10v-8zM348.007 593.011h-2v-2z" />
    <glyph glyph-name="FL00D0h" unicode="&#xd0;" horiz-adv-x="586" 
d="M479 31c4.66699 -15.333 14.6631 -25.6562 29.9961 -30.9893h2v2l2 -3h20c4.66699 0 12.667 3 24 9l6 17c2.66699 9.33301 3.5 16.166 2.5 20.499s-3.16699 8.5 -6.5 12.5c-0.666992 0.666992 -1.33398 1 -2.00098 1c0 0.666992 -0.333008 1 -1 1s-1 0.333008 -1 1l-5 12
c-2 4.66699 -4 9 -6 13v4c-1.33301 3.33301 -2.66602 4.33301 -3.99902 3c-1.33301 4 -2.66602 9.16699 -3.99902 15.5s-2.66602 11.166 -3.99902 14.499l-1 -3c0.666992 4.66699 1.66699 10.667 3 18s2.5 14.666 3.5 21.999s2 14.166 3 20.499s1.5 10.833 1.5 13.5
c2 12 2.66699 24.333 2 37s-4.66699 23.667 -12 33c-2 3.33301 -4.83301 7.66602 -8.5 12.999s-7.5 10 -11.5 14l-5 5l-1 3c-0.666992 2 -1.66699 4 -3 6c0 1.33301 -0.166992 2.16602 -0.5 2.49902s-0.5 1.16602 -0.5 2.49902l-6 20l-2 1
c0.666992 0.666992 0.666992 1.33398 0 2.00098c-0.666992 0 -1 0.666992 -1 2c-2 4 -3 7.66699 -3 11l-6 -1c1.33301 3.33301 2.66602 6.5 3.99902 9.5s2 4.83301 2 5.5c1.33301 4 2.16602 7.66699 2.49902 11s0.833008 5.66602 1.5 6.99902
c1.33301 12 1.66602 24.667 0.999023 38s-1.66699 25.333 -3 36l-8 35h1l3 4l1 -1c11.333 4.66699 25.5 11 42.5 19s33.833 16.5 50.5 25.5s31.167 18.167 43.5 27.5s19.833 18 22.5 26l3 11l-10 10c-1.33301 1.33301 -2.66602 3.66602 -3.99902 6.99902
s-3.66602 6.66602 -6.99902 9.99902c-1.33301 3.33301 -3 6.16602 -5 8.49902s-4 4.83301 -6 7.5v-1c-1.33301 1.33301 -2.66602 3.66602 -3.99902 6.99902s-2.66602 5.66602 -3.99902 6.99902c-4 4.66699 -6 7.66699 -6 9c4 3.33301 8.16699 7.83301 12.5 13.5
s7.5 11.834 9.5 18.501l1 3c2.66699 12 -1 18 -11 18h1c-4.66699 0.666992 -7 2 -7 4l8 25c5.33301 18.667 5.33301 36.834 0 54.501s-16 30.834 -32 39.501c-5.33301 3.33301 -11.333 5.66602 -18 6.99902s-13.667 2 -21 2h-12c-14 0 -24.667 -2.5 -32 -7.5
s-14.333 -11.167 -21 -18.5c-1.33301 -1.33301 -2 -2.33301 -2 -3l4 -3l3 9l-5 -3c-1.33301 -0.666992 -2.16602 -1.33398 -2.49902 -2.00098l-0.5 -1c-0.666992 -2 -3.66699 -4.66699 -9 -8c-0.666992 -0.666992 -1 -1.33398 -1 -2.00098l-2 -1
c-1.33301 -0.666992 -2 -1.33398 -2 -2.00098l-2 -2c-6 -5.33301 -11.667 -10.666 -17 -15.999s-9.66602 -13.666 -12.999 -24.999c-3.33301 -10 -3 -20.333 1 -31v-1c-2 -2 -4 -3.33301 -6 -4c-2 -2 -5 -3.66699 -9 -5c-0.666992 -0.666992 -2.66699 -2.33398 -6 -5.00098
s-6.66602 -5.66699 -9.99902 -9v2l-29 -25c-4 -3.33301 -8.16699 -6.33301 -12.5 -9l-13.5 -8c-20 -10.667 -39 -22.334 -57 -35.001s-28.667 -25 -32 -37c-3.33301 -10.667 -4.33301 -20 -3 -28s3.66602 -15.667 6.99902 -23v-3l4 -10.5l2 -5.5l-1.5 -7.5l-0.5 -2.5
l-20 -27l-114 -141l-8 -25h18l-2 -6l15 -4c-3.33301 -4 -6 -8.16699 -8 -12.5s-4 -9.16602 -6 -14.499h36l-3 -9h16c7.33301 0 15 2 23 6l-30 -58c-3.33301 -10 -5.5 -19 -6.5 -27s-1.83301 -15.667 -2.5 -23c0 -3.33301 -0.333008 -5.66602 -1 -6.99902
c-1.33301 -2 -1.66602 -4 -0.999023 -6s0.666992 -4 0 -6c-0.666992 -0.666992 -1 -2.66699 -1 -6c-0.666992 -8 -1.16699 -15.667 -1.5 -23s-1.5 -13.666 -3.5 -18.999c-1.33301 -5.33301 -5.83301 -12 -13.5 -20s-15.5 -15 -23.5 -21l-6 -4
c-6.66699 -4.66699 -12 -9.33398 -16 -14.001s-7.66699 -11.667 -11 -21c-4.66699 -16.667 0.666016 -25 15.999 -25c13.333 0 27.333 3.33301 42 10s27.334 16 38.001 28l-4 -5h2c6 0 11 1.5 15 4.5s7.5 6.5 10.5 10.5s5.33301 8.33301 7 13l4.5 13
c2.66699 12.667 2.66699 22 0 28l-0.5 0.5c-0.333008 0.333008 -0.5 0.833008 -0.5 1.5c0.666992 2 1 4 1 6v4l5 15c1.33301 6 4.5 12.833 9.5 20.5s10.167 15.167 15.5 22.5c4.66699 6.66699 9 13.5 13 20.5s7.66699 16.167 11 27.5l7 31l31 51c0 0.666992 1 3 3 7l5 10
l2 7c0.666992 1.33301 1.66699 5.33301 3 12s2.66602 13 3.99902 19c0 3.33301 0.666992 5.66602 2 6.99902l1 4l14 38c1.33301 -4 2.66602 -7.66699 3.99902 -11s3 -6.66602 5 -9.99902v-3h1l5 -13l6 -16c2 -5.33301 3.83301 -9.83301 5.5 -13.5s2.83398 -5.5 3.50098 -5.5
c0 -4.66699 1.33301 -8.33398 4 -11.001c0 -1.33301 0.333008 -2.66602 1 -3.99902l1 -2l-2 1l10 -29c2.66699 -8 5.33398 -14.667 8.00098 -20c1.33301 -1.33301 3.83301 -4.66602 7.5 -9.99902s5.5 -8.33301 5.5 -9c2 -5.33301 3.16699 -9 3.5 -11
s0.166016 -4 -0.500977 -6l1 1c-0.666992 -0.666992 -0.666992 -1.33398 0 -2.00098l1 -1c-1.33301 -7.33301 -1.66602 -14.333 -0.999023 -21s3.66699 -12.667 9 -18c1.33301 -2 3 -4.33301 5 -7s4.66699 -5.33398 8 -8.00098l14 -16c4.66699 -8 7.66699 -16 9 -24
s2.66602 -16.667 3.99902 -26h1v-2l2 -11c0 -0.666992 0.166992 -1.83398 0.5 -3.50098s-0.166992 -3.5 -1.5 -5.5c-0.666992 -5.33301 -0.833984 -9.66602 -0.500977 -12.999s1.5 -7.66602 3.5 -12.999l1 2v-38zM501.996 560.01l-17.9971 -0.000976562
c3.33301 2.66699 5.66602 4.83398 6.99902 6.50098s3.66602 4.16699 6.99902 7.5l26 23h-4l14 14l3 4l18 -25l-25 -23l1 2l-2 -3l-6 -4l2 2c-2.66699 0 -4.33398 -1.33301 -5.00098 -4l-6 -2l-5 -3l-3 4zM325.999 589.009l4 2c3.33301 2.66699 7.83301 5.5 13.5 8.5
s13.167 4.5 22.5 4.5l-1 -3c-1.33301 -3.33301 -5.5 -6.83301 -12.5 -10.5l-18.5 -9.5l-4 -2l3 2c-1.33301 -0.666992 -3.33301 -1 -6 -1l-3 -2h-1l1 1h-1l1 4zM426.999 727.009l-23.5 -8.5c-6.33301 -2.33301 -7.5 -3.5 -3.5 -3.5c7.33301 2.66699 13 5 17 7z
M364.999 386.009h-1v3c-1.33301 -2 -1 -3 1 -3zM322.999 578.009l-1 -1z" />
    <glyph glyph-name="one" unicode="&#xd1;" horiz-adv-x="946" 
d="M219 77l102.001 202.998l-153 175l8 27c8 0.666992 14.333 1.33398 19 2.00098l10.5 1.5c2.33301 0.333008 4 0.666016 5 0.999023l4.5 1.5l28 3c12.667 1.33301 27 3 43 5s33.167 4 51.5 6l53.5 6c22 2.66699 41.167 4.83398 57.5 6.50098
s28.166 2.83398 35.499 3.50098l6 2l-2 -4l182 205l11 10l8 5c2.66699 2 8.66699 4.33301 18 7l64 -225l279 -30l19 -20l-279 -186l-29 -252h-30l-218 108l-311 -114z" />
    <glyph glyph-name="AE" unicode="&#xd2;" horiz-adv-x="962" 
d="M211 170c-2.66699 -10 -2.00098 -18.668 1.99902 -26.001l1 2c8.66699 -9.33301 21.334 -16.166 38.001 -20.499s37 -6.5 61 -6.5c42 0 89 5.66699 141 17s107.333 27.666 166 48.999c38 14.667 74 30.667 108 48s64.167 34.666 90.5 51.999s48 34.333 65 51
s27.5 31.667 31.5 45l-2 3c-1.33301 2 -3 4.33301 -5 7c-1.33301 0.666992 -2.16602 2.33398 -2.49902 5.00098s-2.16602 6.33398 -5.49902 11.001v-2c-4.66699 6.66699 -14 11.167 -28 13.5s-31 3.5 -51 3.5c-46 0 -98.833 -7.33301 -158.5 -22s-122.5 -33.667 -188.5 -57
c-36.667 -14.667 -70.334 -29.5 -101.001 -44.5s-57.334 -30 -80.001 -45s-41 -29.5 -55 -43.5s-23 -27.333 -27 -40zM89.999 80.999c-17.333 21.333 -21.3291 48 -11.9961 80c6.66699 22 20 44.833 40 68.5s45.667 47.5 77 71.5s67.666 47.167 108.999 69.5
s86.666 42.833 135.999 61.5c74 28 145 48.833 213 62.5s130.333 20.5 187 20.5c46 0 85.333 -4.83301 118 -14.5s57.667 -24.834 75 -45.501v1c18.667 -20.667 23.334 -46.667 14.001 -78c-6.66699 -21.333 -20.334 -44.166 -41.001 -68.499s-46.834 -48.5 -78.501 -72.5
s-68.167 -47.333 -109.5 -70s-86.333 -43 -135 -61c-74.667 -30 -146.334 -51.833 -215.001 -65.5s-132 -20.5 -190 -20.5c-46 0 -84.5 5.33301 -115.5 16s-55.167 25.667 -72.5 45z" />
    <glyph glyph-name="FL00F7h" unicode="&#xd3;" horiz-adv-x="1588" 
d="M109 243l669.005 -55.0029l19 -98l12 -11c11.333 3.33301 18.166 6.5 20.499 9.5s4.16602 6.16699 5.49902 9.5v-1c0 0.666992 0.333008 1.33398 1 2.00098l66 84c7.33301 9.33301 14.5 15 21.5 17s16.167 3 27.5 3h13c8.66699 0 14 0.333008 16 1h6
c15.333 0.666992 39.666 2 72.999 4s72 4.66699 116 8l65.5 4l66.5 4l99 6l91.5 5.5l75 4.5c21.667 1.33301 38.5 2.33301 50.5 3l11 31l-624 46l42 61c0.666992 0.666992 1 1.33398 1 2.00098l2 2l1.5 4.5l2.5 7.5l4 13c-4 0 -8 -0.166992 -12 -0.5
s-8.66699 -1.16602 -14 -2.49902l-77 -24l2 1h-2c1.33301 4 2.16602 8.5 2.49902 13.5s1.16602 10.167 2.49902 15.5l2 12.5c0.666992 4.33301 1 8.5 1 12.5v-1c0.666992 13.333 1.66699 28 3 44s2.5 32 3.5 48l3 46c1 14.667 1.5 27.667 1.5 39l-36 -38l-100 -190l-82 26
l-10 -31c-0.666992 1.33301 -0.666992 -2.16699 0 -10.5s1.66699 -15.5 3 -21.5c0.666992 -3.33301 0.666992 -6.5 0 -9.5s-0.333984 -6.16699 0.999023 -9.5v1c0.666992 -0.666992 0.333984 -2.66699 -0.999023 -6v-5l-635 -46z" />
    <glyph glyph-name="Ntilde" unicode="&#xd4;" horiz-adv-x="553" 
d="M447 317c0 0.666992 0.333008 1 1 1zM282 580c-2 2.66699 -4.33105 9.99805 -6.99805 21.998l19 19c5.33301 0 9 -3.16699 11 -9.5s3.33301 -12.166 4 -17.499c2.66699 -4.66699 4.33398 -11 5.00098 -19l2 1c2.66699 -6 3.83398 -10 3.50098 -12
s0.166992 -4.66699 1.5 -8l1 -2c6 -11.333 9 -24.666 9 -39.999l1 1l1 -21c0 -0.666992 0.5 -1.66699 1.5 -3s2.16699 -2 3.5 -2c0 -3.33301 0.833008 -12 2.5 -26s3.66699 -29.333 6 -46s4.66602 -31.834 6.99902 -45.501s4.16602 -21.5 5.49902 -23.5v4h18
c3.33301 1.33301 6.33301 2.83301 9 4.5s10 7.16699 22 16.5l-3 -10c0.666992 2 2.33398 4.33301 5.00098 7c3.33301 4 5.16602 6.33301 5.49902 7s1.16602 1.66699 2.49902 3l20.5 21c6.33301 6.66699 12.833 14 19.5 22v-1l1.5 3l1.5 3c0 0.666992 0.666992 1.66699 2 3
c0.666992 1.33301 1.33398 3 2.00098 5s1.66699 4 3 6l-1 -3c10.667 19.333 19.5 38 26.5 56s13.167 36.667 18.5 56l6 19c0.666992 2.66699 1.16699 5.16699 1.5 7.5s0.833008 5.16602 1.5 8.49902c0 1.33301 -0.166992 3.33301 -0.5 6s-0.166016 6 0.500977 10
c-0.666992 5.33301 -0.5 9.33301 0.5 12s1.83301 8.33398 2.5 17.001l7 23l24 2l-2 -12c-0.666992 -3.33301 -0.666992 -6.33301 0 -9s0.333984 -5.66699 -0.999023 -9l1 1c-1.33301 -16.667 -2.66602 -32.5 -3.99902 -47.5s-4.66602 -31.167 -9.99902 -48.5l-4 -15l-25 -52
l-2 -7c-1.33301 -2.66699 -2.33301 -5.16699 -3 -7.5s-1.33398 -4.16602 -2.00098 -5.49902l-7 -23l-7 -15c-3.33301 -6.66699 -7.83301 -13.167 -13.5 -19.5s-13.167 -13.833 -22.5 -22.5c-2.66699 -2.66699 -5 -5.16699 -7 -7.5s-4.33301 -4.5 -7 -6.5
c14 7.33301 27.333 15.333 40 24s25 17.667 37 27c4.66699 3.33301 7.33398 5.66602 8.00098 6.99902c2.66699 2 5.5 4.33301 8.5 7s6.16699 5.33398 9.5 8.00098c5.33301 4 10.333 8 15 12s9.66699 8 15 12l-1 -1c1.33301 2.66699 5.16602 7 11.499 13l20 19
c7 6.66699 13.5 12.5 19.5 17.5l9 7.5c4.66699 0 7.5 -2.16699 8.5 -6.5s0.5 -9.16602 -1.5 -14.499c-7.33301 -8.66699 -13.333 -15.5 -18 -20.5l-12 -12.5l1 1l-21 -20c-0.666992 -0.666992 -1 -1.33398 -1 -2.00098s-0.333008 -1.33398 -1 -2.00098
c-2.66699 -4 -4.66699 -7.66699 -6 -11l-2 -2v-1l-3 -2h5l-36 -24c-4 -2.66699 -6.33301 -5.33398 -7 -8.00098c-0.666992 -0.666992 -1.33398 -1 -2.00098 -1v0l-1 -1c-4 -4 -8.16699 -7.83301 -12.5 -11.5s-9.83301 -7.83398 -16.5 -12.501l-32 -19l-20 -13l-1 1
c-3.33301 -2 -5 -3.33301 -5 -4c-3.33301 -1.33301 -6.5 -3 -9.5 -5s-5.83301 -3.66699 -8.5 -5h8c2 0 4 -0.166992 6 -0.5s4.33301 -0.833008 7 -1.5c2 -0.666992 4 -0.833984 6 -0.500977s3.66699 0.166016 5 -0.500977h-1c0.666992 -0.666992 3 -1 7 -1
c3.33301 0 5.33301 -0.333008 6 -1c7.33301 -1.33301 14.5 -2.5 21.5 -3.5s14.167 -1.5 21.5 -1.5h21c3.33301 0 7 1.16699 11 3.5s8.66699 4.83301 14 7.5l10 7v-1c8 5.33301 16.5 10.5 25.5 15.5s18.167 7.5 27.5 7.5l-9 -29l-20 -12
c-11.333 -8.66699 -23.333 -17 -36 -25s-25 -12.667 -37 -14h-6c-2 0 -3.5 -0.166992 -4.5 -0.5s-2.16699 -0.5 -3.5 -0.5h-39c-8.66699 0 -16.334 1.66699 -23.001 5v-1c-2 0.666992 -4.83301 1.5 -8.5 2.5l-12.5 3.5c8.66699 -10 15.667 -20.5 21 -31.5
s8.33301 -23.167 9 -36.5l2 -96l-2 -7c-1.33301 -3.33301 -5.33301 -9.83301 -12 -19.5l-22 -30.5c-8 -10.667 -15.5 -20.167 -22.5 -28.5s-11.5 -12.5 -13.5 -12.5h-24c15.333 17.333 26.166 31 32.499 41s12.166 18.667 17.499 26l-1 -1l7 15
c0.666992 4.66699 0.833984 9.16699 0.500977 13.5s-0.166016 9.16602 0.500977 14.499c0 2.66699 -0.166992 5.5 -0.5 8.5s-0.166016 5.83301 0.500977 8.5c-0.666992 7.33301 -0.833984 14.5 -0.500977 21.5s0.5 14.833 0.5 23.5l-1 -3c-3.33301 6 -6 15.333 -8 28v-1
c-2 2 -3 4.66699 -3 8c-0.666992 -0.666992 -1 -1.33398 -1 -2.00098c-2.66699 -1.33301 -4.33398 -2.66602 -5.00098 -3.99902s-1.33398 -2.33301 -2.00098 -3c-9.33301 -9.33301 -18.833 -17.666 -28.5 -24.999s-22.5 -11 -38.5 -11c-12 0 -21 3.66699 -27 11
s-9.66699 16 -11 26l-2 -5l-4 -1l2 3c-9.33301 -7.33301 -16.666 -15.166 -21.999 -23.499s-10 -16.5 -14 -24.5c-1.33301 -1.33301 -1.83301 -2.16602 -1.5 -2.49902s-0.166992 -1.16602 -1.5 -2.49902c-4 -5.33301 -7.83301 -11 -11.5 -17s-8.16699 -12 -13.5 -18l-2 -7
c-0.666992 -2 -1.5 -4 -2.5 -6s-1.83301 -4 -2.5 -6l-4 -14l-3 -9c0 -0.666992 -0.166992 -2 -0.5 -4s-0.833008 -4.66699 -1.5 -8c-0.666992 -1.33301 -0.833984 -5.33301 -0.500977 -12s1.16602 -10.667 2.49902 -12l-4 -14
c-0.666992 -1.33301 -1.5 -4.16602 -2.5 -8.49902s-1.5 -6.83301 -1.5 -7.5h-21l-5 17c0 16 1.5 32.5 4.5 49.5s6.83301 33.5 11.5 49.5l3 9l7 9c1.33301 1.33301 2.66602 2.83301 3.99902 4.5s2.66602 3.16699 3.99902 4.5c4.66699 6 9.16699 12.333 13.5 19
s8.16602 13 11.499 19l13 17c3.33301 6 6.33301 11.667 9 17s6.33398 10.666 11.001 15.999c-8.66699 -4.66699 -17.334 -7.66699 -26.001 -9l-54 -2h-7c-10 0 -18.667 3.16699 -26 9.5s-14.666 13.166 -21.999 20.499l-11 15v-3l-2 3v-2l-3 3h-11l14 46l57 -46l65 -5h1
l-2 -1c4.66699 2 8.33398 3.5 11.001 4.5s4.66699 1.66699 6 2s2.66602 1 3.99902 2l6 4.5c4 2 7.16699 3.66699 9.5 5s6.16602 3.33301 11.499 6c3.33301 1.33301 6.83301 3 10.5 5s7.16699 3.66699 10.5 5c-2.66699 6 -5.33398 10.333 -8.00098 13l-4 2l-4 6l1 -2
c-1.33301 0.666992 -1.66602 3 -0.999023 7s1.66699 8.33301 3 13l-7 -5c0 2 -2 5.66699 -6 11l-4 4v-1c-3.33301 2.66699 -6.66602 5.83398 -9.99902 9.50098s-5 6.83398 -5 9.50098l2 6l-17 19c-2 0.666992 -5.16699 3.33398 -9.5 8.00098s-8.5 9.66699 -12.5 15
s-7.5 10.333 -10.5 15s-4.5 7.33398 -4.5 8.00098l3 9l-4 3h7c0.666992 0.666992 1.83398 1.66699 3.50098 3l6.5 5l9 -8h3l2 -5c4 -4 7 -6.66699 9 -8l20 -18c7.33301 -6.66699 13 -11.667 17 -15c-0.666992 -0.666992 0.833008 -1.16699 4.5 -1.5s6.16699 -0.5 7.5 -0.5
c0 -1.33301 1 -2 3 -2v-11l3 2l1 -6l-1 12c-1.33301 6.66699 -2.33301 13.334 -3 20.001s-1 13.334 -1 20.001c-0.666992 3.33301 -1.16699 6.66602 -1.5 9.99902s-0.5 6.66602 -0.5 9.99902c0 6 -0.666992 10.333 -2 13c-2 7.33301 -3.16699 15 -3.5 23
s-0.833008 15 -1.5 21c-0.666992 4.66699 -1.16699 9 -1.5 13s-0.5 8 -0.5 12c0 8 -1 15.667 -3 23h-6c0.666992 1.33301 0.333984 3.66602 -0.999023 6.99902s-3 5.33301 -5 6z" />
    <glyph glyph-name="comma" unicode="&#xd5;" horiz-adv-x="1989" 
d="M879 227c0.666992 0.666992 0 1 -2 1zM942 74l1 4l-2 -4h1zM1745 327c4.66699 2 9.33008 5.16895 13.9971 9.50195s8.33398 8.16602 11.001 11.499h-3c-5.33301 -1.33301 -10.166 -3.83301 -14.499 -7.5s-7.16602 -7.16699 -8.49902 -10.5
c0.666992 -0.666992 0.666992 -1.33398 0 -2.00098zM529.996 147.002c0 -10.667 -0.166016 -21.501 -0.499023 -32.501s-0.833008 -21.833 -1.5 -32.5l63 147l5 16c0 0.666992 -0.166992 2 -0.5 4s0.166992 4.66699 1.5 8v3l7 43c1.33301 10 3 19.667 5 29
s3.66699 18.666 5 27.999v-1v8c0 1.33301 0.666992 4 2 8c2.66699 14 5.16699 28.167 7.5 42.5s4.16602 28.5 5.49902 42.5c-16.667 -32.667 -30.167 -64.167 -40.5 -94.5l-31.5 -96.5l-4 -18l-24 -77v-1c0 -5.33301 -0.166992 -10.166 -0.5 -14.499
s0.166992 -8.16602 1.5 -11.499zM1125 267.001c-11.333 -38 -11.333 -71.332 0 -99.999s31 -56 59 -82l4 -4c4.66699 -5.33301 8.83398 -8.83301 12.501 -10.5s9.16699 -2.5 16.5 -2.5c6.66699 0 11.834 0.666992 15.501 2s8.83398 4.33301 15.501 9
c24.667 14.667 48.667 30 72 46s44.666 32.667 63.999 50s36.166 35.666 50.499 54.999s24.833 39.666 31.5 60.999c6 18.667 7.66699 37.834 5 57.501s-9.16699 38.167 -19.5 55.5s-24 32.5 -41 45.5s-36.5 22.5 -58.5 28.5l-4.5 -1.5
c-1 -0.333008 -2.83301 -0.833008 -5.5 -1.5c-6.66699 -3.33301 -14.334 -6.66602 -23.001 -9.99902l-26 -10.5l-25 -11c-8 -3.66699 -14.667 -7.16699 -20 -10.5c44 -14 76.333 -34 97 -60s24.334 -61.333 11.001 -106c-2 -6.66699 -6.33301 -17 -13 -31
s-14.834 -28.167 -24.501 -42.5s-20.834 -26.833 -33.501 -37.5s-26 -16 -40 -16c-13.333 0 -23.333 5.16699 -30 15.5s-11.334 22.333 -14.001 36s-3.5 27.667 -2.5 42s2.83301 25.5 5.5 33.5c4 14 8.83301 26.667 14.5 38s13.834 23 24.501 35
c-19.333 -0.666992 -39.166 -3.33398 -59.499 -8.00098s-35.5 -12.667 -45.5 -24l-4 -12c0 -0.666992 -0.333008 -1.66699 -1 -3l-2 -4zM878.997 224.002c2 -1.33301 2.99805 -2.33496 2.99805 -3.00195s0.666992 -1.66699 2 -3l4 -5l-44 -145c1.33301 2 6.5 3.5 15.5 4.5
s16.833 1.5 23.5 1.5h12l27 -1c10.667 0 17 0.333008 19 1l77 254c7.33301 24 14.833 46.833 22.5 68.5s18.5 44.834 32.5 69.501h-14c-3.33301 0 -10 -0.166992 -20 -0.5l-31.5 -1c-11 -0.333008 -21 -1 -30 -2s-13.833 -2.16699 -14.5 -3.5l-52 -170
c-9.33301 0 -21.5 2 -36.5 6s-29.167 9.33301 -42.5 16s-24.166 14.667 -32.499 24s-10.833 19.333 -7.5 30l42 104c-22.667 -1.33301 -44.667 -4.16602 -66 -8.49902s-42.666 -11.166 -63.999 -20.499l-34 -173l-68 -188c7.33301 -2 14.333 -3.33301 21 -4
s14.334 -1.33398 23.001 -2.00098h44h7c5.33301 0 9 0.333008 11 1v1l60 197c9.33301 0 19 -1.33301 29 -4s19.667 -6.16699 29 -10.5s18.166 -8.83301 26.499 -13.5s15.5 -9 21.5 -13l2 -2l3 -3v1l2 -1zM1789 394c6 0 11.999 -0.326172 17.999 -0.993164s11.333 -2 16 -4
s8 -5.16699 10 -9.5s2 -9.83301 0 -16.5c-3.33301 -10 -10.5 -20.833 -21.5 -32.5s-24 -22.834 -39 -33.501s-30.667 -19.834 -47 -27.501s-31.5 -12.167 -45.5 -13.5c21.333 -19.333 37.166 -39.333 47.499 -60s18.833 -39 25.5 -55
c0.666992 -3.33301 1.16699 -6.83301 1.5 -10.5s0.833008 -8.5 1.5 -14.5c0.666992 -8.66699 1.66699 -17.667 3 -27s4.33301 -14 9 -14h106l-8 15.5c-3.33301 6.33301 -6.33301 13.166 -9 20.499l-14 26v-1c-11.333 19.333 -21.333 39.166 -30 59.499s-10 40.5 -4 60.5
c2 0.666992 3 2 3 4l108 70c8 5.33301 15.5 11.166 22.5 17.499s11.5 12.833 13.5 19.5c5.33301 16.667 1.83301 31.167 -10.5 43.5s-28.5 22.666 -48.5 30.999s-41.833 14.5 -65.5 18.5s-44.5 6 -62.5 6h-37c-18.667 0 -38.667 -1.33301 -60 -4
s-38.666 -8.33398 -51.999 -17.001c-6 -59.333 -19.667 -124.333 -41 -195l-72 -171h2c1.33301 0 1.66602 -0.166992 0.999023 -0.5s-0.333984 -0.5 0.999023 -0.5c2.66699 -2 8.33398 -3 17.001 -3h98c0.666992 0 1.33398 -0.333008 2.00098 -1l24 110l35 113l9.5 22
l10.5 25.5l9 22.5c2.66699 6.66699 4.33398 10.667 5.00098 12l22 13h4c3.33301 0 5.33301 0.333008 6 1s4 1 10 1h10h16zM382.994 291.007c-11.333 -38 -23.8271 -73.667 -37.4941 -107s-30.5 -67.333 -50.5 -102h155c-0.666992 4 -0.333984 9.16699 0.999023 15.5
s1.66602 12.5 0.999023 18.5c1.33301 8 2.33301 16.333 3 25s1 14.667 1 18l57 187c9.33301 32 18.666 61.833 27.999 89.5s21.333 58.167 36 91.5c9.33301 15.333 23.666 23 42.999 23c16.667 0 34.334 -2 53.001 -6s35.667 -8 51 -12
c1.33301 -0.666992 2.66602 -1.16699 3.99902 -1.5s3 -0.833008 5 -1.5l4.5 -1.5l1.5 -0.5c3.33301 0 5.33301 -0.333008 6 -1c2 20.667 2.66699 39.167 2 55.5s-2.33398 34.833 -5.00098 55.5l-1 -1l-4 9l1 -4l-79 -13h-242l-63 13l5 5l-18 -21
c-14 -16.667 -27.333 -33.334 -40 -50.001s-22.667 -33.334 -30 -50.001c9.33301 0.666992 18.833 2 28.5 4s20.167 4.33301 31.5 7v-1c1.33301 0.666992 3.5 1.5 6.5 2.5l7.5 2.5c10 2.66699 20.333 4.83398 31 6.50098s23 2.5 37 2.5h6c1.33301 0 3.5 -0.166992 6.5 -0.5
s7.16699 -0.833008 12.5 -1.5c0.666992 -8 1.16699 -14.167 1.5 -18.5s0.5 -7.83301 0.5 -10.5s-0.333008 -5.16699 -1 -7.5s-1.33398 -5.16602 -2.00098 -8.49902l-13 -56l-12 -51c-4 -16.667 -8.33301 -33.5 -13 -50.5s-10 -34.833 -16 -53.5zM1066 110.007
c-1.33301 1.33301 -2.17188 2.50684 -2.50488 3.50684s-1.16602 2.16699 -2.49902 3.5c-3.33301 4.66699 -6.16602 9.16699 -8.49902 13.5s-4.5 8.16602 -6.5 11.499c-1.33301 -6.66699 -2 -12 -2 -16v-15c0 -3.33301 -0.333008 -5.33301 -1 -6
c-1.33301 -2 -1.33301 -4 0 -6c-0.666992 -7.33301 -1.33398 -14 -2.00098 -20s-2.66699 -14.667 -6 -26l-10 -28c-23.333 -7.33301 -43.333 -12.166 -60 -14.499s-32 -3.5 -46 -3.5h-93c-4.66699 0 -8.83398 0.166992 -12.501 0.5s-6.5 0.5 -8.5 0.5h-14l-46 14l2 1l-19 -6
c-2 -0.666992 -3.16699 -1.16699 -3.5 -1.5s-1.83301 -0.833008 -4.5 -1.5l1 1c-14.667 -5.33301 -23.334 -8 -26.001 -8h-82c-10 0 -20.667 0.333008 -32 1s-22 2 -32 4s-18.5 4.83301 -25.5 8.5s-10.833 8.83398 -11.5 15.501c-4.66699 -4 -10.667 -7.83301 -18 -11.5
s-15 -6.66699 -23 -9s-15.5 -4.16602 -22.5 -5.49902s-12.833 -2 -17.5 -2l-10 -1h-112c-2.66699 0 -5.16699 -0.166992 -7.5 -0.5s-5.16602 -0.5 -8.49902 -0.5c-19.333 0 -38.5 1 -57.5 3s-34.167 6.66699 -45.5 14c-1.33301 4 -2.33301 6.66699 -3 8s-0.666992 3 0 5
s2 4.83301 4 8.5l10 17.5l16.5 27l18.5 30c6 10 11.833 19.167 17.5 27.5l13.5 19.5l45 147c6.66699 22 12.334 43 17.001 63l16 68c0.666992 1.33301 0.666992 2.66602 0 3.99902s-0.666992 2.66602 0 3.99902c0 3.33301 0.333008 5.66602 1 6.99902l3 9
c0.666992 1.33301 0.833984 2.33301 0.500977 3s-0.166016 1.66699 0.500977 3h-10c-28.667 0 -52.167 -4.83301 -70.5 -14.5s-34.166 -19.5 -47.499 -29.5l-4 -3c-11.333 -8 -22 -14.667 -32 -20s-21.667 -8 -35 -8c18 59.333 41.667 116 71 170
s69.666 106.333 120.999 157l53 -13c16.667 -4 33.167 -7.33301 49.5 -10s33.166 -4.66699 50.499 -6s36.333 -2 57 -2h43h22c10.667 0 21.5 0.5 32.5 1.5s26.5 3.16699 46.5 6.5c5.33301 0.666992 11 1.5 17 2.5s12 2.83301 18 5.5c2 0.666992 4.33301 1.5 7 2.5
s3.33398 1.16699 2.00098 0.5l24 7c6.66699 2 12 3 16 3c9.33301 0 16.5 -4.66699 21.5 -14s8.83301 -21 11.5 -35s4.5 -29.333 5.5 -46s2.16699 -32.334 3.5 -47.001c0.666992 -8 0.833984 -15.667 0.500977 -23s-0.166016 -13.333 0.500977 -18h120l-6 -20l247 23
c-8.66699 -28 -17.5 -51.333 -26.5 -70s-18.167 -36.667 -27.5 -54h-1l-15 -28.5c-4.66699 -9 -8.66699 -17.167 -12 -24.5c3.33301 1.33301 6.66602 3 9.99902 5s6.66602 3.66699 9.99902 5v2l-4 7c8 16 23 33.5 45 52.5s46 36.667 72 53s51.667 30 77 41
s45.666 16.5 60.999 16.5h5c1.33301 0 2.33301 -0.166992 3 -0.5s2 -0.5 4 -0.5h6c32.667 -15.333 60.334 -30.833 83.001 -46.5s41 -35.167 55 -58.5c0.666992 2.66699 1.33398 5.5 2.00098 8.5s1.66699 6.83301 3 11.5c2.66699 9.33301 9.33398 17.833 20.001 25.5
s23.5 14.667 38.5 21s31.333 11.833 49 16.5s34.834 8.66699 51.501 12s32 5.83301 46 7.5s24.667 2.5 32 2.5c16.667 0 35.834 -1.66699 57.501 -5s43.667 -8.5 66 -15.5s43.666 -15.5 63.999 -25.5s37.833 -21.667 52.5 -35s25.334 -28 32.001 -44s7 -33.667 1 -53
c-3.33301 -12 -10.833 -24.667 -22.5 -38s-25.167 -26.333 -40.5 -39s-30.833 -24.334 -46.5 -35.001s-29.167 -19.334 -40.5 -26.001c8 -12.667 15.167 -25.834 21.5 -39.501s12.5 -27.834 18.5 -42.501c1.33301 -1.33301 2 -3 2 -5s0.666992 -3.66699 2 -5
c0.666992 -3.33301 1.66699 -6.16602 3 -8.49902s2.66602 -5.16602 3.99902 -8.49902l12.5 -32.5c4.33301 -11 11.166 -22.5 20.499 -34.5c-8 -10 -18.167 -18.167 -30.5 -24.5s-25.5 -11.333 -39.5 -15s-28 -6.16699 -42 -7.5s-27 -2 -39 -2h-38l-117 9l-126 -9h-18
c-2 0 -4.16699 0.166992 -6.5 0.5s-4.5 0.5 -6.5 0.5h-32c-11.333 0 -22.666 2.16699 -33.999 6.5s-18 8.5 -20 12.5l1 -4h-31c6.66699 21.333 13.667 39.5 21 54.5s15.666 29.833 24.999 44.5c1.33301 1.33301 2 2.66602 2 3.99902s0.666992 2.66602 2 3.99902l-1 -1l18 31
c6 10 10.667 19.667 14 29l-2 -2c-0.666992 -1.33301 -1.66699 -2.5 -3 -3.5s-2.66602 -2.16699 -3.99902 -3.5l-3 -5l-2 1c-14.667 -17.333 -32.667 -36.333 -54 -57s-44.333 -39.834 -69 -57.501s-50.667 -32.5 -78 -44.5s-54.333 -18 -81 -18
c-15.333 0 -29 3.66699 -41 11s-22.833 16.5 -32.5 27.5s-18.334 23.167 -26.001 36.5s-14.5 26 -20.5 38z" />
    <glyph glyph-name="slash" unicode="&#xd6;" horiz-adv-x="1598" 
d="M206 357c-4 -12 -6.49707 -23.667 -7.49707 -35s0.5 -21.333 4.5 -30s10.667 -15.667 20 -21s22.333 -8 39 -8h13c2 0 4 0.166992 6 0.5s7.66699 1.83301 17 4.5v-1c-15.333 -8.66699 -30.833 -19.167 -46.5 -31.5s-32.167 -27.166 -49.5 -44.499
c-29.333 -27.333 -58.333 -55.833 -87 -85.5l-97 -104.5l49 -2h12c20 0 35.167 1.66699 45.5 5s20.833 7.33301 31.5 12c0.666992 0.666992 2 1.33398 4 2.00098s3.33301 1.33398 4 2.00098v-1c5.33301 2.66699 11.833 5.16699 19.5 7.5s18.5 4.83301 32.5 7.5l-4 -15h78
l-2 2l6 -6l7 10c6 -8 8.66699 -12 8 -12h18c1.33301 0 2.83301 0.166992 4.5 0.5s3.16699 0.5 4.5 0.5h13c4 0 9.66699 2 17 6s14.5 8.5 21.5 13.5s13 9.5 18 13.5l7.5 6l11 -27l12 11l-3 -4c0.666992 0 7.33398 3.33301 20.001 10l-5 -18h13c4.66699 0 10.167 0.5 16.5 1.5
s14.166 2.16699 23.499 3.5c8 0.666992 14 1.66699 18 3c2 0 3.66699 0.166992 5 0.5s2.66602 0.5 3.99902 0.5c2 0 3.33301 0.166992 4 0.5s1.66699 0.5 3 0.5l-1 2l13 -10c1.33301 -0.666992 4.66602 -1 9.99902 -1c13.333 0 25.166 0.666992 35.499 2l32.5 4
c2 0 5.66699 0.5 11 1.5s11.666 1.5 18.999 1.5c8 0 13 0.333008 15 1h98l3 2c2.66699 1.33301 4.33398 2.66602 5.00098 3.99902s2.66699 3 6 5l2 2l1 -1c8.66699 3.33301 14.167 5.66602 16.5 6.99902s4.83301 2.66602 7.5 3.99902l1 1l3 1l-9 -27h76
c7.33301 0 13.5 0.166992 18.5 0.5s9.5 0.833008 13.5 1.5l13 1c23.333 0 43.666 2 60.999 6s35 15 53 33c1.33301 -9.33301 4.5 -18.333 9.5 -27s11.5 -13 19.5 -13h73l19 6c-0.666992 -2 -1.16699 -3.83301 -1.5 -5.5s0.166992 -4.16699 1.5 -7.5
c12 -4.66699 23.5 -7.66699 34.5 -9s22.5 -2 34.5 -2c9.33301 0 19.666 3.16699 30.999 9.5s24 13.833 38 22.5l1 0.5c0.666992 0.333008 1.33398 0.5 2.00098 0.5s1 -0.333008 1 -1h2l-8 -13l-6 -22c5.33301 -0.666992 10 -1.16699 14 -1.5s7.33301 -1.16602 10 -2.49902
c0.666992 -0.666992 2.33398 -1 5.00098 -1s4.33398 -0.333008 5.00098 -1c6.66699 -1.33301 13 -2.5 19 -3.5s13.667 -1.5 23 -1.5c7.33301 0 13.333 1 18 3s9.66699 4.66699 15 8l1 1c1.33301 0.666992 3.16602 1.16699 5.49902 1.5s6.83301 0.833008 13.5 1.5
c32 40 61.833 81.667 89.5 125s53.167 87 76.5 131c-18.667 7.33301 -33 11.666 -43 12.999s-20.667 2 -32 2h-8h-1l1 2c4.66699 3.33301 13.5 11.166 26.5 23.499l44 43l51.5 52l49.5 50.5l37 38.5c9.66699 10.333 14.5 15.833 14.5 16.5l2 7c4 12 1.66699 19 -7 21
c-1.33301 0 -4.5 0.333008 -9.5 1s-10.333 1.5 -16 2.5s-11 1.83301 -16 2.5s-7.83301 1.33398 -8.5 2.00098h-12c-15.333 0 -30.333 -4.33301 -45 -13v2c3.33301 8.66699 3.33301 13.834 0 15.501s-7 3.16699 -11 4.5c-0.666992 0 -1.16699 0.166992 -1.5 0.5
s-0.833008 0.5 -1.5 0.5h-15c-1.33301 0 -3.16602 0.166992 -5.49902 0.5s-4.5 0.5 -6.5 0.5h-19c-8 0 -12.333 -0.333008 -13 -1v-2c-4 3.33301 -10.833 6.16602 -20.5 8.49902s-17.834 3.5 -24.501 3.5h-10c-10 0 -21.667 -2 -35 -6s-26 -10.667 -38 -20v-1
c-2.66699 -2 -5.66699 -4.5 -9 -7.5s-7 -6.5 -11 -10.5c3.33301 3.33301 5.83301 6.5 7.5 9.5s3.83398 6.16699 6.50098 9.5l5 18c4 10.667 1 17.667 -9 21v-1c-16 5.33301 -28.333 8.33301 -37 9s-20 1 -34 1h-32c-3.33301 -4 -6 -6.83301 -8 -8.5
s-4.33301 -3.16699 -7 -4.5v1h-3c-2 0 -3.33301 -0.333008 -4 -1c2 7.33301 2.33301 12.833 1 16.5s-7.66602 5.5 -18.999 5.5h-184c-6 -6 -11.333 -9.66699 -16 -11c-1.33301 -1.33301 -2.66602 -2.16602 -3.99902 -2.49902s-2.33301 -0.833008 -3 -1.5v1l-1 -1h-1l-1 -1
c-3.33301 -2 -6.83301 -3.83301 -10.5 -5.5s-7.16699 -3.5 -10.5 -5.5l-19 20l-14 7h-46c-20 0 -36.333 -0.666992 -49 -2s-23.834 -4 -33.501 -8s-18.834 -9.16699 -27.501 -15.5l-32 -24.5l-7 -5c-1.33301 -0.666992 -2.5 -1.5 -3.5 -2.5s-2.5 -2.16699 -4.5 -3.5l-71 -85
l14 24c10.667 15.333 20.5 31.833 29.5 49.5s17.5 39.167 25.5 64.5c-41.333 0 -76.5 -2.66699 -105.5 -8s-57.167 -18 -84.5 -38c1.33301 8 -0.833984 14.167 -6.50098 18.5s-12.334 7.5 -20.001 9.5s-15.334 3.16699 -23.001 3.5s-12.834 0.5 -15.501 0.5
c-31.333 0 -64.666 -6.66699 -99.999 -20s-68.666 -30.833 -99.999 -52.5s-58.666 -45.834 -81.999 -72.501s-39 -53 -47 -79zM1479 418l-20.999 -13.0029l1 2c-8 0 -15 1 -21 3c5.33301 7.33301 11.5 14.333 18.5 21s14.167 12.667 21.5 18l3 -1.5l1 -0.5
c6 -1.33301 13.667 -3.33301 23 -6s16 -4.66699 20 -6l1 2l16 -7l1 -0.5c0.666992 -0.333008 1.66699 -0.5 3 -0.5l26.5 -7.5c8.33301 -2.33301 12.833 -2.83301 13.5 -1.5c-1.33301 -5.33301 -5.83301 -11.666 -13.5 -18.999s-15.834 -13.666 -24.501 -18.999v2l-8 -6l1 2
c-4.66699 0.666992 -10 1.83398 -16 3.50098s-11.5 4 -16.5 7s-9 6.33301 -12 10s-3.83301 7.5 -2.5 11.5zM476.004 435.997c-7.33301 -6.66699 -13.6709 -12.667 -19.0039 -18s-10 -10.333 -14 -15l2 4l-3 -2c-2.66699 -1.33301 -8.66699 -3.33301 -18 -6s-19 -5 -29 -7
c-3.33301 -1.33301 -7.16602 -2.66602 -11.499 -3.99902l-13.5 -4l1 1l-12 -1c-4 0 -6 2 -6 6l1 2c2 5.33301 7.33301 12.166 16 20.499s18.334 16.333 29.001 24s21.334 14.167 32.001 19.5s19 8 25 8c4.66699 0 7.83398 -1.33301 9.50098 -4s4.16699 -7.66699 7.5 -15
c3.33301 2 7.83301 4.5 13.5 7.5s11.167 6.16699 16.5 9.5c-5.33301 -4.66699 -10 -9.16699 -14 -13.5s-8.33301 -8.5 -13 -12.5zM778.999 328.997l-1.00098 -3c-12 0 -23 -0.166992 -33 -0.5s-19 -0.833008 -27 -1.5c3.33301 0.666992 6.33301 1.16699 9 1.5
s4.66699 0.5 6 0.5c5.33301 2.66699 12.166 7.16699 20.499 13.5s15.5 12.166 21.5 17.499v-1l3 3c0.666992 0.666992 2.33398 1.66699 5.00098 3c12.667 0.666992 23.667 1.5 33 2.5s18.333 2.66699 27 5s17.667 5.33301 27 9s20 8.5 32 14.5
c0 -0.666992 -0.333008 -1 -1 -1v-1c-1.33301 -1.33301 -2.66602 -2.5 -3.99902 -3.5s-2.33301 -1.83301 -3 -2.5c-1.33301 -1.33301 -2.33301 -2.66602 -3 -3.99902s-2.33398 -2.66602 -5.00098 -3.99902l1 2c-6 -4.66699 -11.667 -10 -17 -16s-11.333 -15.667 -18 -29
c-9.33301 -0.666992 -19.666 -1.33398 -30.999 -2.00098s-25.333 -1.66699 -42 -3zM1211 143.997c-5.33301 0 -9.99902 -0.665039 -13.999 -1.99805c2 5.33301 6.16699 11.166 12.5 17.499s13.666 12.166 21.999 17.499s16.833 9.83301 25.5 13.5s16.667 5.5 24 5.5
c2 0 5.83301 -1.16699 11.5 -3.5s8.16699 -4.5 7.5 -6.5h16l-20 -17c-9.33301 -8 -22.5 -14.167 -39.5 -18.5s-32.167 -6.5 -45.5 -6.5zM782.999 188.999l-2.99902 -1.99902l-1 -1c-0.666992 -0.666992 -3 -1 -7 -1l-1 -1c-0.666992 -0.666992 -2.33398 -1 -5.00098 -1
c-1.33301 0 -2.33301 -0.333008 -3 -1l1 1c-13.333 -2.66699 -24.833 -4.66699 -34.5 -6s-20.834 -2 -33.501 -2h-3c4.66699 6.66699 10.334 13.5 17.001 20.5s12.667 12.833 18 17.5l-2 -3c2 0 4 1 6 3l34 1l-4 -14h28c-1.33301 -1.33301 -2.5 -2.83301 -3.5 -4.5
s-2.16699 -3.83398 -3.5 -6.50098zM360 444c-2 -1.33301 -4.5 -3.83105 -7.5 -7.49805s-7.16699 -8.16699 -12.5 -13.5l-10 -10c-1.33301 -2.66699 -3 -5.5 -5 -8.5s-4.66699 -5.16699 -8 -6.5l-41 -3c7.33301 19.333 18 32.666 32 39.999s33.333 11.666 58 12.999z
M823 458.002c-0.666992 -2 -1.33301 -4.66895 -2 -8.00195s-0.666992 -6.66602 0 -9.99902c-10.667 -0.666992 -21.167 -1.16699 -31.5 -1.5s-20.5 -0.5 -30.5 -0.5c6 7.33301 13.333 15.333 22 24s17.667 16.667 27 24h28c-6 -7.33301 -10.333 -16.666 -13 -27.999z
M479.001 300l-25.9971 -0.00195312c11.333 5.33301 23.166 10.5 35.499 15.5s26.166 8.16699 41.499 9.5v-2c-3.33301 -9.33301 -4.33301 -16.333 -3 -21c-8 -3.33301 -15.333 -6.66602 -22 -9.99902s-12.667 -6.66602 -18 -9.99902l-10.5 -13.5l-14 -19l-16 -21.5
c-5.66699 -7.33301 -10.834 -14.333 -15.501 -21l40 69zM455.004 157.998l-5 0.000976562c2.66699 2 4.33398 4.16699 5.00098 6.5s2.33398 4.16602 5.00098 5.49902c3.33301 5.33301 6.16602 9.33301 8.49902 12s4.16602 4.66699 5.49902 6l-1 -2l69 7l-8 -26h-39
c-6 -4 -12.5 -6.5 -19.5 -7.5s-13.833 -1.5 -20.5 -1.5zM630.004 171.999l-1.99805 -2.00098l1 3l-2 -2h-14c-1.33301 0 -2.83301 0.166992 -4.5 0.5s-3.83398 0.5 -6.50098 0.5c-2 0 -4.33301 -0.166992 -7 -0.5s-5 -0.5 -7 -0.5h-14c-5.33301 0 -12 -2 -20 -6l2 2h-14
c12 7.33301 22.5 13.333 31.5 18s17.5 8.33398 25.5 11.001s16 4.5 24 5.5s17 1.5 27 1.5c-4.66699 -6 -8.83398 -11.833 -12.501 -17.5s-6.16699 -10.167 -7.5 -13.5zM935.006 487.998c1.33301 1.33301 2.33203 2 2.99902 2h34c-5.33301 -9.33301 -12.666 -18 -21.999 -26
s-18.666 -13.333 -27.999 -16h1c-2 -0.666992 -5.33301 -1 -10 -1h-9h-11c-4.66699 0 -8 -0.333008 -10 -1c9.33301 5.33301 17.666 11.333 24.999 18zM1204 480.998h31.999l-9 -9l-24 -20.5c-7.33301 -6.33301 -15.666 -9.5 -24.999 -9.5h-15c-2 0 -5.66699 0.666992 -11 2
c9.33301 8 19.5 16.167 30.5 24.5s18.167 12.5 21.5 12.5zM1265 450.998h-3.99805l25 29l-5 -5h7c2 0 3.33301 0.166992 4 0.5s1.66699 0.5 3 0.5h10c7.33301 0 12 1.33301 14 4c-1.33301 -2.66699 -3.5 -6.5 -6.5 -11.5s-6.33301 -10 -10 -15
s-7.33398 -9.33301 -11.001 -13s-6.83398 -5.5 -9.50098 -5.5h-15h-17v1zM1424.01 136.998v-1c1.33301 1.33301 1.33301 2 0 2c-3.33301 0 -3 0.666992 1 2c4.66699 6.66699 9.5 13.167 14.5 19.5s8.83301 9.5 11.5 9.5c4.66699 0 13 -1 25 -3
c-3.33301 -8 -7 -15.667 -11 -23s-9.33301 -14 -16 -20l3 4c-1.33301 0 -2.16602 -0.166992 -2.49902 -0.5s-0.833008 -0.5 -1.5 -0.5h-4h-26c1.33301 3.33301 2.16602 5.5 2.49902 6.5s1.5 2.5 3.5 4.5zM1001.01 216.998l37 -0.00195312
c-4 -4 -8.83301 -8.16699 -14.5 -12.5s-11.167 -8.16602 -16.5 -11.499v1l-1 -1v1c-10 -6 -17.667 -11.333 -23 -16c-5.33301 -1.33301 -11.333 -2 -18 -2h-16h-18c12 2.66699 24.333 7.83398 37 15.501s23.667 16.167 33 25.5zM884.006 218.996l-2 -2.00195h26v-1
c-2.66699 -3.33301 -5 -6.66602 -7 -9.99902s-3.66699 -6.66602 -5 -9.99902c-2 -10 -0.666992 -16.333 4 -19l-57 2l21.5 21zM560.006 455.994c6.66699 7.33301 13.333 12 20 14s14.667 3 24 3l-50 -51c-2 -0.666992 -5 -1 -9 -1h-8h-8c-3.33301 0 -6 -0.333008 -8 -1
c6.66699 5.33301 13.5 11.333 20.5 18zM1195 202.994h11.999h5c3.33301 0 5.66602 -0.333008 6.99902 -1l-17.5 -13.5l-13.5 -10.5h1l-14.5 -10.5c-4.33301 -3 -7.16602 -4.5 -8.49902 -4.5c-5.33301 0 -10.333 -0.166992 -15 -0.5s-9 0.166992 -13 1.5
c2.66699 4 6.33398 8.16699 11.001 12.5s9.66699 8.5 15 12.5s10.833 7.33301 16.5 10s10.5 4 14.5 4zM660.004 469.994l4.00098 5h27c-3.33301 -6 -7 -13.5 -11 -22.5s-7.66699 -16.167 -11 -21.5h-15c-0.666992 -0.666992 -5 -1 -13 -1h-4
c0.666992 0.666992 1.5 1.83398 2.5 3.50098s2.5 3.83398 4.5 6.50098l1 4c1.33301 3.33301 3.16602 7.16602 5.49902 11.499s5.5 9.16602 9.5 14.499zM1077 490.994l11.999 0.000976562l-42 -48l4 5h-36c3.33301 3.33301 8.83301 8.5 16.5 15.5l20.5 18.5v-1
c0.666992 0.666992 1.33398 1.66699 2.00098 3s2 2.66602 4 3.99902c2.66699 1.33301 4.66699 3 6 5l-2 -3zM1111 291.995c-2 -1.33301 -3.16895 -2.5 -3.50195 -3.5s-1.83301 -2.16699 -4.5 -3.5c-0.666992 -0.666992 -1 -1.33398 -1 -2.00098
c-6 21.333 -16.333 34.333 -31 39l21.5 4c7 1.33301 14.167 2.33301 21.5 3l-1 -1c0.666992 -3.33301 3.33398 -6.16602 8.00098 -8.49902s10 -4.5 16 -6.5c-5.33301 -3.33301 -10.166 -6.83301 -14.499 -10.5s-8.5 -7.5 -12.5 -11.5zM240.002 165.995l-2 -1.00098
c7.33301 0.666992 14 1.16699 20 1.5s12.667 0.833008 20 1.5c-11.333 -12 -23 -21.167 -35 -27.5s-27 -10.166 -45 -11.499l22.5 22c7.66699 7.33301 14.167 12.333 19.5 15zM1391 171.994c1.33301 1.33301 1.33301 2.00195 0 2.00195c0 0.666992 -1.83301 -1 -5.5 -5
s-13.5 -16 -29.5 -36h-1c0 0.666992 -0.333008 1 -1 1c-3.33301 0.666992 -6.33301 1.16699 -9 1.5s-9 1.83301 -19 4.5c4 3.33301 7.83301 7 11.5 11s8.5 8.33301 14.5 13l8 7v-1v1l1 -1l2.5 2c1.66699 1.33301 6.16699 4.66602 13.5 9.99902
c2.66699 -1.33301 5.5 -2.33301 8.5 -3s6.16699 -1.33398 9.5 -2.00098c-0.666992 -1.33301 -2 -3 -4 -5zM1116 213.996h11.001c-2.66699 -2 -4.66699 -4.16699 -6 -6.5s-3.66602 -4.83301 -6.99902 -7.5h3c-6.66699 -7.33301 -13.834 -14 -21.501 -20s-16.5 -9 -26.5 -9h-4
c-1.33301 0 -2.33301 -0.166992 -3 -0.5s-1.66699 -0.5 -3 -0.5c7.33301 10.667 15.666 20.667 24.999 30s20 14 32 14zM352.003 146.996c-2.66699 -1.33301 -7.99805 -2.16699 -15.998 -2.5s-14.667 -0.5 -20 -0.5c4 12.667 11.333 23.334 22 32.001l-3 -4
c7.33301 1.33301 14.166 2.16602 20.499 2.49902s12.833 0.833008 19.5 1.5c-2.66699 -5.33301 -5.83398 -11 -9.50098 -17s-8.16699 -10 -13.5 -12zM1405 463.995c2 0 4.66699 -0.167969 8 -0.500977s6.33301 -0.166016 9 0.500977l-36 -37h-24
c-5.33301 0 -8.33301 -0.333008 -9 -1c5.33301 8 13.5 16.333 24.5 25s20.167 13 27.5 13zM1238 277.994c-4 -1.33301 -6.33203 -2.33008 -6.99902 -2.99707c0.666992 0.666992 1.5 1.33398 2.5 2.00098s2.16699 1.66699 3.5 3c2 1.33301 4.16699 3.16602 6.5 5.49902
s4.83301 5.16602 7.5 8.49902l2 6c11.333 0 18.5 0.5 21.5 1.5l13.5 4.5l-4 -11c1.33301 0 2.16602 -0.166992 2.49902 -0.5s1.5 -0.5 3.5 -0.5c-9.33301 -2.66699 -18 -5.33398 -26 -8.00098s-16.667 -5.33398 -26 -8.00098zM1124.01 478.997
c2.66699 2 5.83203 4.00098 9.49902 6.00098s8.5 3.66699 14.5 5c-5.33301 -4.66699 -11.333 -9.33398 -18 -14.001s-12.667 -9.66699 -18 -15c-6 -4 -11.167 -8 -15.5 -12s-9.16602 -7.66699 -14.499 -11l25 24.5c7.33301 7 13 12.167 17 15.5v1zM619.004 278.998
l7.99902 24h15h6c-5.33301 -3.33301 -10.166 -7 -14.499 -11zM943.003 105.998c-1.33301 -4 -2.33301 -6 -3 -6v8zM949.003 122.998l3 2l-3 -4v2zM773.003 353.998l2 2c0 -1.33301 -0.666992 -2 -2 -2zM892.003 383.998l2 2v-1zM783.003 46.998
c0.666992 0 1.33301 0.333008 2 1c-0.666992 -0.666992 -1.66699 -1 -3 -1h1zM300.002 265.998c1.33301 0 2.33301 0.333008 3 1c0.666992 0 0.666992 -0.166992 0 -0.5s-1.66699 -0.5 -3 -0.5zM589.002 300.998c0 0.666992 0.333008 1 1 1c0 -0.666992 -0.333008 -1 -1 -1z
M790.002 197.998v2v-2zM1432 278.998l1 1h2h-2z" />
    <glyph glyph-name="FL00D7h" unicode="&#xd7;" horiz-adv-x="415" 
d="M329 476c-1.33301 -1.33301 -1 -2.33301 1 -3l-1 4v-1zM204 332l-37 125.997l23 76h155l-14 -46c0 -1.33301 -0.166992 -2.66602 -0.5 -3.99902s-0.5 -2.66602 -0.5 -3.99902l-1 -3l2 -2l0.5 -1c0.333008 -0.666992 0.5 -1.33398 0.5 -2.00098l-1 -5l7 -36l27 34
c0.666992 2.66699 1.66699 4.66699 3 6v-1c2 2.66699 4 4.66699 6 6l-1 -1l1 2l1 3l16 54h156l-23 -75l-110 -126l33 -126l-25 -84h-155l18 60c0.666992 0.666992 1 2.66699 1 6v1c-2 0 -3 1 -3 3v1c0 1.33301 0.333008 3.33301 1 6l-6 35l-29 -36l-2 -5l-4 -4l1 3l-1 -0.5
c-0.666992 -0.333008 -1.33398 -0.833008 -2.00098 -1.5l-1 -5c-1.33301 -1.33301 -2.16602 -2.66602 -2.49902 -3.99902s-0.833008 -2.66602 -1.5 -3.99902l-16 -55h-153l25 84z" />
    <glyph glyph-name="FL00D8h" unicode="&#xd8;" horiz-adv-x="472" 
d="M286 170c8.66699 8.66699 17.333 18 26 28l24.5 29.5c7.66699 9.66699 14.167 18.5 19.5 26.5s9.33301 14.667 12 20zM390.999 512c-10 -10 -19.667 -20.333 -29 -31l-25.5 -30c-7.66699 -9.33301 -14.167 -17.833 -19.5 -25.5s-9 -13.5 -11 -17.5l-2 -5l87 106
c-1.33301 0.666992 -1.33301 1.66699 0 3zM502.999 204c-2.66699 -5.33301 -8.83203 -14.166 -18.499 -26.499s-21.167 -26 -34.5 -41l-43.5 -47c-15.667 -16.333 -30.834 -31 -45.501 -44s-28.334 -23.833 -41.001 -32.5s-22.667 -13 -30 -13h-116
c-11.333 1.33301 -22.666 12.5 -33.999 33.5s-22.666 46.5 -33.999 76.5c-5.33301 19.333 -9.83301 37.833 -13.5 55.5s-4.83398 30.5 -3.50098 38.5l85 277c3.33301 8 13.166 21.667 29.499 41s34.833 39.666 55.5 60.999s41.334 41.166 62.001 59.499
s37.334 30.5 50.001 36.5l1 6h127c7.33301 0 14.666 -4.16699 21.999 -12.5s14.333 -19.166 21 -32.499s13 -28 19 -44s11.167 -31.667 15.5 -47s7.5 -29 9.5 -41s2.66699 -21 2 -27z" />
    <glyph glyph-name=".0050" unicode="&#xd9;" horiz-adv-x="688" 
d="M805 529l1.00098 2.01074c-6 0 -12 -4.33301 -18 -13c-7.33301 -4.66699 -15.166 -9 -23.499 -13s-16.166 -7.33301 -23.499 -10l3 10l7 21l-5 2.5l-1 0.5l-1 -3v5l-5 6.5c-1.33301 1.66699 -2.66602 3.16699 -3.99902 4.5c19.333 16.667 36.666 34.667 51.999 54
s26.333 40.333 33 63l2 4c0 0.666992 -0.166992 1.16699 -0.5 1.5s-0.166016 1.16602 0.500977 2.49902l5 15c-2 19.333 -9 35.666 -21 48.999s-29.667 20 -53 20c-6.66699 0 -12.334 -0.666992 -17.001 -2s-9.66699 -3 -15 -5c-1.33301 -1.33301 -2.33301 -2 -3 -2
l-14 -3.5c-4 -1 -9.33301 -1.5 -16 -1.5c0.666992 0.666992 0.666992 1 0 1v1v-1c-0.666992 0.666992 -0.666992 2 0 4c0.666992 4.66699 0.833984 9.83398 0.500977 15.501s-2.16602 11.167 -5.49902 16.5l-1 1c-3.33301 3.33301 -6.83301 6.5 -10.5 9.5
s-8.16699 4.5 -13.5 4.5h-40c-2.66699 0 -6.83398 -1.66699 -12.501 -5s-11.667 -7.16602 -18 -11.499s-12 -8.83301 -17 -13.5s-7.83301 -8.33398 -8.5 -11.001l-4 -12l-5 -17h-8c-4 0 -9.16699 -1.33301 -15.5 -4s-12.166 -5.33398 -17.499 -8.00098l2 2
c-2 0 -4.33301 1 -7 3h-13c-4.66699 0 -8.16699 -0.333008 -10.5 -1s-4.5 -1.33398 -6.5 -2.00098v1l-7.5 -1.5c-1.66699 -0.333008 -3.16699 -0.5 -4.5 -0.5h-1l2 -5l-6 23.5c-2 7.66699 -7.66699 11.5 -17 11.5c-7.33301 0 -14.833 -1.83301 -22.5 -5.5
s-14.834 -7.83398 -21.501 -12.501l-5 -3c2.66699 1.33301 2.5 1.5 -0.5 0.5s-5.5 -2.16699 -7.5 -3.5v1l-1 -1l1 -2l-4 12h-8l2 4c-1.33301 0.666992 -4 2.83398 -8 6.50098l-14 12.5l6 3l-6 6l6 4l-18 9c-2 2 -3.33301 3.16699 -4 3.5s-1.33398 0.833008 -2.00098 1.5
l-1 -2c0 1.33301 -0.333008 2.33301 -1 3s-1 1.66699 -1 3c-1.33301 4 -2 6.66699 -2 8c0 2 -0.666992 4.33301 -2 7l15 11c-13.333 4.66699 -25.333 7.33398 -36 8.00098s-21.334 1 -32.001 1c-3.33301 -11.333 -5.66602 -19.666 -6.99902 -24.999s0.666992 -8.33301 6 -9
v2c3.33301 -2.66699 6 -5.33398 8 -8.00098s3.66699 -5.66699 5 -9v1c1.33301 -7.33301 2.66602 -11 3.99902 -11c2 -4 4.66699 -7.66699 8 -11c1.33301 -2 4.66602 -5.66699 9.99902 -11c0 -2 2 -5.33301 6 -10c4 -6.66699 8.66699 -13.334 14 -20.001
c-6.66699 -3.33301 -10.834 -6.83301 -12.501 -10.5s-3.16699 -7.16699 -4.5 -10.5c-1.33301 -6 -1.5 -10.5 -0.5 -13.5s2.16699 -5.16699 3.5 -6.5l-1 -3l-1 -4c-2.66699 -8 -2.66699 -13.5 0 -16.5s6.66699 -5.5 12 -7.5
c-1.33301 -3.33301 -1.66602 -5.33301 -0.999023 -6c-2 -5.33301 -1.33301 -8.66602 2 -9.99902v2c5.33301 -6 10.833 -9.33301 16.5 -10s10.167 -3.66699 13.5 -9h8c-2 -1.33301 -4.33301 -3.33301 -7 -6s-4.66699 -6.66699 -6 -12
c-2.66699 -7.33301 -3.16699 -13.333 -1.5 -18s3.5 -8.66699 5.5 -12v1c0 -1.33301 0.666992 -2.83301 2 -4.5s3.33301 -6.16699 6 -13.5h23l-2 2c2 -3.33301 4.83301 -7 8.5 -11l10.5 -11c-3.33301 -3.33301 -6.16602 -6.33301 -8.49902 -9l-7.5 -9
c-17.333 -9.33301 -32.333 -20.5 -45 -33.5s-21.667 -28.167 -27 -45.5c-3.33301 -11.333 -4.66602 -21.833 -3.99902 -31.5s2.66699 -19.167 6 -28.5v1l3.5 -20c1 -6 0.833008 -11.667 -0.5 -17c-1.33301 -1.33301 -2.5 -2.83301 -3.5 -4.5s-2.5 -3.83398 -4.5 -6.50098v1
l-25 -23l1 1c-8.66699 -6 -14.167 -11.667 -16.5 -17s-4.5 -11 -6.5 -17l-2 -7c-1.33301 -4.66699 -1.83301 -12.834 -1.5 -24.501s3.16602 -20.167 8.49902 -25.5c-1.33301 -1.33301 -2 -2.33301 -2 -3v1c-4.66699 -4 -8 -7.33301 -10 -10
c-2.66699 -2 -4.66699 -3.83301 -6 -5.5s-3.33301 -3.83398 -6 -6.50098l1 2l-51 -35h-4l-106 -71h5c-6 -4.66699 -11.333 -9.33398 -16 -14.001s-8.66699 -8.33398 -12 -11.001l-6 -7v1c-6.66699 -5.33301 -11 -11.333 -13 -18l-3 -10l7 -9c2 -0.666992 4 -1 6 -1h8
c12.667 0 25.667 2 39 6s26.666 9.33301 39.999 16s26.666 14 39.999 22l38 23c0.666992 2.66699 1.66699 4.66699 3 6l2 7l2 5c6 2.66699 12.833 5.5 20.5 8.5s16.834 6.83301 27.501 11.5c2.66699 1.33301 4.83398 2.16602 6.50098 2.49902s3.5 1.16602 5.5 2.49902
c6.66699 2.66699 12.167 5 16.5 7s8.16602 3 11.499 3c20.667 8.66699 38.167 17.167 52.5 25.5s26.833 17.5 37.5 27.5s19.834 21.333 27.501 34s15.167 27.667 22.5 45l112 76c19.333 12 33.333 24.833 42 38.5s15.667 29.167 21 46.5c0.666992 1.33301 1 3 1 5
c0 2.66699 0.333008 4.66699 1 6l3 10c-0.666992 1.33301 -0.333984 4.33301 0.999023 9l3 10c0.666992 3.33301 3.5 8.16602 8.5 14.499s10.5 12.5 16.5 18.5s12.167 11.333 18.5 16s11.166 7 14.499 7c4.66699 0 7.5 -0.166992 8.5 -0.5s1.83301 -0.833008 2.5 -1.5
c-2 -4.66699 -1.66699 -8 1 -10l-1 -1c-4 -4 -8 -13 -12 -27h5v-1l16 -8h2c4 0 9.5 0.833008 16.5 2.5s14.333 4.16699 22 7.5s15 7.16602 22 11.499s12.5 9.16602 16.5 14.499c3.33301 0 6.83301 1.83301 10.5 5.5s6.16699 7.83398 7.5 12.501c2 6.66699 0.666992 12 -4 16
l1 4zM385.001 315.011c2 7.33301 1.33496 12.666 -1.99805 15.999c4 3.33301 9.16699 7.33301 15.5 12l18.5 14v-1l5 3l8 6.5c2 1.66699 3.33301 2.83398 4 3.50098c5.33301 3.33301 10 7.33301 14 12l-1 -3c-1.33301 -1.33301 -2.66602 -3 -3.99902 -5
s-2.66602 -4.33301 -3.99902 -7l3 4c-0.666992 -0.666992 -1.33398 -1.16699 -2.00098 -1.5s-1.33398 -0.833008 -2.00098 -1.5l-1 -5c-1.33301 -1.33301 -2 -2.33301 -2 -3v1c-2.66699 -3.33301 -7.33398 -7 -14.001 -11l-11 -10v1c-4 -3.33301 -6.83301 -7 -8.5 -11
s-3.16699 -8 -4.5 -12c0 -0.666992 -0.666992 -1.66699 -2 -3l2 2c-2.66699 -1.33301 -5.83398 -3.5 -9.50098 -6.5s-7.16699 -6.16699 -10.5 -9.5c4 4 6.66699 9 8 15zM358.003 278.011l3 11c0 -2 1 -3 3 -3zM329.003 792.011l-1 -3h-1l1 1v1zM288.003 764.011
c-1.33301 -1.33301 -1 -2 1 -2z" />
    <glyph glyph-name="C" unicode="&#xda;" horiz-adv-x="633" 
d="M554 826l-1 -4l2 4h-1zM669 789c0 -0.666992 -0.333008 -1 -1 -1v-1l1 1l1 3l-2 1zM472 111h-3l2 -5l2 4zM343 37c4.66699 14 9.99902 23.1689 15.999 27.502s12 7.83301 18 10.5l2 7l1 2c-3.33301 3.33301 -4.66602 9 -3.99902 17h-8c-2 0 -3.33301 0.166992 -4 0.5
s-1.66699 0.5 -3 0.5c-11.333 0 -21.5 1.66699 -30.5 5s-11.5 11.666 -7.5 24.999l16 45l3 11l-1 2c-4.66699 6.66699 -6.83398 15.5 -6.50098 26.5s1.83301 20.833 4.5 29.5c2 5.33301 4 11 6 17s4.66699 11.667 8 17l-1 9l3 2v1v2v4l-3 3c-8 8 -13.833 15.667 -17.5 23
s-5.66699 14.833 -6 22.5s0.666992 16 3 25s5.5 19.167 9.5 30.5l27 71c0 1.33301 -1.33301 4.33301 -4 9c-1.33301 4 -2.5 7.83301 -3.5 11.5s-0.833008 8.5 0.5 14.5l2 6l1.5 3l0.5 1l2 4l1 6c1.33301 3.33301 5.16602 9.33301 11.499 18s13.166 14.667 20.499 18h1l-1 -2
l9 6c0.666992 0 0.833984 0.166992 0.500977 0.5s-0.166016 0.5 0.500977 0.5c1.33301 0 2.33301 0.333008 3 1l-3 3c-1.33301 2 -2.33301 4.16699 -3 6.5s-1.66699 5.16602 -3 8.49902c-1.33301 5.33301 -1.16602 11.333 0.500977 18s3.83398 13.667 6.50098 21l8 18l-1 16
c-8 -5.33301 -15 -9 -21 -11s-11.667 -3.66699 -17 -5c-1.33301 -0.666992 -3 -1.33398 -5 -2.00098s-3.66699 -1.33398 -5 -2.00098l-4.5 -1.5l-1.5 -0.5l-0.5 -0.5c-0.333008 -0.333008 -0.833008 -0.5 -1.5 -0.5c-8 -4 -14.167 -6.66699 -18.5 -8s-8.16602 -2 -11.499 -2
h-2c-2.66699 -6.66699 -7.16699 -12.834 -13.5 -18.501s-18.833 -8.5 -37.5 -8.5c-11.333 0 -19.666 1.66699 -24.999 5s-10 9.66602 -14 18.999v-2c-2 3.33301 -2.66699 7.33301 -2 12l-1 2l-1 -1c-2 1.33301 -3.16699 3.33301 -3.5 6s0.833984 8 3.50098 16l1 4l-4 12
c4 12.667 9.66699 22 17 28s15.333 11.667 24 17l1 1l14 11c3.33301 1.33301 6.5 2.5 9.5 3.5s4.83301 1.83301 5.5 2.5v-1l5 2c1.33301 0 1.66602 -0.333008 0.999023 -1c6 3.33301 10.333 6.16602 13 8.49902s5.33398 4.5 8.00098 6.5l5 7
c-1.33301 -1.33301 -0.833008 -0.833008 1.5 1.5s4.5 4.16602 6.5 5.49902l8 8c2.66699 0.666992 4 1.66699 4 3c0 0.666992 2 3 6 7h19l-6 -17l21 7l9 -1l-1 -1c3.33301 1.33301 8 4 14 8l11 7c0.666992 0.666992 3.16699 1.83398 7.5 3.50098
s8.16602 2.83398 11.499 3.50098h2c1.33301 0 2.16602 0.166992 2.49902 0.5s0.833008 0.5 1.5 0.5l-2 -2l3 2c10 8.66699 20.167 15.834 30.5 21.501s22.5 8.5 36.5 8.5c4.66699 0 7.33398 -0.333008 8.00098 -1l1 3l2 6c2 7.33301 5 12.833 9 16.5s8.66699 6.5 14 8.5
c3.33301 -3.33301 5.5 -6 6.5 -8s2.16699 -3.66699 3.5 -5c9.33301 7.33301 18 12.833 26 16.5s19 5.5 33 5.5c10 0 19.333 -2.5 28 -7.5s15 -11.167 19 -18.5c1.33301 1.33301 3 2 5 2c0.666992 0 1.16699 0.166992 1.5 0.5s0.833008 0.5 1.5 0.5h3
c0.666992 0.666992 3.33398 3.16699 8.00098 7.5l19 18.5l4 -3l-13 -42l-5 -4l-2 -6c-2 -7.33301 -5.83301 -13.333 -11.5 -18s-10.167 -8 -13.5 -10l-2 -1c1.33301 -6 1.66602 -9.66699 0.999023 -11l-1 -3h1l-4 -12c11.333 -8.66699 20.166 -16.834 26.499 -24.501
s12.166 -17.834 17.499 -30.501c3.33301 -1.33301 4.66602 -3.66602 3.99902 -6.99902s-1.66699 -6.66602 -3 -9.99902v-1l1 -1c-1.33301 -2 -1.33301 -3 0 -3l7 -8c0.666992 -0.666992 1.33398 -1.5 2.00098 -2.5s1.33398 -1.83301 2.00098 -2.5
c2.66699 -3.33301 4 -8.66602 4 -15.999c28 -3.33301 45 -13.5 51 -30.5s5 -38.167 -3 -63.5c-6.66699 -21.333 -17.5 -42 -32.5 -62s-32.167 -39.667 -51.5 -59l-27 -24c0 -13.333 -0.666992 -26.666 -2 -39.999s-4.33301 -27.666 -9 -42.999
c-4 -11.333 -9.66699 -21.333 -17 -30s-19.666 -14.334 -36.999 -17.001l-3 -10c-3.33301 -9.33301 -9 -16.666 -17 -21.999s-15.667 -8 -23 -8c-13.333 0 -23 4.66699 -29 14s-9.66699 18.666 -11 27.999l5 19v3l-11 12l-5 5v-2l-4 5v-2l-20 -3l-1 -3l1 3h-2l-2 -4h3v-1v1
l1 1l-3 -20l6 -6l1 2c4 -5.33301 6 -9.66602 6 -12.999c0 -4.66699 0.333008 -8.66699 1 -12v-2c4 -0.666992 6.66699 -5.33398 8 -14.001l2 2c2 -3.33301 1.66699 -9.66602 -1 -18.999l-1 -4h1l-1 -3v-2c0 0.666992 0.666992 -0.5 2 -3.5s2.66602 -5.16699 3.99902 -6.5
l-1 2c1.33301 -1.33301 2 -3 2 -5c6 -7.33301 10.833 -15.333 14.5 -24s3.83398 -19 0.500977 -31c-3.33301 -9.33301 -8.5 -16.333 -15.5 -21s-14.5 -8.66699 -22.5 -12v-4c-2.66699 -6 -4 -10 -4 -12h2c0 -8.66699 0.166992 -15.5 0.5 -20.5
s2.16602 -9.83301 5.49902 -14.5c1.33301 -9.33301 2.33301 -18 3 -26s1 -17 1 -27c-6 -5.33301 -12.333 -10.5 -19 -15.5s-13.667 -8.83301 -21 -11.5l-65 3c-4.66699 0 -9.83398 0.833008 -15.501 2.5s-10.834 4 -15.501 7s-8.16699 6.66699 -10.5 11s-2.5 9.5 -0.5 15.5z
" />
    <glyph glyph-name="M" unicode="&#xdb;" horiz-adv-x="690" 
d="M731 590h1l1 1zM498 603c-2 -8 2.33203 -13.333 12.999 -16c0 3.33301 1.33301 8 4 14c2 9.33301 5.33301 16.333 10 21c-6 -1.33301 -11.667 -3.83301 -17 -7.5s-8.66602 -7.5 -9.99902 -11.5zM68.999 22c1.33301 6 3.33105 10.332 5.99805 12.999
s5.66699 5.33398 9 8.00098l3 2v1c1.33301 1.33301 2.33301 2.16602 3 2.49902s1.33398 0.833008 2.00098 1.5l4 3c8.66699 9.33301 15.5 17.833 20.5 25.5s8.83301 15.834 11.5 24.501l1 3c-18.667 16.667 -30.667 34.667 -36 54s-3.66602 43 5.00098 71
c3.33301 11.333 7.16602 23.166 11.499 35.499s11.166 24.833 20.499 37.5l139 187c0 0.666992 -0.666992 1 -2 1l1 1c-0.666992 0 -1.16699 0.333008 -1.5 1l-0.5 1c0 1.33301 -1 3 -3 5c-4 5.33301 -7.66699 11.166 -11 17.499s-3.66602 13.833 -0.999023 22.5l3 11l16 18
c8 8.66699 13.833 15.167 17.5 19.5l10.5 12.5c5.33301 6.66699 9.83301 11.334 13.5 14.001s7.16699 5 10.5 7c0.666992 0.666992 2.66699 1.66699 6 3c2.66699 1.33301 5 2.66602 7 3.99902s3.66699 2.66602 5 3.99902l-1 -1c9.33301 11.333 17.833 21.166 25.5 29.499
s17.5 15.833 29.5 22.5c0.666992 0.666992 2 1.33398 4 2.00098s3.33301 1.33398 4 2.00098c4 1.33301 7.33301 2.33301 10 3l1 1c5.33301 0 8.66602 0.666992 9.99902 2v-1c14 8.66699 27.333 15 40 19c1.33301 0 3.83301 0.166992 7.5 0.5s6.5 0.833008 8.5 1.5
c4.66699 8.66699 9.33398 15.334 14.001 20.001v-1l4 5l-1 -1l18 21l14 18c4 5.33301 7 8.66602 9 9.99902c10 9.33301 20.333 15.833 31 19.5s20.667 5.5 30 5.5c3.33301 0 7.16602 -1 11.499 -3s7.83301 -4.33301 10.5 -7c0 -2 0.5 -5.66699 1.5 -11s2 -11.166 3 -17.499
s2.16699 -12.333 3.5 -18l3 -12.5v-2l15 -16h-12c0 -2.66699 0.166992 -5 0.5 -7s0.5 -3.66699 0.5 -5v5c2.66699 -1.33301 4.33398 -4 5.00098 -8h3c0.666992 0 1.16699 -0.166992 1.5 -0.5s1.16602 -0.5 2.49902 -0.5c4.66699 -1.33301 9.83398 -3 15.501 -5
s11.5 -5.66699 17.5 -11v1c5.33301 -3.33301 10 -8.66602 14 -15.999s7.33301 -14.666 10 -21.999h1h4c0 -0.666992 -0.333008 -2.83398 -1 -6.50098s-1 -5.83398 -1 -6.50098c2.66699 -7.33301 5.66699 -12.666 9 -15.999c2.66699 -0.666992 4 -1.66699 4 -3
c2.66699 -2.66699 4.33398 -4.66699 5.00098 -6v2l3 -8c2 -5.33301 3.33301 -9.33301 4 -12c0 -0.666992 0.166992 -1.5 0.5 -2.5s0.166016 -2.16699 -0.500977 -3.5v-2l2 2c0 -1.33301 0.333008 -2.83301 1 -4.5s1.33398 -3.16699 2.00098 -4.5l2 -3
c3.33301 -5.33301 5.83301 -10.833 7.5 -16.5s0.833984 -13.5 -2.49902 -23.5c-3.33301 -10.667 -10 -19.5 -20 -26.5s-20.667 -13.5 -32 -19.5c-1.33301 -1.33301 -2.66602 -2.16602 -3.99902 -2.49902s-2.33301 -0.833008 -3 -1.5l11.5 -23.5l13.5 -27l12.5 -25
c3.66699 -7.66699 6.5 -13.167 8.5 -16.5c8.66699 -19.333 14.5 -39.5 17.5 -60.5s0.5 -44.167 -7.5 -69.5c-11.333 -33.333 -31 -63.333 -59 -90s-57.667 -50 -89 -70l1 -2c1.33301 -2 1.83301 -4 1.5 -6s-0.5 -3.66699 -0.5 -5l-3 -21l1 2v-2c0 -7.33301 1 -14.333 3 -21
s5.66699 -16.334 11 -29.001c-5.33301 -7.33301 -9.66602 -12.333 -12.999 -15s-6.33301 -4.66699 -9 -6c-10 -2 -20 -3.16699 -30 -3.5s-18.667 -0.5 -26 -0.5s-14 1.33301 -20 4s-7.33301 9.33398 -4 20.001l12 39c1.33301 -2 1.66602 -1.83301 0.999023 0.5
s-1.33398 4.5 -2.00098 6.5v2c-14.667 -4.66699 -29 -7 -43 -7h-2c-2 0 -4.16699 0.666992 -6.5 2s-7.16602 6 -14.499 14l68 45l-3 2c-5.33301 5.33301 -9.33301 11.666 -12 18.999s-4.66699 12.666 -6 15.999c-2 5.33301 -1.33301 15 2 29
c-0.666992 4 -0.833984 8.16699 -0.500977 12.5s-0.166992 8.16602 -1.5 11.499l-24 -8.5c-8.66699 -3 -17.667 -6.83301 -27 -11.5c-16 -7.33301 -31 -13.666 -45 -18.999s-29.667 -8 -47 -8c-16.667 0 -31.5 1.66699 -44.5 5s-25.167 8.33301 -36.5 15
c-6 -9.33301 -11.833 -17 -17.5 -23l-16.5 -17v1l-6.5 -6.5c-3.66699 -3.66699 -6.83398 -6.5 -9.50098 -8.5c-4 -3.33301 -7.16699 -6.16602 -9.5 -8.49902l-5.5 -5.5c0.666992 -4.66699 3 -12.834 7 -24.501s9.66699 -21.167 17 -28.5h-40l-9 4
c-0.666992 -1.33301 -1.5 -2.5 -2.5 -3.5s-1.5 -1.83301 -1.5 -2.5l-10 -34c-0.666992 -2 -2 -4.5 -4 -7.5s-4.16699 -6 -6.5 -9s-4.83301 -5.83301 -7.5 -8.5s-5 -4 -7 -4c-12 -1.33301 -21.333 -2.16602 -28 -2.49902s-15 -0.5 -25 -0.5h-17c-7.33301 2 -9 9.33301 -5 22z
" />
    <glyph glyph-name="R" unicode="&#xdc;" horiz-adv-x="752" 
d="M341 424v-2l1 -1c0 2 -0.333008 3 -1 3zM589 131v2l-2 -3zM361 437l13 11.0029v-1c14 14 25.333 27 34 39s15.667 26.667 21 44c1.33301 0.666992 0.333008 2.5 -3 5.5s-7 8.16699 -11 15.5v11c-1.33301 -0.666992 -3 -1.33398 -5 -2.00098
s-3.66699 -1.33398 -5 -2.00098h-1l-13 -8l-1 -1c0 -0.666992 -0.333008 -1.33398 -1 -2.00098s-1.33398 -1.66699 -2.00098 -3c-2.66699 -5.33301 -5 -10.333 -7 -15s-4 -8 -6 -10v1l-12 -16c-3.33301 -4.66699 -7 -9.33398 -11 -14.001l-2 -2l-1 -1l-8 -8
c14.667 -8 22.834 -13.667 24.501 -17s1.5 -7.66602 -0.5 -12.999zM632 526.003c-5.33301 -15.333 -6.33496 -30.332 -3.00195 -44.999s8 -29 14 -43l2 6c2 7.33301 6.66699 12.666 14 15.999s15.333 6.33301 24 9c4.66699 0.666992 7.66699 1.66699 9 3l2 1
c0 2 -0.666992 4.66699 -2 8s-2.33301 6.33301 -3 9c-4 6 -6.33301 14 -7 24c-0.666992 -1.33301 -1 -1 -1 1s0.333008 3.66699 1 5s1 3 1 5c-1.33301 3.33301 -2.16602 7.5 -2.49902 12.5s-2.16602 10.833 -5.49902 17.5l-9 9l-17 -19l-2 1c-4 -4.66699 -7 -8 -9 -10l-4 -4
zM34.998 21.0039c2 6 5 10.8203 9 14.4873s8.66699 7.16699 14 10.5c2.66699 1.33301 4.66699 2.5 6 3.5s3.33301 2.16699 6 3.5l33 21.5c10.667 7 16.667 13.167 18 18.5l31 101c5.33301 16.667 14.5 30.334 27.5 41.001s27.5 21.334 43.5 32.001l19.5 13.5
c6.33301 4.33301 11.5 8.16602 15.5 11.499v-1c8 8 12 12.667 12 14c1.33301 4.66699 3.16602 9.16699 5.49902 13.5s4.5 8.83301 6.5 13.5c1.33301 4 2.83301 8.16699 4.5 12.5s3.5 8.83301 5.5 13.5h-16c-4.66699 0 -9.16699 1 -13.5 3s-7.16602 9 -8.49902 21h1v1
c-1.33301 1.33301 -1.66602 4 -0.999023 8l-1 -2c0 1.33301 -0.166992 2.33301 -0.5 3s0.166992 2.66699 1.5 6v3l-1 -6c-1.33301 1.33301 -2 2.66602 -2 3.99902l3 10l7 15l-3 2l-1 17c-0.666992 11.333 -0.166992 23.833 1.5 37.5s4.83398 27.834 9.50098 42.501l2 6
c0 0.666992 0.666992 1.66699 2 3l1 6l31 48c6.66699 5.33301 10.5 8.5 11.5 9.5s3.16699 2.16699 6.5 3.5c3.33301 2 7 4.5 11 7.5s7.33301 5.16699 10 6.5l-1 -1l2.5 2.5c0.333008 0.333008 0.833008 1.5 1.5 3.5c0.666992 0.666992 1.66699 1.5 3 2.5
s2.33301 1.83301 3 2.5l-1 -2c2 2 8.66699 9.66699 20 23l1 -1c1.33301 1.33301 2 2.66602 2 3.99902c0 2 0.333008 3.33301 1 4c2 6 4.83301 11.667 8.5 17s7.83398 10.333 12.501 15h-5c-11.333 0 -18.666 1.66699 -21.999 5c-1.33301 3.33301 -1.83301 5.5 -1.5 6.5
s1.16602 3.83301 2.49902 8.5c2.66699 8.66699 7.16699 14.167 13.5 16.5s12.833 3.83301 19.5 4.5c0.666992 0 1.83398 0.166992 3.50098 0.5l7.5 1.5c13.333 2.66699 23 4.83398 29 6.50098s9.5 2.66699 10.5 3l1.5 0.5l6 4v-1c24 8.66699 47.667 15 71 19l4 25l3 10
c3.33301 6.66699 17.333 21.334 42 44.001l-3.5 -10c-1.66699 -4.66699 -3.16699 -8.66699 -4.5 -12c6.66699 3.33301 12.667 5.66602 18 6.99902s12.666 2 21.999 2c1.33301 0 5 -0.5 11 -1.5s12.167 -2.5 18.5 -4.5s11.833 -4.33301 16.5 -7s6.66699 -5.66699 6 -9
l-12 -41c12 -0.666992 23 -2 33 -4s20.333 -4.33301 31 -7c0.666992 -0.666992 2.33398 -1 5.00098 -1s4.33398 -0.333008 5.00098 -1l33 -9.5c10.667 -3 22.334 -4.83301 35.001 -5.5l8 -16c-4.66699 -6 -10 -11.5 -16 -16.5s-12.667 -7.83301 -20 -8.5h-2h-6
c-3.33301 0 -6 -0.333008 -8 -1c1.33301 -1.33301 2.83301 -3 4.5 -5s3.5 -4.33301 5.5 -7h-1c4.66699 -5.33301 6.66699 -11.166 6 -17.499s-0.666992 -12.5 0 -18.5c-0.666992 -0.666992 -0.833984 -1.33398 -0.500977 -2.00098s0.166016 -1.33398 -0.500977 -2.00098
l1 -6c0.666992 -3.33301 2 -7 4 -11s3.66699 -8 5 -12c1.33301 -3.33301 2.33301 -5.66602 3 -6.99902s2.66699 -4.33301 6 -9c2.66699 -16.667 4.16699 -30.167 4.5 -40.5s-1.83398 -22.166 -6.50098 -35.499c-4 -13.333 -8.5 -26.333 -13.5 -39s-10.167 -25 -15.5 -37
c-1.33301 -3.33301 -2.66602 -6.16602 -3.99902 -8.49902s-2.66602 -4.83301 -3.99902 -7.5c-1.33301 -1.33301 -2.16602 -3.16602 -2.49902 -5.49902s-1.16602 -4.83301 -2.49902 -7.5c-0.666992 -3.33301 -1.33398 -5.83301 -2.00098 -7.5
s-1.33398 -3.16699 -2.00098 -4.5l-8 -8c-6.66699 -7.33301 -14.334 -14.666 -23.001 -21.999s-19.334 -11 -32.001 -11c-2.66699 0 -5.33398 1 -8.00098 3c2.66699 -6.66699 3.5 -12.667 2.5 -18s-2.5 -11 -4.5 -17l-9 -23
c-0.666992 -1.33301 -0.833984 -3.16602 -0.500977 -5.49902s0.5 -5.16602 0.5 -8.49902c0 -6 1.66699 -12.833 5 -20.5s7.66602 -15.167 12.999 -22.5c5.33301 -6.66699 9.83301 -14 13.5 -22s5.83398 -18 6.50098 -30c-1.33301 -7.33301 -3.33301 -15.333 -6 -24l-9 -27
c-4 -15.333 -7 -30.333 -9 -45h1c-1.33301 -8.66699 2.16699 -16.167 10.5 -22.5s16.5 -12.166 24.5 -17.499c9.33301 -6 16.5 -11.667 21.5 -17s6.16699 -12.333 3.5 -21c-4 -12.667 -10.667 -19 -20 -19h-88l-11 6l-1 -1c-5.33301 2 -11.166 4.66699 -17.499 8
s-8.16602 9 -5.49902 17l9 28c2 7.33301 3.16699 15 3.5 23s-2.83398 18.667 -9.50098 32l-5 9c-6.66699 7.33301 -12 15.5 -16 24.5s-5 19.833 -3 32.5l3 29c-1.33301 2.66699 -2 5.33398 -2 8.00098c-5.33301 5.33301 -9.33301 11 -12 17l-0.5 0.5
c-0.333008 0.333008 -0.166016 0.833008 0.500977 1.5c-2.66699 1.33301 -3.33398 3.66602 -2.00098 6.99902v-1c-2.66699 5.33301 -4.83398 11.333 -6.50098 18s-4.16699 15.667 -7.5 27l-5 33v-1l-1 2c-8.66699 10.667 -16.167 21.667 -22.5 33l-18.5 33l1 -4
c-2 0 -3.33301 -0.333008 -4 -1l2 2l-5 -3c-4.66699 -4.66699 -10 -8.66699 -16 -12c-3.33301 -3.33301 -8.33301 -7.33301 -15 -12c-5.33301 -4 -9.83301 -7.83301 -13.5 -11.5s-8.16699 -7.16699 -13.5 -10.5c-5.33301 -4 -11.166 -8.66699 -17.499 -14l-18.5 -15l-14 -15
c-3.33301 -3.33301 -6.16602 -6 -8.49902 -8s-4.83301 -4.33301 -7.5 -7l-11 -12l-26.5 -26.5c-8.33301 -8.33301 -18.166 -16.166 -29.499 -23.499l2 3l-3 -6l-1 -2c-0.666992 -1.33301 -1.33398 -2.16602 -2.00098 -2.49902s-1.33398 -1.16602 -2.00098 -2.49902
c0 -1.33301 -1 -3 -3 -5l-15 -26c-4.66699 -8 -11.667 -16.667 -21 -26c-3.33301 -2 -5.5 -3.66699 -6.5 -5s-1.83301 -2.33301 -2.5 -3h1l-5 -3c-3.33301 -4 -9 -7.66699 -17 -11l-1 -1c-6 -3.33301 -11.167 -6.66602 -15.5 -9.99902s-6.83301 -6.33301 -7.5 -9l-4 -13
l-6 -34c-4 -13.333 -8 -21.666 -12 -24.999s-10.333 -6.33301 -19 -9l-4 -2l2 2l-5 -3l-3 -3c0 -2.66699 -1.33301 -4.33398 -4 -5.00098l-1 1c-8 -8 -16 -12.833 -24 -14.5s-15.667 -2.5 -23 -2.5l-50 1c-4.66699 0 -7.33398 1.83301 -8.00098 5.5
s-0.333984 7.83398 0.999023 12.501v3z" />
    </font>
</defs>
</svg>
